<?xml version="1.0" encoding="UTF-8"?>
<svg id="wheel" xmlns="http://www.w3.org/2000/svg" xmlns:xlink="http://www.w3.org/1999/xlink" version="1.1" viewBox="0 0 792 792">
  <!-- Generator: Adobe Illustrator 29.6.1, SVG Export Plug-In . SVG Version: 2.1.1 Build 9)  -->
  <defs>
    <style>
      .st0, .st1, .st2, .st3, .st4 {
        fill: none;
      }

      .st5 {
        fill: #111;
      }

      .st6 {
        fill: #f37977;
      }

      .st7 {
        fill: #ffd791;
      }

      .st1 {
        stroke-width: 3px;
      }

      .st1, .st2, .st3 {
        stroke: #111;
      }

      .st1, .st2, .st3, .st4 {
        stroke-miterlimit: 10;
      }

      .st8 {
        fill: #a679b5;
      }

      .st9 {
        clip-path: url(#clippath-2);
      }

      .st10 {
        fill: #fff;
      }

      .st11 {
        fill: #42a7de;
      }

      .st12 {
        fill: #4eb84e;
      }

      .st2 {
        stroke-width: 2px;
      }

      .st3 {
        stroke-width: .2px;
      }

      .st13 {
        fill: #f6851f;
      }

      .st4 {
        stroke: #ffd791;
      }

      .st14 {
        fill: #f175ad;
      }
    </style>
    <clipPath id="clippath-2">
      <path class="st0" d="M429.7,42.6h-67.2v-15.7h67.2v15.7ZM457.6,20h-122.7v29.2h122.7v-29.2h0Z"/>
    </clipPath>
  </defs>
  <g id="Color_Bkgd">
    <circle class="st5" cx="396" cy="396" r="379.9"/>
    <circle class="st10" cx="396" cy="396" r="376.7"/>
    <g>
      <path class="st5" d="M405.2,337.7L455.3,22.9c-19.3-3-39.1-4.6-59.3-4.6s-40.3,1.6-59.8,4.7l50.5,314.2,18.5.5h0Z"/>
      <path class="st12" d="M422.8,343.4L567.7,59.5c-17.4-8.9-35.8-16.5-54.9-22.7-19.3-6.3-38.8-10.9-58.3-14l-49.1,314.4,17.5,6.2h-.1Z"/>
      <path class="st6" d="M437.8,354.2l225.5-225.2c-13.8-13.8-28.9-26.7-45.2-38.6-16.5-12-33.5-22.4-51.1-31.3l-143.9,283.9,14.7,11.3h0Z"/>
      <path class="st8" d="M448.6,369.2l284-144.5c-8.9-17.4-19.2-34.3-31.1-50.7-12-16.5-25-31.7-38.9-45.6l-224.5,225.5,10.5,15.3h0Z"/>
      <path class="st13" d="M454.3,386.8l314.8-49.7c-3.1-19.3-7.7-38.6-13.9-57.8-6.3-19.3-14-37.8-23-55.4l-283.2,145.1,5.3,17.8h0Z"/>
      <path class="st14" d="M454.3,405.2l314.8,50c3-19.3,4.6-39.1,4.6-59.3s-1.6-40.3-4.7-59.8l-314.2,50.5-.5,18.5h0Z"/>
      <path class="st11" d="M448.6,422.8l283.9,144.8c8.9-17.4,16.5-35.8,22.7-54.9,6.3-19.3,10.9-38.8,14-58.3l-314.4-49.1-6.2,17.5h0Z"/>
      <path class="st12" d="M437.8,437.8l225.2,225.5c13.8-13.8,26.7-28.9,38.6-45.2,12-16.5,22.4-33.5,31.3-51.1l-283.9-143.9-11.3,14.7h.1Z"/>
      <path class="st6" d="M422.8,448.6l144.5,284c17.4-8.9,34.3-19.2,50.7-31.1,16.5-12,31.7-25,45.6-38.9l-225.5-224.5-15.3,10.5h0Z"/>
      <path class="st8" d="M405.2,454.3l49.7,314.8c19.3-3.1,38.6-7.7,57.8-13.9,19.3-6.3,37.8-14,55.4-23l-145.1-283.2-17.8,5.3h0Z"/>
      <path class="st13" d="M386.8,454.3l-50,314.8c19.3,3,39.1,4.6,59.3,4.6s40.3-1.6,59.8-4.7l-50.5-314.2-18.5-.5h0Z"/>
      <path class="st14" d="M369.2,448.6l-144.8,283.9c17.4,8.9,35.8,16.5,54.9,22.7,19.3,6.3,38.8,10.9,58.3,14l49.1-314.4-17.5-6.2h0Z"/>
      <path class="st11" d="M354.2,437.8l-225.5,225.2c13.8,13.8,28.9,26.7,45.2,38.6,16.5,12,33.6,22.4,51.1,31.3l143.9-283.9-14.7-11.3h0Z"/>
      <path class="st12" d="M343.4,422.8L59.3,567.3c8.9,17.4,19.2,34.3,31.1,50.7,12,16.5,25,31.7,38.9,45.6l224.5-225.5-10.5-15.3h.1Z"/>
      <path class="st6" d="M337.7,405.2L22.9,454.9c3.1,19.3,7.7,38.6,13.9,57.8,6.3,19.3,14,37.8,23,55.4l283.2-145.1-5.3-17.8h0Z"/>
      <path class="st8" d="M337.7,386.8L22.9,336.7c-3,19.3-4.6,39.1-4.6,59.3s1.6,40.3,4.7,59.8l314.2-50.5.5-18.5h0Z"/>
      <path class="st13" d="M343.4,369.2L59.5,224.4c-8.9,17.4-16.5,35.8-22.7,54.9-6.3,19.3-10.9,38.8-14,58.3l314.4,49.1,6.2-17.5h0Z"/>
      <path class="st14" d="M354.2,354.2l-225.2-225.5c-13.8,13.8-26.7,28.9-38.6,45.2-12,16.5-22.4,33.6-31.3,51.1l283.9,143.9,11.3-14.7h0Z"/>
      <path class="st11" d="M369.2,343.4L224.7,59.3c-17.4,8.9-34.4,19.2-50.7,31.1-16.5,12-31.7,25-45.6,38.9l225.5,224.5,15.3-10.5h0Z"/>
      <path class="st13" d="M386.8,337.7L337.1,22.9c-19.3,3.1-38.6,7.7-57.8,13.9-19.3,6.3-37.8,14-55.4,23l145.1,283.2,17.8-5.3h0Z"/>
    </g>
  </g>
  <g id="Radials">
    <g>
      <line class="st2" x1="396" y1="396" x2="336.9" y2="22.9"/>
      <line class="st2" x1="396" y1="396" x2="224.5" y2="59.4"/>
      <line class="st2" x1="396" y1="396" x2="128.9" y2="128.9"/>
      <line class="st2" x1="396" y1="396" x2="59.4" y2="224.5"/>
      <line class="st2" x1="396" y1="396" x2="22.9" y2="336.9"/>
      <line class="st2" x1="395.9" y1="396" x2="22.9" y2="455"/>
      <line class="st2" x1="395.9" y1="396" x2="59.4" y2="567.4"/>
      <line class="st2" x1="395.9" y1="396" x2="128.8" y2="663"/>
      <line class="st2" x1="395.9" y1="396" x2="224.4" y2="732.5"/>
      <line class="st2" x1="395.9" y1="396" x2="336.8" y2="769"/>
      <line class="st2" x1="395.9" y1="396" x2="455" y2="769.1"/>
      <line class="st2" x1="395.9" y1="396" x2="567.4" y2="732.6"/>
      <line class="st2" x1="395.9" y1="396" x2="663" y2="663.1"/>
      <line class="st2" x1="395.9" y1="396" x2="732.5" y2="567.5"/>
      <line class="st2" x1="395.9" y1="396" x2="769" y2="455.1"/>
      <line class="st2" x1="396" y1="396" x2="769" y2="337"/>
      <line class="st2" x1="396" y1="396" x2="732.5" y2="224.6"/>
      <line class="st2" x1="396" y1="396" x2="663.1" y2="129"/>
      <line class="st2" x1="396" y1="396" x2="567.5" y2="59.5"/>
      <line class="st2" x1="396" y1="396" x2="455.1" y2="23"/>
    </g>
    <line class="st3" x1="396" y1="396" x2="455.1" y2="23"/>
  </g>
  <g id="Circles">
    <circle class="st1" cx="396" cy="396" r="377.7"/>
    <circle class="st5" cx="396" cy="396" r="59.5"/>
  </g>
  <g id="Text">
    <g>
      <g>
        <path class="st5" d="M263.1,210.2c0-.8-.6-1.8-1-2.6-.8-1.2-2-1.4-2.8-.8-1,.6-1,1.6-.8,3.2.2,2.6-.6,4.2-1.8,5.2-2,1.6-4.8,1.4-6.8-1.4-.6-.8-1-1.8-1-2.4l2.4-1.2c0,.6.2,1.2.8,2,.8,1,1.8,1.2,2.6.6.8-.6,1-1.2.8-3.2-.2-2.4.6-4,2-5,2.4-1.8,5.2-1.2,7,1.4.8,1,1.2,2.2,1.2,2.8l-2.4,1.2h0l-.2.2Z"/>
        <path class="st5" d="M250.3,197c4-2.8,6.6-1.4,7.6,0,1.6,2.2.8,5-2.2,7.2-3.4,2.4-6.2,1.8-7.6,0-1.6-2.2-.8-5,2.2-7.2h0ZM253.7,201.8c1.6-1.2,2.8-2.4,2.2-3.4-.6-.8-2.4,0-3.8,1.2-1.4,1-2.8,2.4-2.2,3.2.6,1,2.4,0,3.8-1h0Z"/>
        <path class="st5" d="M249.9,187c.4,0,1,.6,1.4,1.4,1.8,2.4,1.2,5.2-1.8,7.4s-6.2,1.8-8.2-.8c-.4-.6-.8-1.2-.8-1.6l2.2-1.2c0,.2.2.6.6,1,1,1.2,2.6,1,4.2,0,1.8-1.2,2.2-2.8,1.4-4-.2-.4-.6-.6-1-.8l1.8-1.6h0l.2.2Z"/>
        <path class="st5" d="M249.5,185.8l-9.6,7-1.8-2.6,9.6-7,1.8,2.6ZM235.5,192c.8-.6,1.8-.4,2.4.4.4.8.4,1.6-.4,2.2-.8.6-1.8.4-2.4-.2-.6-.8-.4-1.6.4-2.2h0v-.2Z"/>
        <path class="st5" d="M243.1,177.2l-.8.8h0c1,0,2,.4,2.6,1.4,1,1.4.6,3.4-1,4.6-2.4,1.8-5,.4-6.6-1.8h-.2c-.8.6-1,1.6-.4,2.4.6.8,1.2,1.2,2,1.6l-1.4,1.8c-.6-.2-2-1-2.8-2.4-2-2.8-.4-4.8,1.6-6.2l3.6-2.6c.8-.6,1.6-1.2,2-1.8l1.6,2.2h-.2ZM238.9,181c.6.8,1.8,1.8,3,.8,1-.6,1-1.4.6-1.8-.2-.4-.8-.6-1.6-.4,0,0-.4,0-.4.2l-1.6,1.2h0Z"/>
        <path class="st5" d="M226.9,183l-1.8-2.6,13.4-9.8,1.8,2.6-13.4,9.8Z"/>
        <path class="st5" d="M221.9,175c-.6-.6-1.4-1.6-2.2-2.4-1-1.6-1.8-2.8-1.6-4.2,0-1.2,1-2.4,2-3.2,1.4-1,2.8-1.4,4-1.2,1.4,0,2.8,1.2,3.6,2.2,0,0,.2.4.4.6l4.8-3.6,1.8,2.6-12.8,9.4h0v-.2ZM225.9,168.2s0-.2-.2-.4c-1-1.2-2.2-1.2-3.4-.2-1.2.8-1.8,2-.8,3.2,0,.2.4.4.6.6l4-3h0l-.2-.2Z"/>
        <path class="st5" d="M221.9,161.8c-1,.6-2,1.4-2.8,2.2l-1.6-2.2,1.2-1.2h0c-1.4.2-2.4,0-3-.8,0-.2-.2-.4-.4-.6l2.6-1.8s.2.4.4.6c.4.6,1.2,1,2.4.6.2,0,.6-.2,1-.6l4.8-3.6,1.8,2.6-6.6,4.8h.2Z"/>
        <path class="st5" d="M221.3,147l-.8.8h0c1,0,2,.4,2.6,1.4,1,1.4.6,3.4-1,4.6-2.4,1.8-5,.4-6.6-1.8h-.2c-.8.6-1,1.6-.4,2.4.6.8,1.2,1.2,2,1.6l-1.4,1.8c-.6-.2-2-1-2.8-2.4-2-2.8-.4-4.8,1.6-6.2l3.6-2.6c.8-.6,1.6-1.2,2-1.8l1.6,2.2h-.2ZM216.9,150.8c.6.8,1.8,1.8,3,.8,1-.6,1-1.4.6-1.8-.2-.4-.8-.6-1.6-.4,0,0-.4,0-.4.2l-1.6,1.2h0Z"/>
        <path class="st5" d="M214.5,138c.4,0,1,.6,1.4,1.4,1.8,2.4,1.2,5.2-1.8,7.4s-6.2,1.8-8.2-.8c-.4-.6-.8-1.2-.8-1.6l2.2-1.2c0,.2.2.6.6,1,.8,1.2,2.6,1,4.2,0,1.8-1.2,2.2-2.8,1.4-4-.2-.4-.6-.6-.8-.8l1.8-1.6h0v.2Z"/>
        <path class="st5" d="M199.3,142.2l2.6-1.8-1.4-1.8,1.8-1.4,1.4,1.8,4.4-3.2c1-.8,1-1.4.6-2,0-.2-.4-.4-.6-.6l2-1.4c.4.2.8.8,1.2,1.4.6.8.8,1.6.8,2.2s-.6,1.8-2.2,2.8l-4.4,3.2.8,1.2-1.8,1.4-.8-1.2-2,1.4-2.4-2h0Z"/>
        <path class="st5" d="M209.3,130.4l-9.6,7-1.8-2.6,9.6-7,1.8,2.6ZM195.3,136.6c.8-.6,1.8-.4,2.4.4.4.8.4,1.6-.4,2.2-.8.6-1.8.4-2.4-.2-.6-.8-.4-1.6.4-2.2h0v-.2Z"/>
        <path class="st5" d="M202.1,121c.4,0,1,.6,1.4,1.4,1.8,2.4,1.2,5.2-1.8,7.4s-6.2,1.8-8.2-.8c-.4-.6-.8-1.2-.8-1.6l2.2-1.2c0,.2.2.6.6,1,1,1.2,2.6,1,4.2,0,1.8-1.2,2.2-2.8,1.4-4-.2-.4-.6-.6-1-.8l1.8-1.6h0l.2.2Z"/>
        <path class="st5" d="M196.1,120.6c1.4-1,1.4-2.4.6-3.4-.6-.8-1.2-1.2-1.6-1.6l1.6-1.6c.8.4,1.6,1.4,2.4,2.2,1.8,2.6,1.2,5.2-1.8,7.4-3.2,2.4-6.2,2-7.8,0-1.4-2-.8-4.4,2.2-6.4.6-.4,1-.8,1.4-.8l3.2,4.4h0l-.2-.2ZM192.7,119.6c-1.2.8-2,2-1.4,2.6.6.8,2,.2,3-.4l-1.6-2.2h0Z"/>
      </g>
      <g>
        <path class="st5" d="M342.7,221.3l3.8-.4,1,3-16.4,1.6-1.2-3.6,14.4-8,1,3-3.2,1.8,1,2.8h0l-.4-.2ZM339.5,219.5l-3,1.6c-.8.4-2.4,1.2-3.4,1.6h0c1,0,2.8-.4,3.8-.6l3.4-.4-.8-2.2h0Z"/>
        <path class="st5" d="M327.3,214.1l15.4-5,1,3-15.4,5-1-3Z"/>
        <path class="st5" d="M338.1,195.5c-.2.4-.4.6-.8,1,1,.6,1.8,1.6,2.2,3,.8,2.6-.6,4.8-3,5.6-1.8.6-3.6,0-5-1h0c-.8,1.2-2,1.8-3,2.2-2,.6-4.4-.2-5-2.6-.6-2,.2-3.8,2.4-4.4,1.4-.4,2.8-.4,5,1.2h0c.8-1,2-2.6,2.4-3.4-1.2-.2-2.6,0-3.8.4l-.8-2.6c2.2-.4,4.4-.4,6,0,.4-.8,1.2-1.8,2-3l1,3.2h0l.4.4ZM336.1,198.3c-.8,1.2-2,2.8-3,4,.6.2,1.4.4,2.4,0,1.4-.4,2.2-1.6,1.8-2.8-.2-.8-.6-1.2-1.2-1.4h0v.2ZM327.7,203.7c.8-.2,1.4-.8,2-1.6-1-.8-2-.8-2.8-.6s-1.6.8-1.2,1.6c.2.8,1.2.8,2,.6h0Z"/>
        <path class="st5" d="M331.1,185.9l3.8-.4,1,3-16.4,1.6-1.2-3.6,14.4-8,1,3-3.2,1.8,1,2.8h0l-.4-.2ZM328.1,184.1l-3,1.6c-.8.4-2.4,1.2-3.4,1.6h0c1,0,2.8-.4,3.8-.6l3.4-.4-.8-2.2h0Z"/>
        <path class="st5" d="M316.3,182.1l-1-3,15.8-5.2,1,3-15.8,5.2h0Z"/>
        <path class="st5" d="M316.7,167.3c1-.2,2.2-.6,3.6-1l6.4-2c2.4-.8,3.8-.8,5,0,1,.6,1.8,1.6,2.4,3.2.4,1,.4,2,.4,3h-2.4c0-.4,0-1.2-.2-2-.4-1.6-1.6-1.8-3.4-1.2h-.6c.8.4,1.6,1,1.8,1.8.8,2.4-1.6,4.4-4.2,5.2-3.8,1.2-6.4.2-7-1.8-.2-.8,0-1.8.6-2.4h-1.2l-.8-2.6h0l-.4-.2ZM321.7,168.9c-.2,0-.6.2-.8.4-.4.2-.8.8-.6,1.2.4,1,2,1,3.8.4,2-.6,3-1.6,2.6-2.4,0-.4-.4-.8-1.2-.8h-1l-3,1h0l.2.2Z"/>
        <path class="st5" d="M318.9,155.3c4.6-1.6,6.6.6,7.2,2.4.8,2.6-.8,5-4.4,6.2-4,1.2-6.4-.2-7.2-2.4-.8-2.6.8-5,4.4-6h0v-.2ZM320.7,160.9c2-.6,3.4-1.4,3-2.6-.4-1-2.2-.6-4,0-1.6.4-3.4,1.4-3,2.4s2.4.8,4,.2h0Z"/>
        <path class="st5" d="M316.1,154.3c-1,.4-2.2.8-3.4,1.2l-.8-2.6,1.6-.6h0c-1.4,0-2.2-.8-2.6-1.8v-.6l3-1v.6c.2.6,1,1.4,2.2,1.2.2,0,.8,0,1.2-.2l5.6-1.8,1,3-7.8,2.6h0Z"/>
        <path class="st5" d="M321.9,145.1l-11.2,3.6-1-3,11.2-3.6,1,3ZM306.7,146.7c1-.4,1.8,0,2.2,1,.2.8,0,1.8-1.2,2-1,.4-1.8,0-2.2-1-.2-.8,0-1.8,1.2-2h0Z"/>
        <path class="st5" d="M304.9,141.1l3-1-.8-2.2,2.2-.6.8,2.2,5-1.6c1.2-.4,1.4-1,1.2-1.6,0-.2-.2-.6-.4-.8l2.4-.8c.2.4.6,1,.8,1.8s.4,1.6,0,2.4c-.4.8-1.2,1.4-2.8,2l-5.2,1.8.4,1.4-2.2.8-.4-1.4-2.2.8-1.6-2.8h0l-.2-.4Z"/>
        <path class="st5" d="M302.1,138.1l-1-3,5.8-1.8h0c-.4,0-1-.4-1.2-.6-.4-.4-.8-.8-1-1.4-.6-2,.8-3.4,3.6-4.4l6.8-2.2,1,3-6.8,2.2c-1,.4-2,.8-1.8,1.8,0,.4.6.8,1.4.8h.8l7-2.2,1,3-15.8,5.2h0l.2-.4Z"/>
        <path class="st5" d="M306.7,124.9c-1.2.4-2.2.8-3.4,1.2l-.8-2.6,1.2-.6h0c-1-.4-2-1-2.4-2.2s0-2.2.8-3h0c-.6,0-1-.4-1.6-.8-.4-.4-.8-.8-1-1.4-.6-2,.6-3.4,3.4-4.2l7-2.2,1,3-6.6,2.2c-1.2.4-2.2.8-2,1.8,0,.6.6.8,1.4.8s.4,0,.8,0l7-2.2,1,3-7,2.2c-.8.2-1.8.6-1.6,1.6,0,.4.6.8,1.4.8h.8l7-2.2,1,3-7.8,2.6h0l.4-.8Z"/>
        <path class="st5" d="M309.3,106.9l-11.2,3.6-1-3,11.2-3.6,1,3ZM294.3,108.5c1-.4,1.8,0,2.2,1,.2.8,0,1.8-1.2,2-1,.4-1.8,0-2.2-1-.2-.8,0-1.8,1.2-2h0Z"/>
        <path class="st5" d="M305.5,95.7c.2.2.6,1,1,1.8,1,2.8-.4,5.4-4,6.4-3.4,1.2-6.4,0-7.6-3.2-.2-.8-.2-1.4-.2-1.8l2.4-.4v1.2c.4,1.4,2,1.8,4,1.2s3-2,2.6-3.4c0-.4-.4-.8-.6-1l2.2-1h0l.2.2Z"/>
        <path class="st5" d="M299.9,89.3l3.8-.4,1,3-16.4,1.6-1.2-3.6,14.4-8,1,3-3.2,1.8,1,2.8h0l-.4-.2ZM296.7,87.5l-3,1.6c-.8.4-2.4,1.2-3.4,1.6h0c1,0,2.8-.4,3.8-.6l3.4-.4-.8-2.2h0Z"/>
        <path class="st5" d="M292.9,82.9c-1,.4-2.2.8-3.4,1.2l-.8-2.6,1.6-.6h0c-1.4,0-2.2-.8-2.6-1.8v-.6l3-1v.6c.2.6,1,1.4,2.2,1.2.2,0,.8,0,1.2-.2l5.6-1.8,1,3-7.8,2.6h0Z"/>
        <path class="st5" d="M283.1,74.3l3-1-.8-2.2,2.2-.6.8,2.2,5-1.6c1.2-.4,1.4-1,1.2-1.6,0-.2-.2-.6-.4-.8l2.4-.8c.2.4.6,1,.8,1.8s.4,1.6,0,2.4c-.4.8-1.2,1.4-2.8,2l-5.2,1.8.4,1.4-2.2.6-.4-1.4-2.2.8-1.6-2.8-.2-.2Z"/>
      </g>
      <g>
        <path class="st5" d="M198.2,340.4c-1,0-2-.4-3.2-.8-1.8-.6-3-1.2-3.8-2.6-.6-1-.6-2.4-.2-3.8.6-1.6,1.4-2.6,2.4-3.2,1.2-.8,3-.6,4.2-.2.2,0,.4,0,.6.2l1.8-5.8,3,1-5,15.2h.2ZM197.6,332.4s-.2,0-.4-.2c-1.6-.4-2.6.4-3,1.8-.4,1.4-.2,2.6,1.2,3h.8l1.6-4.8h0l-.2.2Z"/>
        <path class="st5" d="M183.6,325c1.6-4.6,4.4-5,6.2-4.4,2.6.8,3.6,3.6,2.4,7.2-1.2,4-4,5.2-6.2,4.4-2.6-.8-3.6-3.6-2.4-7h0v-.2ZM189.2,326.8c.6-2,.8-3.6-.2-4s-1.8,1.4-2.4,3.2c-.4,1.6-.8,3.6,0,4,1,.4,2-1.6,2.4-3h0l.2-.2Z"/>
        <path class="st5" d="M183,321.6c-.4-.4-1-1-1.8-1.2s-1.4,0-1.6.6c0,.6,0,1,.8,2,1.4,1.6,1.6,3,1.2,4-.6,2-2.6,3-4.8,2.4-1-.2-1.6-.8-2-1.2l1.2-2c.4.4.8.8,1.4,1,.8.2,1.2,0,1.4-.6s0-.8-.8-1.8c-1.4-1.4-1.6-2.8-1.2-4,.8-2.2,2.8-3,5-2.2,1,.2,2,1,2.4,1.4l-1.2,2h0v-.4Z"/>
        <path class="st5" d="M168.2,329.4l1-3-2.2-.8.8-2.2,2.2.8,1.6-5c.4-1.2,0-1.8-.6-2h-.8l.8-2.4c.4,0,1.2,0,2,.4.8.2,1.6.8,2,1.4.4.8.4,1.8,0,3.6l-1.8,5.2,1.4.4-.6,2.2-1.4-.4-.8,2.2h-3.2v-.4h-.4Z"/>
        <path class="st5" d="M162.6,320.2l.8-2.2,4.6,1.4-.8,2.2-4.6-1.4Z"/>
        <path class="st5" d="M155,326.6l5-15.4,3,1-5,15.4-3-1Z"/>
        <path class="st5" d="M155.2,318.2c-.4,1.2-.8,2.4-1,3.4l-2.6-.8v-1.4h.2c-.8.6-2,1-3.2.6-2.2-.6-2.4-2.6-1.6-5.2l2.4-7.2,3,1-2.2,7c-.2,1-.4,2,.4,2.2.4,0,1,0,1.4-.6,0-.2.4-.6.4-1l2.2-6.8,3,1-2.6,7.8h.2Z"/>
        <path class="st5" d="M139,320l1-3-2.2-.8.6-2.2,2.2.8,1.6-5c.4-1.2,0-1.8-.6-2h-.8l.8-2.4c.4,0,1,0,2,.4.8.2,1.6.8,2,1.4.4.8.4,1.8,0,3.6l-1.8,5.2,1.4.4-.6,2.2-1.4-.4-.8,2.2h-3.2v-.4h-.2Z"/>
        <path class="st5" d="M136.4,308.4c.6-1.8-.2-2.8-1.6-3.2-.8-.2-1.6-.4-2.2-.4v-2.2c1.2,0,2.4,0,3.6.4,3,1,4,3.6,3,7-1.2,3.8-4,5.4-6.4,4.6-2.4-.8-3.2-3.2-2-6.6.2-.8.4-1.2.6-1.6l5.2,1.8h0l-.2.2ZM133,309.6c-.4,1.4-.4,2.6.4,3,1,.4,1.8-1,2.2-2l-2.6-.8h0v-.2Z"/>
        <path class="st5" d="M128.2,309.4c-.4,1-.8,2.4-1,3.4l-2.6-.8.4-1.6h0c-.8,1-2,1.4-2.8,1-.2,0-.4,0-.6-.2l1-3s.4,0,.6.2c.6.2,1.6,0,2.4-1,0-.2.4-.6.4-1l1.8-5.6,3,1-2.6,7.8h0v-.2Z"/>
        <path class="st5" d="M121.6,307.2c-.4,1.2-.8,2.4-1,3.4l-2.6-.8v-1.4h.2c-.8.6-2,1-3.2.6-2.2-.6-2.4-2.6-1.6-5.2l2.4-7.2,3,1-2.2,7c-.2,1-.4,2,.4,2.2.4,0,1,0,1.4-.6,0-.2.4-.6.4-1l2.2-6.8,3,1-2.6,7.8h.2Z"/>
        <path class="st5" d="M109.6,299.8c.6-1.8-.2-2.8-1.6-3.2-.8-.2-1.6-.4-2.2-.4v-2.2c1.2,0,2.4,0,3.6.4,3,1,4,3.6,3,7-1.2,3.8-4,5.4-6.4,4.6-2.4-.8-3.2-3.2-2-6.6.2-.8.4-1.2.6-1.6l5.2,1.8h0l-.2.2ZM106.2,301c-.4,1.4-.4,2.6.4,3,1,.4,1.8-1,2.2-2l-2.6-.8h0v-.2Z"/>
        <path class="st5" d="M95.8,306l1-3-2.2-.8.6-2.2,2.2.8,1.6-5c.4-1.2,0-1.8-.6-2h-.8l.8-2.4c.4,0,1,0,2,.4.8.2,1.6.8,2,1.4.4.8.4,1.8,0,3.6l-1.8,5.2,1.4.4-.6,2.2-1.4-.4-.8,2.2h-3.2v-.4h-.2Z"/>
        <path class="st5" d="M89.4,292.2l1.8-3.2,3,1-8.4,14.2-3.6-1.2,2-16.4,3,1-.4,3.8,2.8,1h0l-.2-.2ZM86.2,293.6l-.6,3.4c0,1-.4,2.6-.6,3.6h0c.4-1,1.2-2.4,1.8-3.2l1.6-3-2.2-.8h0Z"/>
        <path class="st5" d="M80.4,293.8c-.4,1-.8,2.4-1,3.4l-2.6-.8.4-1.6h0c-.8,1-2,1.4-2.8,1-.2,0-.4,0-.6-.2l1-3s.4,0,.6.2c.6.2,1.6,0,2.4-1,0-.2.4-.6.4-1l1.8-5.6,3,1-2.6,7.8h0v-.2Z"/>
        <path class="st5" d="M67.6,296.8l1-3-2.2-.8.6-2.2,2.2.8,1.6-5c.4-1.2,0-1.8-.6-2h-.8l.8-2.4c.4,0,1,0,2,.4.8.2,1.6.8,2,1.4.4.8.4,1.8,0,3.6l-1.8,5.2,1.4.4-.8,2.2-1.4-.4-.8,2.2h-3.2v-.4Z"/>
      </g>
      <g>
        <path class="st5" d="M304,320.9c.4,0,1.1.4,2.1,1.1,3.2,2.3,2.8,6,.2,9.4-3.4,4.7-7.4,4.5-9.6,2.8-.8-.6-1.3-1.1-1.5-1.5l1.9-1.7c.2.4.4.8.9,1.1,1.3.9,3.4.8,5.7-2.3,2.1-3,1.9-4.9.4-6-.4-.2-.9-.6-1.3-.8l1.1-2.3h.2Z"/>
        <path class="st5" d="M293.2,319.8c2.6-3.8,5.5-3.2,6.8-2.1,2.1,1.5,2.3,4.1,0,7.1-2.3,3.2-5.1,3.4-6.8,2.1-2.1-1.5-2.1-4.1,0-6.9h0v-.2ZM297.5,323c1.1-1.5,1.9-3,.9-3.6-.8-.6-2.1.8-3,2.1s-1.9,3-.9,3.6,2.3-.8,3-2.1h0Z"/>
        <path class="st5" d="M290.5,320.6c-.8.9-1.3,1.9-1.9,2.8l-2.1-1.5.6-1.1h0c-.9.4-2.1.2-3-.4-1.7-1.1-1.3-3,0-5.1l4.2-5.6,2.5,1.7-4.2,5.6c-.6.8-.9,1.7-.2,2.1s.9.2,1.5,0c.2,0,.4-.4.8-.8l4-5.4,2.5,1.7-4.5,6.2h0v-.2Z"/>
        <path class="st5" d="M275.6,317.6l1.7-2.4-1.7-1.3,1.3-1.7,1.7,1.3,3-4.1c.8-.9.6-1.7,0-1.9-.2,0-.4-.2-.8-.4l1.3-1.9c.4,0,.9.4,1.5.9.8.6,1.1,1.1,1.3,1.9,0,.8,0,1.7-1.1,3l-3,4.1,1.1.8-1.3,1.7-1.1-.8-1.3,1.9-2.8-1.1h.2Z"/>
        <path class="st5" d="M276.4,306.5c.9-1.5.6-2.4-.6-3.4-.8-.6-1.3-.8-1.9-.9l.9-1.9c.8.2,1.9.8,2.8,1.3,2.5,1.7,2.6,4.3.6,7.1-2.3,3-5.1,3.8-7.2,2.3-1.9-1.3-1.9-3.8,0-6.4.4-.6.8-.9.9-1.1l4.2,3h.2ZM273.2,306.7c-.9,1.1-1.1,2.3-.4,2.8s1.9-.4,2.6-1.3l-2.1-1.5h-.2Z"/>
        <path class="st5" d="M268.8,305c-.8.9-1.3,1.9-1.9,2.8l-2.1-1.5.6-1.1h0c-.9.4-2.1.2-3-.4-.9-.8-1.3-1.7-1.1-2.6h0c-.4,0-1.1.2-1.5.2-.6,0-.9-.2-1.5-.6-1.7-1.1-1.3-3,0-5.1l4.2-5.6,2.5,1.7-3.8,5.3c-.8.9-1.1,1.9-.6,2.4.4.4.9.2,1.5,0l.6-.6,4.2-5.6,2.5,1.7-4.2,5.6c-.4.8-.9,1.5-.2,2.1.4.2.9.2,1.5,0l.6-.6,4.2-5.6,2.5,1.7-4.5,6.2h0l-.2-.4Z"/>
        <path class="st5" d="M256.5,295.8c-.8,1.1-1.3,2.1-2.1,2.8l-2.1-1.5.6-1.1h0c-.9.4-1.9.4-2.8-.2-1.9-1.5-1.1-4.1.6-6.6,2.3-3.2,4.7-3.6,6.2-2.4.8.6.9,1.3.9,1.9h0l3-4.1,2.5,1.7-7,9.6h.2ZM256.1,291.3c.2-.4.4-.6.4-.9.2-.8,0-1.1-.2-1.3-.8-.6-2.1.4-3,1.9-1.3,1.7-1.5,2.8-.8,3.4.4.2.9,0,1.3,0s.4-.4.6-.6l1.7-2.4h0Z"/>
        <path class="st5" d="M242.9,283.6c2.6-3.8,5.5-3.2,6.8-2.1,2.1,1.5,2.3,4.1,0,7.1-2.3,3.2-5.1,3.4-6.8,2.1-2.1-1.5-2.1-4.1,0-6.9h0v-.2ZM247.5,286.8c1.1-1.5,1.9-3,.9-3.6-.8-.6-2.1.8-3,2.1s-1.9,3-.9,3.6,2.3-.8,3-2.1h0Z"/>
        <path class="st5" d="M240.3,284.4c-.6.9-1.3,1.9-1.9,2.8l-2.1-1.5.8-1.3h0c-1.1.6-2.1.6-2.8,0-.2,0-.4-.2-.4-.4l1.7-2.4s.2.2.6.4c.6.4,1.5.6,2.5-.2.2,0,.6-.4.8-.8l3.4-4.5,2.5,1.7-4.5,6.2h-.4Z"/>
        <path class="st5" d="M235.4,271.4l-.6.9h0c.9-.4,1.9,0,2.8.4,1.3.9,1.5,2.8.4,4.5-1.7,2.3-4.5,1.9-6.6.4h0c-.6.9-.4,1.7.4,2.3.8.6,1.5.8,2.3.8l-.8,1.9c-.8,0-2.1-.4-3.2-1.3-2.6-1.9-1.7-4.1-.4-6l2.5-3.4c.6-.8.9-1.5,1.3-2.1l2.1,1.5h0l-.2.2ZM232.7,275.9c.8.6,2.1,1.1,3,0,.6-.9.4-1.5,0-1.9-.4-.2-.9-.4-1.5,0l-.4.4-1.1,1.5Z"/>
        <path class="st5" d="M227.2,275c-.6.9-1.3,1.9-1.9,2.8l-2.1-1.5.8-1.3h0c-1.1.6-2.3.6-2.8,0-.2,0-.4-.2-.4-.4l1.7-2.4s.2.2.6.4c.6.4,1.5.6,2.5-.2.2,0,.6-.4.8-.8l3.4-4.5,2.5,1.7-4.5,6.2h-.4Z"/>
        <path class="st5" d="M217.6,272.2l2.5-5.3c.2-.6.6-1.1.8-1.7h0l-1.3,1.3-4.2,4.1-2.3-1.7,6.8-5.6c1.7-1.3,3.6-2.6,5.3-3,1.5-.4,2.6,0,3,0l-.8,2.6c-.6,0-1.1-.2-1.7,0-.6,0-1.1.2-1.5.6-.2,0-.4,0-.4.4v.4l-3.6,10.1-2.6-1.9h0v-.4Z"/>
        <path class="st5" d="M204.2,267.7l9.1-12.2,2.5,1.7-9.1,12.2-2.5-1.7Z"/>
        <path class="st5" d="M206.8,260.2c-.8.9-1.3,1.9-1.9,2.8l-2.1-1.5.6-1.1h0c-.9.4-2.1.2-3-.4-1.7-1.1-1.3-3,0-5.1l4.2-5.6,2.5,1.7-4.2,5.6c-.6.8-.9,1.7-.2,2.1.4.2.9.2,1.5,0,.2,0,.4-.4.8-.8l4-5.4,2.5,1.7-4.5,6.2h0v-.2Z"/>
        <path class="st5" d="M187.2,255.9l7.4-9.9c.6-.9,1.3-1.9,1.9-2.6l2.1,1.5-.6,1.1h0c.8-.4,1.9-.4,2.6.2,1.9,1.3,1.3,4.1-.6,6.6-2.3,3-4.7,3.6-6.2,2.6-.8-.6-.9-1.3-.9-2.1h0l-3.2,4.5-2.5-1.7h0v-.2ZM194.7,250.4s-.2.4-.4.6c-.4.6-.4,1.3,0,1.7.9.6,2.1-.4,3-1.9,1.3-1.7,1.5-2.8.8-3.4-.4-.2-.8-.4-1.3,0,0,0-.4.2-.6.6l-1.7,2.3.2.2Z"/>
        <path class="st5" d="M194.7,242l-6.6,9-2.5-1.7,6.6-9,2.5,1.7ZM183.9,251.6c.6-.8,1.5-.9,2.3-.4.8.6.8,1.5.2,2.1-.6.8-1.5.9-2.1.4-.8-.6-.9-1.3-.2-2.3h0l-.2.2Z"/>
        <path class="st5" d="M177.5,243.3c.6-.8,1.3-1.7,2.1-2.8l3.8-5.1c1.3-1.9,2.5-2.6,3.8-2.8,1.1,0,2.3,0,3.6,1.1.8.6,1.5,1.3,1.9,2.1l-1.9,1.5c-.4-.6-.8-1.1-1.5-1.7-1.1-.9-2.3-.4-3.2.9l-.4.6h0c.8-.4,1.5,0,2.3.4,2.1,1.5,1.1,4.1-.4,6.4-2.1,3-4.7,3.8-6.4,2.4-.8-.6-.9-1.3-.9-2.3h0l-.8.8-2.1-1.5h.2ZM182.2,241.8c0,.2-.4.6-.4.8,0,.4,0,.9.2,1.3.9.6,2.1-.4,3-1.7,1.1-1.7,1.3-2.8.8-3.4-.4-.2-.8-.2-1.3,0-.2,0-.4.4-.6.6l-1.7,2.4h0Z"/>
        <path class="st5" d="M177.7,235.2c.9-1.5.6-2.4-.6-3.4-.8-.6-1.3-.8-1.9-.9l.9-1.9c.8.2,1.9.8,2.8,1.3,2.5,1.7,2.6,4.3.6,7.1-2.3,3-5.1,3.8-7.2,2.3-1.9-1.3-1.9-3.8,0-6.4.4-.6.8-.9.9-1.1l4.2,3h.2ZM174.3,235.4c-.9,1.1-1.1,2.3-.4,2.8s1.9-.4,2.6-1.3l-2.1-1.5h-.2Z"/>
        <path class="st5" d="M170.2,233.9c-.8.9-1.3,1.9-1.9,2.8l-2.1-1.5.6-1.1h0c-.9.4-2.1.2-3-.4-1.7-1.1-1.3-3,0-5.1l4.2-5.6,2.5,1.7-4.2,5.6c-.6.8-.9,1.7-.2,2.1.4.2.9.2,1.5,0,.2,0,.4-.4.8-.8l4-5.4,2.5,1.7-4.5,6.2h0v-.2Z"/>
        <path class="st5" d="M156.5,221.4c2.6-3.8,5.5-3.2,6.8-2.1,2.1,1.5,2.3,4.1,0,7.1-2.3,3.2-5.1,3.4-6.8,2.1-2.1-1.5-2.1-4.1,0-6.9h0v-.2ZM160.9,224.6c1.1-1.5,1.9-3,.9-3.6-.8-.6-2.1.8-3,2.1s-1.9,3-.9,3.6,2.3-.8,3-2.1h0Z"/>
        <path class="st5" d="M149.7,213.9c.8-.9,1.3-1.9,1.9-2.8l2.1,1.5-.6.9h0c.9-.2,1.9-.2,2.8.4,1.7,1.3,1.5,3-.2,5.4l-4,5.4-2.5-1.7,3.8-5.1c.9-1.1,1.1-2.1.6-2.6-.4-.4-.9,0-1.1,0s-.4.4-.8.8l-4.2,5.6-2.5-1.7,4.5-6.2h0Z"/>
        <path class="st5" d="M148.6,212.2c-.2-.4-.8-1.1-1.3-1.7s-1.1-.4-1.5,0c-.4.4-.2.9,0,1.9.9,1.9.6,3,0,3.9-1.1,1.7-3.2,2.1-5.1.8-.8-.6-1.1-1.1-1.5-1.7l1.7-1.5c.2.4.6.9.9,1.3.6.4,1.1.4,1.5,0,.2-.4.2-.8-.2-1.9-.8-1.7-.6-3,0-3.9,1.3-1.9,3.4-1.9,5.3-.6.8.6,1.5,1.3,1.7,2.1l-1.7,1.5h0l.2-.2Z"/>
        <path class="st5" d="M137.1,204.7l2.6-2.4,2.3,1.7-11.7,10.3-2.8-2.1,6.6-14.1,2.3,1.7-1.5,3.2,2.3,1.7h0ZM133.7,205.1l-1.5,2.8c-.4.8-1.1,2.3-1.7,3h0l2.5-2.4,2.3-2.3-1.7-1.3h0l.2.2Z"/>
        <path class="st5" d="M128.4,203.7c-.6.9-1.3,1.9-1.9,2.8l-2.1-1.5.8-1.3h0c-1.1.6-2.1.6-2.8,0-.2,0-.4-.2-.4-.4l1.7-2.4s.2.2.6.4c.6.4,1.5.6,2.5-.2.2,0,.6-.4.8-.8l3.4-4.5,2.5,1.7-4.5,6.2h-.4Z"/>
        <path class="st5" d="M116.1,202.6l1.7-2.4-1.7-1.3,1.3-1.7,1.7,1.3,3-4.1c.8-.9.6-1.7,0-1.9-.2,0-.4-.2-.8-.4l1.3-1.9c.4,0,.9.4,1.5.9.8.6,1.1,1.1,1.3,1.9,0,.8,0,1.7-1.1,3l-3,4.1,1.1.8-1.3,1.7-1.1-.8-1.3,1.9-2.8-1.1h.2Z"/>
      </g>
      <g>
        <path class="st5" d="M107.5,402.7c-1,.2-2.2.4-3.6.4s-3-.2-4-1.2-1.2-1.8-1.2-3,.8-2.8,2.4-3.6h0c-1.8-.6-2.8-2.2-2.8-4s.4-2.4,1.2-3.2,2.6-1.6,5.2-1.6h3v15.8h0l-.2.4ZM104.5,396.3h-.6c-1.2,0-2,1-2,2.2s.6,2,1.8,2,.6,0,.8,0v-4.2h0ZM104.5,389.1h-.8c-1.2,0-2.4.8-2.4,2.4s1,2.4,2.4,2.4h.6v-4.8h.2Z"/>
        <path class="st5" d="M93.1,401.5c0-1,.8-1.8,1.6-1.8s1.6.8,1.6,1.8-.8,1.8-1.6,1.8-1.6-.6-1.6-1.8h0ZM96.3,386.7v11.8h-3.2v-11.8h3.2Z"/>
        <path class="st5" d="M82.3,392.7c0-4.8,2.8-6,4.4-6,2.8,0,4.4,2.2,4.4,6s-2.2,6-4.6,6-4.4-2.4-4.4-6h.2ZM88.3,392.7c0-2-.4-3.8-1.4-3.8s-1.2,2-1.2,3.8.2,3.6,1.4,3.6,1.4-2,1.4-3.6h-.2Z"/>
        <path class="st5" d="M73.9,390.5l.8-3.8h3l-3.6,16.2h-3.8l-3.2-16.2h3l.8,3.8h3ZM71.3,392.9l.6,3.4c0,1,.4,2.6.6,3.6h0c0-1,.4-2.8.6-3.6l.6-3.4h-2.4Z"/>
        <path class="st5" d="M65.9,394.9v3.6h-2.8v-1.8h-.2c-.6,1.2-1.4,2-2.4,2s-.4,0-.6,0v-3.2h.6c.6,0,1.6-.4,2-1.6v-7.2h3.2v8.2h.2Z"/>
        <path class="st5" d="M54.7,401.7v-3.2h-2.2v-2.2h2.2v-5.4c0-1.4-.6-1.8-1.2-1.8h-.8v-2.4c.4,0,1-.2,2-.2s1.8.2,2.2.8c.6.6,1,1.6,1,3.4v5.6h1.4v2.2h-1.4v2.4l-3.2.8h0Z"/>
      </g>
      <g>
        <path class="st5" d="M335.6,608.4l-15.4-5,1-3,15.4,5-1,3Z"/>
        <path class="st5" d="M327.2,608.2c1.2.4,2.4.6,3.4,1l-.8,2.6h-1.4v-.2c.6.8,1,2,.6,3.2-.6,2.2-2.6,2.4-5.2,1.6l-7.2-2.4,1-3,7,2.2c1,.4,2,.4,2.2-.4,0-.4,0-1-.6-1.4-.2,0-.6-.4-1-.4l-6.8-2.2,1-3,7.8,2.6h0v-.2Z"/>
        <path class="st5" d="M318.8,617c-.4.4-1,1-1.2,1.8s0,1.4.6,1.6c.6,0,1,0,2-.8,1.6-1.4,3-1.6,4-1.2,2,.6,3,2.6,2.4,4.8-.2,1-.8,1.6-1.2,2l-2-1.2c.4-.4.8-.8,1-1.4.2-.8,0-1.2-.6-1.4s-.8,0-1.8.8c-1.4,1.4-2.8,1.6-4,1.2-2.2-.8-3-2.8-2.2-5,.2-1,1-2,1.4-2.4l2,1.2h-.4Z"/>
        <path class="st5" d="M326.8,631.8l-3-1-.8,2.2-2.2-.6.8-2.2-5-1.6c-1.2-.4-1.8,0-2,.6v.8l-2.4-.8c0-.4,0-1,.4-2,.2-.8.8-1.6,1.4-2,.8-.4,1.8-.4,3.6,0l5.2,1.8.4-1.4,2.2.6-.4,1.4,2.2.8v3.2h-.4v.2Z"/>
        <path class="st5" d="M309.8,635.6h1.2c0,.2,0,0,0,0-.6-.8-.8-2-.4-2.8.6-1.6,2.4-2.4,4.4-1.8,3,1,3.2,4,2.4,6.4h.2c.8.4,1.8,0,2-1s.2-1.6,0-2.4h2.2c0,.8.2,2.2-.2,3.8-1,3.4-3.6,3.2-6,2.4l-4.2-1.4c-.8-.2-1.8-.6-2.6-.6l.8-2.6h.2ZM315.4,637c.2-1,.4-2.4-1.2-3-1-.4-1.8,0-1.8.6s0,1.2.6,1.6c0,0,.2,0,.4.2l2,.6h0Z"/>
        <path class="st5" d="M324,645.4l-1,3-15.8-5.2,1-3,15.8,5.2Z"/>
        <path class="st5" d="M322.4,650.6l-1,3-15.8-5.2,1-3,15.8,5.2Z"/>
        <path class="st5" d="M303.2,655.6h1.2c0,.2,0,0,0,0-.6-.8-.8-2-.4-2.8.6-1.6,2.4-2.4,4.4-1.8,3,1,3.2,4,2.4,6.4h.2c.8.4,1.8,0,2-1s.2-1.6,0-2.4h2.2c0,.8.2,2.2-.2,3.8-1,3.4-3.6,3.2-6,2.4l-4.2-1.4c-.8-.2-1.8-.6-2.6-.6l.8-2.6h.2ZM308.8,656.8c.2-1,.4-2.4-1.2-3-1-.4-1.8,0-1.8.6s0,1.2.6,1.6c0,0,.2,0,.4.2l2,.6h0Z"/>
        <path class="st5" d="M315,668.2l-3-1-.8,2.2-2.2-.6.8-2.2-5-1.6c-1.2-.4-1.8,0-2,.6v.8l-2.4-.8c0-.4,0-1,.4-2,.2-.8.8-1.6,1.4-2,.8-.4,1.8-.4,3.6,0l5.2,1.8.4-1.4,2.2.6-.4,1.4,2.2.8v3.2h-.4v.2Z"/>
        <path class="st5" d="M312.8,674.6c-1-.2-1.4-1.2-1-2,.2-.8,1.2-1.2,2-1,1,.2,1.4,1.2,1.2,2s-1.2,1.4-2.2,1ZM299.6,667l11.2,3.6-1,3-11.2-3.6,1-3Z"/>
        <path class="st5" d="M301,682.2c-4.6-1.6-5-4.4-4.4-6.2.8-2.6,3.6-3.6,7.2-2.4,4,1.2,5.2,4,4.4,6.2-.8,2.6-3.6,3.6-7,2.4h-.2ZM302.6,676.6c-2-.6-3.6-.8-4,.2s1.4,1.8,3.2,2.4c1.6.4,3.6.8,4,0,.4-1-1.6-2-3-2.4h0l-.2-.2Z"/>
        <path class="st5" d="M302.6,684.6c1.2.4,2.4.8,3.4,1l-.8,2.6h-1.4v-.2c.6.8,1,2,.6,3.2-.6,2.2-2.6,2.4-5.2,1.6l-7.2-2.4,1-3,7,2.2c1,.2,2,.4,2.2-.4,0-.4,0-1-.6-1.4-.2,0-.6-.4-1-.4l-6.8-2.2,1-3,7.8,2.6h0v-.2Z"/>
        <path class="st5" d="M292.8,700l-3.2-1.8,1-3,14.2,8.4-1.2,3.6-16.4-2,1-3,3.8.4,1-2.8h0l-.2.2ZM294.2,703.2l3.4.6c1,0,2.6.4,3.6.6h0c-1-.6-2.4-1.2-3.2-1.8l-3-1.6-.8,2.2h0Z"/>
        <path class="st5" d="M294.6,709c1,.4,2.4.8,3.4,1l-.8,2.6-1.6-.4h0c1,1,1.4,2,1,2.8,0,.2,0,.4-.2.6l-3-1s0-.4.2-.6c.2-.6,0-1.6-1-2.4-.2,0-.6-.4-1-.4l-5.6-1.8,1-3,7.8,2.6h-.2Z"/>
        <path class="st5" d="M297.4,721.8l-3-1-.8,2.2-2.2-.6.8-2.2-5-1.6c-1.2-.4-1.8,0-2,.6v.8l-2.4-.8c0-.4,0-1,.4-2,.2-.8.8-1.6,1.4-2,.8-.4,1.8-.4,3.6,0l5.2,1.8.4-1.4,2.2.6-.4,1.4,2.2.8v3.2h-.4v.2Z"/>
      </g>
      <g>
        <path class="st5" d="M330.9,500.7c-.4.8-1,1.8-1.6,2.8-1.2,1.6-2.4,2.6-3.8,2.8-1.8.4-4-.4-6.4-2.2-2.6-2-4-4-4.2-5.8-.2-1.6.4-3,1.6-5,.6-.8,1.2-1.6,1.6-2l12.8,9.4h0ZM318.1,495.5s-.2.4-.4.4c-1,1.2-.4,3.2,3.2,5.8,2.6,2,4.8,2.4,6,1,0,0,.2-.4.2-.6l-9-6.6h0Z"/>
        <path class="st5" d="M321.3,512.1c-.8-.6-1-1.6-.4-2.4.4-.6,1.6-.8,2.2-.2.8.6,1,1.6.4,2.4s-1.4,1-2.4.2h.2ZM311.1,500.9l9.6,7-1.8,2.6-9.6-7,1.8-2.6Z"/>
        <path class="st5" d="M312.5,519.1c-.8-.6-1.8-1.4-3-2.2l-5.4-4c-2-1.4-2.8-2.6-3-4,0-1.2,0-2.4,1.2-3.8.6-.8,1.4-1.6,2.2-2l1.6,2c-.6.4-1.2.8-1.8,1.6-1,1.2-.4,2.4,1,3.4l.6.4h0c-.4-.8,0-1.8.4-2.4,1.6-2.2,4.4-1.2,6.8.4,3.2,2.4,4,5,2.6,6.8-.6.8-1.4,1-2.4,1h0l.8.8-1.6,2.2h0v-.2ZM310.9,513.9c.2,0,.6.4.8.4.4,0,1,0,1.4-.2.6-1-.4-2.2-1.8-3.4-1.8-1.2-3-1.4-3.6-.6-.2.4-.2.8,0,1.4,0,.2.4.4.6.6l2.6,1.8h0Z"/>
        <path class="st5" d="M311.9,525.1c-.8-.6-1-1.6-.4-2.4.4-.6,1.4-.8,2.2-.2.8.6,1,1.6.4,2.4s-1.4,1-2.4.2h.2ZM301.7,513.9l9.6,7-1.8,2.6-9.6-7,1.8-2.6Z"/>
        <path class="st5" d="M308.5,529.9l-2.6-1.8-1.4,1.8-1.8-1.4,1.4-1.8-4.4-3.2c-1-.8-1.8-.6-2,0,0,.2-.2.4-.4.8l-2-1.4c0-.4.4-1,1-1.6.6-.8,1.2-1.2,2-1.4.8,0,1.8,0,3.2,1.2l4.4,3.2.8-1.2,1.8,1.4-.8,1.2,2,1.4-1.2,3h0v-.2Z"/>
        <path class="st5" d="M291.1,528.5l1,.6h0c-.4-1.2,0-2.2.4-3,1-1.4,3-1.6,4.8-.4,2.4,1.8,2,4.8.4,7h.2c.8.8,1.6.6,2.2-.2.6-.8.8-1.6.8-2.4l2,.8c0,.8-.4,2.2-1.4,3.4-2,2.8-4.4,1.8-6.4.4l-3.6-2.6c-.8-.6-1.6-1-2.2-1.4l1.6-2.2h.2ZM295.9,531.5c.6-.8,1.2-2.2,0-3.2-1-.6-1.6-.4-2,0-.2.4-.4,1,0,1.6,0,0,.2.2.4.4l1.6,1.2Z"/>
        <path class="st5" d="M301.7,542.1l-1.8,2.6-13.4-9.8,1.8-2.6,13.4,9.8Z"/>
        <path class="st5" d="M284.1,544.3l-2.6-2.8,1.8-2.4,11,12.4-2.2,3-15-7,1.8-2.4,3.4,1.6,1.8-2.4h0ZM284.5,547.9l3,1.6c.8.4,2.4,1.2,3.2,1.8h0c-.8-.8-2-2-2.6-2.6l-2.4-2.4-1.4,1.8h0l.2-.2Z"/>
        <path class="st5" d="M283.1,553.5c1,.6,2,1.4,3,2l-1.6,2.2-1.4-.8h0c.8,1.2.6,2.4,0,3,0,.2-.2.4-.4.4l-2.6-1.8s.2-.2.4-.6c.4-.6.6-1.6-.2-2.6,0-.2-.4-.6-.8-.8l-4.8-3.6,1.8-2.6,6.6,4.8h0v.4Z"/>
        <path class="st5" d="M281.9,566.5l-2.6-1.8-1.4,1.8-1.8-1.4,1.4-1.8-4.4-3.2c-1-.8-1.8-.6-2,0,0,.2-.2.4-.4.8l-2-1.4c0-.4.4-1,1-1.6.6-.8,1.2-1.2,2-1.4.8,0,1.8,0,3.2,1.2l4.4,3.2.8-1.2,1.8,1.4-.8,1.2,2,1.4-1.2,3h0v-.2Z"/>
        <path class="st5" d="M265.5,562.1l10.8,14.8-1.2,1.6-10.8-14.8,1.2-1.6Z"/>
        <path class="st5" d="M258.9,572.7l13,9.6-1.8,2.4-6.6-1.8c-1.2-.4-3.4-1-4.8-1.4h0c1.4,1,3.8,2.4,6.2,4.2l3,2-1.6,2.2-13-9.6,1.8-2.4,6.4,1.6c1.4.4,3.6,1,5,1.6h0c-1.4-1-3.4-2.2-6-4.2l-3-2.2,1.6-2.2h0l-.2.2Z"/>
        <path class="st5" d="M254.3,587.3c-1.6-1-2.6-.6-3.6.6-.6.8-.8,1.4-1,2l-2-1c.2-.8.8-2,1.4-3,1.8-2.6,4.6-2.8,7.6-.6,3.2,2.4,3.8,5.4,2.4,7.6-1.4,2-4,2-6.8,0-.6-.4-1-.8-1.2-1l3.2-4.4h0v-.2ZM254.3,590.9c1.2,1,2.4,1.2,3,.4s-.4-2-1.4-2.8l-1.6,2.2v.2Z"/>
        <path class="st5" d="M254.3,599.1l-4.4-2.4c-1.2-.6-2.2-1.2-3.2-1.8h0c.8.8,1.8,1.8,2.4,2.6l3.6,3.8-1.4,2-4.6-2.2c-1.2-.6-2.2-1-3.2-1.6h0c.8.8,1.8,1.6,2.6,2.4l3.6,3.6-1.8,2.6-7.8-9.4,1.6-2.2,3.8,1.8c1,.4,2.2,1,3.4,1.6h0c-1-1-1.8-1.8-2.6-2.8l-2.8-3.2,1.6-2.2,11.2,4.6-2,2.8h0Z"/>
        <path class="st5" d="M233.9,616.9c1.2.8,3,2,4.4,3h0c-1.2-1.2-2.6-2.8-3.4-3.8l-3.8-4.6,1.4-1.8,5.4,2.2c1.2.6,3.2,1.4,4.6,2.2h0c-1.4-1.2-3-2.4-4.2-3.4l-4.4-3.6,1.6-2.2,12.4,10.4-2,2.6-5.6-2.4c-2-.8-3.6-1.6-5.2-2.4h0c1.2,1.2,2.6,2.6,4,4.2l4,4.4-2,2.6-13.6-8.8,1.6-2.2,4.8,3h0v.6Z"/>
        <path class="st5" d="M228.5,622.7c-1.6-1-2.6-.6-3.6.6-.6.8-.8,1.4-1,2l-2-1c.2-.8.8-2,1.4-3,1.8-2.6,4.6-2.8,7.6-.6,3.2,2.4,4,5.4,2.4,7.6-1.4,2-4,2-6.8,0-.6-.4-1-.8-1.2-1l3.2-4.4h0v-.2ZM228.7,626.3c1.2,1,2.4,1.2,3,.4s-.4-2-1.4-2.8l-1.6,2.2v.2Z"/>
        <path class="st5" d="M228.7,642.5l-10.6-7.8c-1-.6-2-1.4-2.8-2l1.6-2.2,1.2.6h0c-.4-.8-.4-2,.2-2.8,1.4-2,4.4-1.4,7,.6,3.4,2.4,3.8,5,2.8,6.6-.6.8-1.4,1-2.2,1h0l4.8,3.4-1.8,2.6h-.2ZM223.1,634.5s.4.2.6.4c.6.4,1.4.4,1.8,0,.6-.8-.4-2.2-2-3.2-1.8-1.4-3-1.6-3.6-.8-.2.4-.4.8,0,1.4,0,0,.2.4.6.6l2.4,1.8.2-.2Z"/>
        <path class="st5" d="M224.1,645.9c-.8-.6-1-1.6-.4-2.4.4-.8,1.4-.8,2.2-.2s1,1.6.4,2.2c-.6.8-1.4,1-2.4.2h0l.2.2ZM214.1,634.5l9.6,7-1.8,2.6-9.6-7,1.8-2.6Z"/>
        <path class="st5" d="M207.7,643.1l1,.6h0c-.4-1,0-2,.4-3,1-1.4,3-1.6,4.8-.4,2.4,1.8,2,4.8.4,7h.2c.8.6,1.6.6,2.2-.2.6-.8.8-1.6.8-2.4l2,.8c0,.8-.4,2.2-1.4,3.4-2,2.8-4.4,1.8-6.4.4l-3.6-2.6c-.8-.6-1.6-1-2.2-1.4l1.6-2.2h.2ZM212.7,646.1c.6-.8,1.2-2.2,0-3.2-1-.6-1.6-.4-2,0-.2.4-.4,1,0,1.6l.4.4,1.6,1.2Z"/>
        <path class="st5" d="M203.9,654.7l-2.6-2.8,1.8-2.4,11,12.4-2.2,3-15-7,1.8-2.4,3.4,1.6,1.8-2.4h0ZM204.5,658.3l3,1.6c.8.4,2.4,1.2,3.2,1.8h0l-2.6-2.6-2.4-2.4-1.4,1.8h0l.2-.2Z"/>
        <path class="st5" d="M202.9,663.9c1,.6,2,1.4,3,2l-1.6,2.2-1.4-.8h0c.8,1.2.6,2.4,0,3,0,.2-.2.4-.4.4l-2.6-1.8s.2-.2.4-.6c.4-.6.6-1.6-.2-2.6,0-.2-.4-.6-.8-.8l-4.8-3.6,1.8-2.6,6.6,4.8h0v.4Z"/>
        <path class="st5" d="M201.7,676.9l-2.6-1.8-1.4,1.8-1.8-1.4,1.4-1.8-4.4-3.2c-1-.8-1.8-.6-2,0,0,.2-.2.4-.4.8l-2-1.4c0-.4.4-1,1-1.6.6-.8,1.2-1.2,2-1.4.8,0,1.8,0,3.2,1.2l4.4,3.2.8-1.2,1.8,1.4-.8,1.2,2,1.4-1.2,3h0v-.2Z"/>
      </g>
      <g>
        <path class="st5" d="M298,459.6l3.6,5,8.8,6-2.8,2-3.2-2.4c-.8-.6-1.8-1.4-2.8-2.2h0c.6,1,1,2.2,1.4,3.2l1.4,3.6-2.6,2-2.8-10-3.8-5,2.6-1.8h0l.2-.4Z"/>
        <path class="st5" d="M289.2,473.2c-2.8-4-1.4-6.6,0-7.6,2.2-1.6,5-.8,7.2,2.2,2.4,3.4,1.8,6.2,0,7.6-2.2,1.6-5,.8-7.2-2.2h0ZM294,469.8c-1.2-1.6-2.4-2.8-3.4-2.2-.8.6,0,2.4,1.2,3.8,1,1.4,2.4,2.8,3.2,2.2,1-.6,0-2.4-1-3.8h0Z"/>
        <path class="st5" d="M279.6,477.4c-.8-1-1.6-2-2.2-2.8l2.2-1.6.8,1h0c0-1,.4-2,1.4-2.8,1.8-1.4,3.6-.4,5.4,2l4.2,5.8-2.6,1.8-4-5.4c-1-1.2-1.8-1.8-2.4-1.4-.4.4-.4.8-.4,1.2s.2.6.4,1l4.4,6-2.6,1.8-4.8-6.6h.2Z"/>
        <path class="st5" d="M280.4,482.6c.8,1,1.4,2,2.2,2.8l-2.2,1.6-1-1h0c0,1.2-.4,2.2-1.4,3-1.8,1.2-3.6.4-5.2-1.8l-4.4-6,2.6-1.8,4.4,6c.6.8,1.4,1.4,2,.8.4-.2.6-.8.4-1.6,0-.2-.2-.6-.4-1l-4.2-5.8,2.6-1.8,4.8,6.6h-.2Z"/>
        <path class="st5" d="M266.6,497c-.6-1-1.2-2-2-3l-4-5.4c-1.6-2-2-3.4-1.8-4.8.2-1.2,1-2.2,2.4-3.2.8-.6,1.8-1,2.8-1.2l1,2.2c-.6,0-1.4.4-2,1-1.2,1-1.2,2.2,0,3.6l.4.6h0c0-.8.4-1.8,1-2.2,2.2-1.6,4.6,0,6.2,2.4,2.2,3.2,2.2,6,.4,7.4-.8.6-1.6.6-2.6,0h0l.6,1-2.2,1.6h-.2ZM266.8,491.6c0,.2.4.4.6.6.4.4,1,.4,1.4.2,1-.6.4-2.2-.8-3.8-1.2-1.8-2.4-2.2-3.2-1.8-.4.2-.6.6-.4,1.2,0,.2.2.6.4.8l1.8,2.6h0l.2.2Z"/>
        <path class="st5" d="M264,504c-.6.8-1.6,1.6-2.8,2.4-1.2.8-2.6,1.6-4,1.4-1.2,0-2-.8-2.8-1.6-.8-1.2-1-2.8,0-4.2h0c-1.8.6-3.6,0-4.6-1.6-.8-1-1-2.2-1-3.2s1.2-2.8,3.4-4.4c1-.8,1.8-1.2,2.4-1.6l9.4,12.8h0ZM257.8,500.6l-.6.4c-1,.6-1,2-.2,3s1.6,1.4,2.8.6l.6-.6-2.6-3.4h0ZM253.6,494.8c-.2,0-.4.2-.6.4-1,.8-1.4,2-.4,3.4s2.4,1.4,3.4.6l.6-.4-2.8-4h-.2Z"/>
        <path class="st5" d="M250.4,504.4c.6,1,1.4,2,2.2,2.8l-2.2,1.6-1.2-1.2h0c.4,1.4,0,2.4-.8,3-.2,0-.4.2-.6.4l-1.8-2.6s.4-.2.6-.4c.6-.4,1-1.2.6-2.4,0-.2-.2-.6-.6-1l-3.6-4.8,2.6-1.8,4.8,6.6h0v-.2Z"/>
        <path class="st5" d="M246,515.8c-.6-.8-.4-1.8.4-2.4.8-.6,1.6-.4,2.2.4.6.8.4,1.8-.2,2.4-.8.6-1.8.4-2.4-.4h0ZM239.8,501.8l7,9.6-2.6,1.8-7-9.6,2.6-1.8Z"/>
        <path class="st5" d="M241.2,519.2l-1.8-2.6-1.8,1.4-1.4-1.8,1.8-1.4-3.2-4.4c-.8-1-1.4-1-2-.6-.2,0-.4.4-.6.6l-1.4-2c.2-.4.8-.8,1.4-1.2.8-.6,1.6-.8,2.2-.8s1.8.6,2.8,2.2l3.2,4.4,1.2-.8,1.4,1.8-1.2.8,1.4,2-2,2.4h0Z"/>
        <path class="st5" d="M235.6,523.2c-.6-.8-.4-1.8.4-2.4.8-.6,1.6-.4,2.2.4.6.8.4,1.8-.2,2.4-.8.6-1.6.4-2.4-.4h0ZM229.4,509.4l7,9.6-2.6,1.8-7-9.6,2.6-1.8Z"/>
        <path class="st5" d="M226.8,514.8c-.6,0-1.4.2-2,.8-.6.4-.8,1-.4,1.6.4.4.8.6,2,.4,2.2-.2,3.2.4,4,1.4,1.2,1.8,1,4-1,5.2-.8.6-1.6.8-2.2,1l-1-2.2c.6,0,1-.2,1.6-.6.6-.4.6-1,.4-1.6-.2-.4-.8-.4-2-.4-2,.2-3.2-.4-4-1.4-1.4-2-.8-4,1.2-5.4.8-.6,1.8-1,2.6-1l1,2.2h-.2Z"/>
        <path class="st5" d="M228.6,530.6l-2.6,1.8-3.6-5h0c0,.6,0,1-.2,1.4s-.6,1-1,1.2c-1.8,1.2-3.6.2-5.2-2.2l-4.2-5.8,2.6-1.8,4.2,5.8c.6,1,1.4,1.6,2.2,1,.4-.2.6-.8.4-1.6,0,0-.2-.6-.4-.8l-4.2-6,2.6-1.8,9.8,13.4h0l-.4.4Z"/>
        <path class="st5" d="M206.8,530.4l-1.6-3.4,2.4-1.8,6.6,15.2-3,2.2-12-11.2,2.4-1.8,2.8,2.6,2.4-1.8h0ZM206,534l2.4,2.4c.8.8,1.8,2,2.6,2.6h0c-.4-1-1.2-2.4-1.8-3.4l-1.6-3-1.8,1.4h.2Z"/>
        <path class="st5" d="M202.8,538.8c.6,1,1.4,2,2.2,2.8l-2.2,1.6-1.2-1.2h0c.4,1.4,0,2.4-.8,3-.2,0-.4.2-.6.4l-1.8-2.6s.4-.2.6-.4c.6-.4,1-1.2.6-2.4,0-.2-.2-.6-.6-1l-3.6-4.8,2.6-1.8,4.8,6.6h0v-.2Z"/>
        <path class="st5" d="M197.8,550.8l-1.8-2.6-1.8,1.4-1.4-1.8,1.8-1.4-3.2-4.4c-.8-1-1.4-1-2-.6-.2,0-.4.4-.6.6l-1.4-2c.2-.4.8-.8,1.4-1.2.8-.6,1.6-.8,2.2-.8s1.8.6,2.8,2.2l3.2,4.4,1.2-.8,1.4,1.8-1.2.8,1.4,2-2,2.4h0Z"/>
        <path class="st5" d="M192,554.8c-.6-.8-.4-1.8.4-2.4.8-.4,1.6-.4,2.2.4.6.8.4,1.8-.2,2.4-.8.6-1.6.4-2.2-.4h-.2ZM186,541l7,9.6-2.6,1.8-7-9.6,2.6-1.8Z"/>
        <path class="st5" d="M183.2,546.4c-.6,0-1.4.2-2,.8-.6.4-.8,1-.4,1.6.4.4.8.6,2,.4,2.2-.2,3.2.4,4,1.4,1.2,1.8,1,4-1,5.2-.8.6-1.6.8-2.2,1l-1-2.2c.6,0,1-.2,1.6-.6.6-.4.6-1,.4-1.6-.2-.4-.8-.4-2-.4-2,.2-3.2-.4-4-1.4-1.4-2-.8-4,1.2-5.4.8-.6,1.8-1,2.6-1l1,2.2h-.2Z"/>
        <path class="st5" d="M181,563l-1.8-2.6-1.8,1.4-1.4-1.8,1.8-1.4-3.2-4.4c-.8-1-1.4-1-2-.6-.2,0-.4.4-.6.6l-1.4-2c.2-.4.8-.8,1.4-1.2.8-.6,1.6-.8,2.2-.8s1.8.6,2.8,2.2l3.2,4.4,1.2-.8,1.4,1.8-1.2.8,1.4,2-2.2,2.4h.2Z"/>
        <path class="st5" d="M171,555.4c-.6,0-1.4.2-2,.8-.6.4-.8,1-.4,1.6.4.4.8.6,2,.4,2.2-.2,3.2.4,4,1.4,1.2,1.8,1,4-1,5.2-.8.6-1.6.8-2.2,1l-1-2.2c.6,0,1-.2,1.6-.6.6-.4.6-1,.4-1.6-.2-.4-.8-.4-2-.4-2,.2-3.2-.4-4-1.4-1.4-2-.8-4,1.2-5.4.8-.6,1.8-1,2.6-1l1,2.2h-.2Z"/>
        <path class="st5" d="M165.8,576.2c0-2.6-1-5.8-3.6-9.4-2.6-3.6-5.4-5.4-7.8-6.4l1.8-1.4c2.2.6,5.2,2.4,8,6.2,2.6,3.8,3.6,7.2,3.6,9.6l-1.8,1.4h-.2Z"/>
        <path class="st5" d="M152,565.6l3.6,5,8.8,6-2.8,2-3.2-2.4c-.8-.6-1.8-1.4-2.8-2.2h0c.6,1,1,2.2,1.4,3.4l1.4,3.6-2.6,2-2.8-10-3.8-5,2.6-1.8h0l.2-.6Z"/>
        <path class="st5" d="M155,583.2c-.6.8-1.6,1.6-2.8,2.4-1.2.8-2.6,1.6-4,1.4-1.2,0-2-.8-2.8-1.6-.8-1.2-1-2.8,0-4.2h0c-1.8.6-3.6,0-4.6-1.6-.8-1-1-2.2-1-3.2s1.2-2.8,3.4-4.4c1-.8,1.8-1.2,2.4-1.6l9.4,12.8h0ZM148.8,579.8l-.6.4c-1,.6-1,2-.2,3s1.8,1.4,2.8.6l.6-.6-2.6-3.4h0ZM144.6,574c-.2,0-.4.2-.6.4-1,.8-1.4,2-.4,3.4s2.4,1.4,3.4.6l.6-.4-2.8-4h-.2Z"/>
        <path class="st5" d="M136.4,581.6l-1.6-3.4,2.4-1.8,6.6,15.2-3,2.2-12-11.2,2.4-1.8,2.8,2.6,2.4-1.8h0ZM135.8,585l2.4,2.4c.8.8,1.8,2,2.6,2.6h0c-.4-1-1.2-2.4-1.8-3.4l-1.6-3-1.8,1.4h.2Z"/>
        <path class="st5" d="M129.2,585.6c-.6,0-1.4.2-2,.8s-.8,1-.4,1.6c.4.4.8.6,2,.4,2.2-.2,3.2.4,4,1.4,1.2,1.8,1,4-1,5.2-.8.6-1.6.8-2.2,1l-1-2.2c.6,0,1-.2,1.6-.6.6-.4.6-1,.4-1.6-.2-.4-.8-.4-2-.4-2,.2-3.2-.4-4-1.4-1.4-2-.8-4,1.2-5.4.8-.6,1.8-1,2.6-1l1,2.2h-.2Z"/>
        <path class="st5" d="M120,585.2c0,2.6,1.2,5.8,3.8,9.4,2.6,3.6,5.4,5.4,7.8,6.4l-1.8,1.4c-2.2-.6-5.2-2.4-8-6.2-2.8-4-3.6-7.2-3.6-9.6l1.8-1.4h0Z"/>
      </g>
      <g>
        <path class="st5" d="M237.6,458.1c-.8.4-2,1-3.2,1.4-1.6.6-3.2.8-4.4,0-1.2-.6-1.8-1.4-2.2-2.8-.6-1.6-.2-3.4,1.2-4.6h0c-1.2,0-2-1-2.8-2.4-.8-1.6-1.8-3.4-2.4-3.8l3.2-1c.4.4,1.2,1.8,2,3.4.8,1.8,1.6,2.2,2.6,1.8h.4l-2-6.2,3-1,5,15.2h-.4ZM232.4,452.3h-.6c-1.2.6-1.8,1.8-1.2,3.2.4,1.4,1.2,2,2.6,1.6.2,0,.6-.2.8-.4l-1.6-4.6h0v.2Z"/>
        <path class="st5" d="M221.4,451.7c-.6-1.8-1.8-2-3.2-1.6-.8.2-1.6.8-2,1l-1-2c.6-.6,1.8-1.2,3-1.6,3-1,5.4.4,6.4,4,1.2,3.8,0,6.6-2.6,7.4-2.4.8-4.4-.6-5.6-4-.2-.8-.4-1.2-.4-1.6l5.2-1.8h0l.2.2ZM219.4,454.7c.4,1.4,1.2,2.4,2,2.2,1-.4,1-1.8.6-3l-2.6.8h0Z"/>
        <path class="st5" d="M218,465.3l-3,1-5.2-15.8,3-1,5.2,15.8Z"/>
        <path class="st5" d="M202.6,452.7l.6,1h0c.4-1,1-1.8,2-2,1.6-.6,3.4.4,4,2.4,1,3-1.2,5-3.8,5.8h0c.2,1.2,1,1.6,2,1.2,1-.2,1.6-.8,2-1.4l1.2,1.8c-.4.6-1.6,1.4-3.2,2-3.4,1-4.8-1-5.4-3.4l-1.4-4.2c-.2-.8-.6-1.8-1-2.4l2.6-.8h.4ZM204.8,458.1c1-.4,2.2-1.2,1.8-2.6-.4-1-1-1.4-1.6-1.2-.4,0-1,.6-1,1.4s0,.4,0,.6l.6,2h0l.2-.2Z"/>
        <path class="st5" d="M199.4,469.5l-1-3-2.2.8-.6-2.2,2.2-.8-1.6-5c-.4-1.2-1-1.4-1.6-1.2-.2,0-.6.2-.8.4l-.8-2.4c.4-.2,1-.6,1.8-.8s1.6-.4,2.4,0c.8.4,1.4,1.2,2,2.8l1.8,5.2,1.4-.4.6,2.2-1.4.4.8,2.2-2.8,1.6-.2.2Z"/>
        <path class="st5" d="M192.8,471.5c-.4-1,0-1.8,1-2.2.8-.2,1.8,0,2,1.2.4,1,0,1.8-1,2.2-.8.2-1.8,0-2-1.2h0ZM191.2,456.5l3.6,11.2-3,1-3.6-11.2,3-1h0Z"/>
        <path class="st5" d="M179.8,466.5c-1.6-4.6.6-6.6,2.4-7.2,2.6-.8,5,.8,6.2,4.4,1.2,4-.2,6.4-2.4,7.2-2.6.8-5-.8-6-4.4h-.2ZM185.2,464.5c-.6-2-1.4-3.4-2.6-3-1,.4-.6,2.2,0,4,.4,1.6,1.4,3.4,2.4,3s.8-2.4.2-4h0Z"/>
        <path class="st5" d="M178.8,469.1c.4,1.2.8,2.2,1.2,3.4l-2.6.8-.6-1.2h0c-.2,1-1,2-2.2,2.4-2.2.6-3.6-.8-4.4-3.2l-2.4-7.2,3-1,2.2,7c.2,1,.8,1.8,1.8,1.4.4,0,.8-.6.8-1.4v-1l-2.2-6.8,3-1,2.6,7.8h-.2Z"/>
        <path class="st5" d="M160.8,466.3l.6,1h0c.4-1,1-1.8,2-2,1.6-.6,3.4.4,4,2.4,1,3-1.2,5-3.8,5.8h0c.2,1.2,1,1.6,2,1.2,1-.2,1.6-.8,2-1.4l1.2,1.8c-.4.6-1.6,1.4-3.2,2-3.4,1-4.8-1-5.4-3.4l-1.4-4.2c-.2-.8-.6-1.8-1-2.4l2.6-.8h.4ZM163,471.7c1-.4,2.2-1.2,1.8-2.6-.4-1-1.2-1.4-1.6-1.2-.4,0-1,.6-1,1.4s0,.4,0,.6l.6,2h0l.2-.2Z"/>
        <path class="st5" d="M161.2,483.7l-3,1-5.2-15.8,3-1,5.2,15.8Z"/>
        <path class="st5" d="M145.8,475.1l-.4-3.8,3-1,1.6,16.4-3.6,1.2-8-14.4,3-1,1.8,3.2,2.8-1h0l-.2.4ZM144,478.3l1.6,3c.4.8,1.2,2.4,1.6,3.4h0c0-1-.4-2.8-.6-3.8l-.4-3.4-2.2.8h0Z"/>
        <path class="st5" d="M136,479.3c-.6-1.8-1.8-2-3.2-1.6-.8.2-1.6.8-2,1l-1-2c.6-.6,1.8-1.2,3-1.6,3-1,5.4.4,6.4,4,1.2,3.8,0,6.6-2.6,7.4-2.4.8-4.4-.6-5.6-4-.2-.8-.4-1.2-.4-1.6l5.2-1.8h0l.2.2ZM134,482.3c.4,1.4,1.2,2.4,2,2.2,1-.4,1-1.8.6-3l-2.6.8Z"/>
        <path class="st5" d="M128.4,479.9h-2.2c-.8.2-1,.8-.8,1.4.2.6.6.8,1.8,1,2.2.4,3,1.4,3.4,2.4.6,2-.2,4-2.6,4.8-1,.2-1.8.4-2.4.2v-2.4h1.6c.8-.2,1-.8.8-1.4,0-.4-.6-.8-1.8-1-2-.4-3-1.4-3.4-2.6-.8-2.2.4-4,2.8-4.8,1-.2,2-.4,2.8,0v2.4h0Z"/>
        <path class="st5" d="M121.2,494.9l-1-3-2.2.8-.8-2.2,2.2-.8-1.6-5c-.4-1.2-1-1.4-1.6-1.2-.2,0-.6.2-.8.4l-.8-2.4c.4-.2,1-.6,1.8-.8s1.6-.4,2.4,0c.8.4,1.4,1.2,2,2.8l1.8,5.2,1.4-.4.6,2.2-1.4.4.8,2.2-2.8,1.6h0v.2Z"/>
        <path class="st5" d="M118.2,497.7l-3,1-1.8-5.8h0c0,.4-.4,1-.6,1.2-.4.4-.8.8-1.4,1-2,.6-3.4-.8-4.4-3.6l-2.2-6.8,3-1,2.2,6.8c.4,1,.8,2,1.8,1.6.4,0,.8-.6.8-1.4v-.8l-2.2-7,3-1,5.2,15.8h-.4Z"/>
        <path class="st5" d="M101.6,490.7c-.6-1.8-1.8-2-3.2-1.6-.8.2-1.6.8-2,1l-1-2c.6-.6,1.8-1.2,3-1.6,3-1,5.4.4,6.4,4,1.2,3.8,0,6.6-2.6,7.4-2.4.8-4.4-.6-5.6-4-.2-.8-.4-1.2-.4-1.6l5.2-1.8h0l.2.2ZM99.6,493.5c.4,1.4,1.2,2.4,2,2.2,1-.4,1-1.8.6-3l-2.6.8h0Z"/>
        <path class="st5" d="M94,503.7l-1-3-2.2.8-.6-2.2,2.2-.8-1.6-5c-.4-1.2-1-1.4-1.6-1.2-.2,0-.6.2-.8.4l-.8-2.4c.4-.2,1-.6,1.8-.8s1.6-.4,2.4,0c.8.4,1.4,1.2,2,2.8l1.8,5.2,1.4-.4.8,2.2-1.4.4.8,2.2-2.8,1.6h0l-.4.2Z"/>
        <path class="st5" d="M87.4,505.7c-.4-1,0-1.8,1-2.2.8-.2,1.8,0,2,1.2.4,1,0,1.8-1,2.2-.8.2-1.8,0-2-1.2h0ZM86,490.7l3.6,11.2-3,1-3.6-11.2,3-1Z"/>
        <path class="st5" d="M74.6,494.5c.2-.2,1-.6,1.8-1,2.8-1,5.4.4,6.4,4,1.2,3.4,0,6.4-3.2,7.6-.8.2-1.4.2-1.8.2l-.4-2.4h1.2c1.4-.4,1.8-2.2,1.2-4-.6-2-2-3-3.4-2.6-.4,0-.8.4-1,.6l-1-2.2h0l.2-.2Z"/>
        <path class="st5" d="M74.4,497.3h-2.2c-.8.2-1,.8-.8,1.4.2.6.6.8,1.8,1,2.2.4,3,1.4,3.4,2.4.6,2-.2,4-2.6,4.8-1,.2-1.8.4-2.4.2v-2.4h1.6c.8-.2,1-.8.8-1.4,0-.4-.6-.8-1.8-1-2-.4-3-1.4-3.4-2.6-.8-2.2.4-4,2.8-4.8,1-.2,2-.4,2.8,0v2.4h0Z"/>
      </g>
      <g>
        <path class="st5" d="M454.4,585.9l-3.8.4-1-3,16.4-1.6,1.2,3.6-14.4,8-1-3,3.2-1.8-1-2.8h0l.4.2ZM457.6,587.7l3-1.6c.8-.4,2.4-1.2,3.4-1.6h0c-1,0-2.8.4-3.8.6l-3.4.4.8,2.2h0Z"/>
        <path class="st5" d="M461,592.3c1.4-.4,2.4-.8,3.6-1.2l.8,2.6-1.2.6h0c1,.2,2,.8,2.2,1.8.8,2.4-1.6,4.4-4.6,5.4-4,1.2-6.4,0-7-1.8-.2-1,0-1.8.4-2.2h0l-5.2,1.6-1-3,12-4h0v.2ZM458.4,596.5c-.4,0-.8.2-1,.4-.6.4-.6,1-.6,1.2.4,1,2,1,3.8.4,2.2-.8,3-1.6,2.8-2.4,0-.4-.8-.8-1.2-.8h-.8l-3,1h0v.2Z"/>
        <path class="st5" d="M464.4,602.5c1.4-.4,2.4-.8,3.6-1.2l.8,2.6-1.2.6h0c1,.2,2,.8,2.2,1.8.8,2.4-1.6,4.4-4.6,5.4-4,1.2-6.4,0-7-1.8-.2-1,0-1.8.4-2.2h0l-5.2,1.6-1-3,12-4h0v.2ZM461.8,606.7c-.4,0-.8.2-1,.4-.6.4-.6,1-.6,1.2.4,1,2,1,3.8.4,2.2-.8,3-1.6,2.8-2.4,0-.4-.8-.8-1.2-.8h-.8l-3,1h0v.2Z"/>
        <path class="st5" d="M467.8,612.7c1-.4,2.2-.8,3.4-1.2l.8,2.6-1.6.6h0c1.4,0,2.2.8,2.6,1.8v.6l-3,1v-.6c-.2-.6-1-1.4-2.2-1.2-.2,0-.8,0-1.2.2l-5.6,1.8-1-3,7.8-2.6h0Z"/>
        <path class="st5" d="M470.4,628.1c-4.6,1.6-6.6-.6-7.2-2.4-.8-2.6.8-5,4.4-6.2,4-1.2,6.4.2,7.2,2.4.8,2.6-.8,5-4.4,6h0v.2ZM468.6,622.7c-2,.6-3.4,1.4-3,2.6.4,1,2.2.6,4,0,1.6-.4,3.4-1.4,3-2.4s-2.4-.8-4-.2h0Z"/>
        <path class="st5" d="M473,629.1c1.4-.4,2.4-.8,3.6-1.2l.8,2.6-1.2.6h0c1,.2,2,.8,2.2,1.8.8,2.4-1.6,4.4-4.6,5.4-4,1.2-6.4,0-7-1.8-.2-1,0-1.8.4-2.2h0l-5.2,1.6-1-3,12-4h0v.2ZM470.4,633.3c-.4,0-.8.2-1,.4-.6.4-.6,1-.6,1.2.4,1,2,1,3.8.4,2.2-.8,3-1.6,2.8-2.4,0-.4-.8-.8-1.2-.8h-.8l-3,1h0v.2Z"/>
        <path class="st5" d="M476.6,639.3c1-.4,2.2-.8,3.4-1.2l.8,2.6-1.6.6h0c1.4,0,2.2.8,2.6,1.8v.6l-3,1v-.6c-.2-.6-1-1.4-2.2-1.2-.2,0-.8,0-1.2.2l-5.6,1.8-1-3,7.8-2.6h0Z"/>
        <path class="st5" d="M471,648.5l11.2-3.6,1,3-11.2,3.6-1-3ZM486,646.9c-1,.4-1.8,0-2.2-1-.2-.8,0-1.8,1.2-2,1-.4,1.8,0,2.2,1,.2.8,0,1.8-1.2,2h0Z"/>
        <path class="st5" d="M474.2,658.7l1-.6h0c-1-.4-1.8-1.2-2-2.2-.6-1.6.4-3.4,2.4-4,3-1,5,1.2,5.8,3.8h.2c.8-.4,1.4-1,1-2.2-.2-1-.8-1.6-1.4-2l1.8-1.2c.6.4,1.4,1.6,2,3.2,1,3.4-1,4.8-3.4,5.4l-4.2,1.4c-.8.2-1.8.6-2.4,1l-.8-2.6h0ZM479.4,656.5c-.4-1-1.2-2.2-2.6-1.8-1,.4-1.4,1.2-1.2,1.6,0,.4.6,1,1.4,1s.4,0,.6,0l2-.6h0l-.2-.2Z"/>
        <path class="st5" d="M491,661.9l-3,1,.8,2.2-2.2.6-.8-2.2-5,1.6c-1.2.4-1.4,1-1.2,1.6,0,.2.2.6.4.8l-2.4.8c-.2-.4-.6-1-.8-1.8s-.4-1.6,0-2.4c.4-.8,1.2-1.4,2.8-2l5.2-1.8-.4-1.4,2.2-.6.4,1.4,2.2-.8,1.6,2.8h0l.2.2Z"/>
        <path class="st5" d="M478,670.1l11.2-3.6,1,3-11.2,3.6-1-3ZM493,668.5c-1,.4-1.8,0-2.2-1-.2-.8,0-1.8,1.2-2,1-.4,1.8,0,2.2,1,.2.8,0,1.8-1.2,2h0Z"/>
        <path class="st5" d="M487.8,681.5c-4.6,1.6-6.6-.6-7.2-2.4-.8-2.6.8-5,4.4-6.2,4-1.2,6.4.2,7.2,2.4.8,2.6-.8,5-4.4,6h0v.2ZM486,675.9c-2,.6-3.4,1.4-3,2.6.4,1,2.2.6,4,0,1.6-.4,3.4-1.4,3-2.4s-2.4-.8-4-.2h0Z"/>
        <path class="st5" d="M490.6,682.5c1.2-.4,2.2-.8,3.4-1.2l.8,2.6-1.2.6h0c1,.4,2,1,2.4,2.2.6,2.2-.8,3.6-3.2,4.4l-7.2,2.4-1-3,7-2.2c1-.2,1.8-.8,1.4-1.8,0-.4-.6-.8-1.4-.8h-1l-6.8,2.2-1-3,7.8-2.6h0v.2Z"/>
        <path class="st5" d="M491.8,700.7l-3.8.4-1-3,16.4-1.6,1.2,3.6-14.4,8-1-3,3.2-1.8-1-2.8h0l.4.2ZM494.8,702.5l3-1.6c.8-.4,2.4-1.2,3.4-1.6h0c-1,0-2.8.4-3.8.6l-3.4.4.8,2.2h0Z"/>
        <path class="st5" d="M498.6,707.1c1-.4,2.2-.8,3.4-1.2l.8,2.6-1.6.6h0c1.4,0,2.2.8,2.6,1.6v.6l-3,1v-.6c-.2-.6-1-1.4-2.2-1.4s-.8,0-1.2.2l-5.6,1.8-1-3,7.8-2.6h0v.4Z"/>
        <path class="st5" d="M508.4,715.7l-3,1,.8,2.2-2.2.6-.8-2.2-5,1.6c-1.2.4-1.4,1-1.2,1.6,0,.4.2.6.4.8l-2.4.8c-.2-.4-.6-1-.8-1.8s-.4-1.6,0-2.4,1.2-1.4,2.8-2l5.2-1.8-.4-1.4,2.2-.6.4,1.4,2.2-.8,1.6,2.8h0l.2.2Z"/>
        <path class="st5" d="M431,482.4c-2-.6-4.8-.6-8.4.4-3.4,1.2-5.6,2.8-7,4.6l-.6-1.8c1-1.6,3.4-3.6,7-4.6,3.8-1.2,6.6-1,8.4-.4l.6,1.8h0Z"/>
        <path class="st5" d="M430.8,484c.4.8.8,1.6,1.2,2.6.4,1.4.6,2.6,0,3.8-.4,1-1.2,1.6-2.4,1.8-1.4.4-2.8,0-3.8-1h0c0,1-.8,1.6-2,2.4-1.4.8-2.8,1.6-3.2,2l-.8-2.6c.2-.2,1.6-1,2.8-1.6,1.6-.8,1.8-1.4,1.6-2.2v-.4l-5.2,1.6-.8-2.4,12.6-4.2h0v.2ZM426,488.4v.4c.4,1,1.6,1.4,2.6,1s1.8-1,1.4-2.2c0-.2,0-.4-.2-.6l-3.8,1.2h0v.2Z"/>
        <path class="st5" d="M425.4,497.6c-1.4.4-1.8,1.6-1.4,2.6.2.6.6,1.2,1,1.6l-1.6,1c-.4-.6-1-1.4-1.2-2.4-.8-2.6.4-4.4,3.2-5.4,3.2-1,5.6,0,6.2,2,.6,2-.6,3.6-3.4,4.6-.6.2-1,.4-1.4.4l-1.4-4.4h0ZM428,499.2c1.2-.4,2-1,1.8-1.8s-1.6-.8-2.4-.4l.8,2.2h-.2Z"/>
        <path class="st5" d="M425,509l.8-.4h0c-1-.4-1.4-1-1.8-1.8-.4-1.4.4-2.8,2-3.4,2.4-.8,4.2,1,4.8,3.2h.2c.8-.4,1.2-1,.8-1.8-.2-.8-.6-1.2-1.2-1.8l1.6-1c.4.4,1.2,1.4,1.6,2.6,1,2.8-1,4-2.8,4.6l-3.4,1.2c-.8.2-1.4.6-2,.8l-.8-2.2h.2ZM429.4,507c-.2-.8-1-1.8-2.2-1.4-1,.4-1,1-1,1.4s.6.8,1.2.8h.4l1.6-.6h0v-.2Z"/>
        <path class="st5" d="M441.6,515.2l-10.4,3.4c-.8.2-1.8.6-2.8,1l-.8-2.2,1-.4h0c-.8,0-1.6-.8-1.8-1.6-.6-2,1.2-3.6,3.8-4.4,3.2-1,5.2,0,5.8,1.4.2.8,0,1.4-.4,1.8h0l4.6-1.4.8,2.4h.2ZM433.4,515.2s.4,0,.6-.2c.6-.2,1-.8.8-1.2-.2-.8-1.6-.8-3.2-.4-1.8.6-2.6,1.4-2.2,2,0,.4.4.6,1,.6h.6l2.4-.8h0Z"/>
        <path class="st5" d="M439,520.2l-4.6,2.4c-.6.2-1,.6-1.4.8h0c.6,0,1,0,1.6-.2l5.2-.8.8,2.4-7.8.4c-2,0-4,0-5.4-.6-1.2-.4-2-1.2-2.2-1.6l2-1.4c.2.4.8.8,1.2,1s1,.4,1.4.4h.8l7.8-5.4.8,2.6h-.2Z"/>
        <path class="st5" d="M439.6,538.4c1.2-.4,2.8-1,4.2-1.6h0c-1.4,0-3.2.4-4.2.4l-5,.4-.6-1.8,4.2-2.6c1-.6,2.4-1.4,3.8-2h0c-1.4.4-3,.8-4.4,1.2l-4.6,1.2-.8-2.2,13.2-3.2.8,2.6-4.2,2.6c-1.6.8-2.8,1.6-4.2,2.4h0c1.6-.2,3-.4,4.8-.6l5-.4.8,2.6-12.6,5-.8-2.2,4.4-1.6h0l.2-.2Z"/>
        <path class="st5" d="M437.8,548.2l.8-.4h0c-1-.4-1.4-1-1.8-1.8-.4-1.4.4-2.8,2-3.4,2.4-.8,4.2,1,4.8,3.2h.2c.8-.4,1.2-1,.8-1.8-.2-.8-.6-1.2-1.2-1.8l1.6-1c.4.4,1.2,1.4,1.6,2.6,1,2.8-1,4-2.8,4.6l-3.4,1.2c-.8.2-1.4.6-2,.8l-.8-2.2h.2ZM442.2,546.4c-.2-.8-1-1.8-2.2-1.4-1,.4-1,1-1,1.4s.6.8,1.2.8h.4l1.6-.6h0v-.2Z"/>
        <path class="st5" d="M454.4,554.4l-10.4,3.4c-.8.2-1.8.6-2.8,1l-.8-2.2,1-.4h0c-.8,0-1.6-.8-1.8-1.6-.6-2,1.2-3.6,3.8-4.4,3.2-1,5.2,0,5.8,1.4.2.8,0,1.4-.4,1.8h0l4.6-1.4.8,2.4h.2ZM446,554.4s.4,0,.6-.2c.6-.2,1-.8.8-1.2-.2-.8-1.6-.8-3.2-.4-1.8.6-2.6,1.4-2.2,2,0,.4.4.6,1,.6h.6l2.4-.8h0Z"/>
        <path class="st5" d="M446.2,561.4c-1.4.4-1.8,1.6-1.4,2.6.2.6.6,1.2,1,1.6l-1.6,1c-.4-.6-1-1.4-1.2-2.4-.8-2.6.4-4.4,3.2-5.4,3.2-1,5.6,0,6.2,2,.6,2-.6,3.6-3.4,4.6-.6.2-1,.4-1.4.4l-1.4-4.4h0ZM448.6,563c1.2-.4,2-1,1.8-1.8s-1.6-.8-2.4-.4l.8,2.2h-.2Z"/>
        <path class="st5" d="M446.6,567.6v1.8c.2.6.6,1,1.2.8.4,0,.6-.6,1-1.6.4-1.8,1.2-2.4,2-2.8,1.6-.6,3.4.2,4,2,.2.8.2,1.4,0,2h-2v-1.2c-.2-.6-.6-.8-1-.6-.4,0-.6.4-.8,1.4-.4,1.6-1.2,2.4-2.2,2.8-2,.6-3.4-.4-4-2.4-.2-.8-.4-1.8,0-2.2h2-.2Z"/>
        <path class="st5" d="M443.8,574.8c2.2.6,5,.6,8.4-.6s5.6-2.8,7-4.6l.6,1.8c-1,1.6-3.2,3.4-7,4.6s-6.6,1-8.4.4l-.6-1.8h0v.2Z"/>
      </g>
      <g>
        <path class="st5" d="M393,552.3c-.4.6-.6,1.8-.6,2.6,0,1.4.8,2.2,1.8,2.2s1.8-.8,2.6-2c1.4-2.2,3-3,4.6-3,2.6,0,4.8,1.8,4.8,5.2s-.2,2-.6,2.6l-2.8-.4c.2-.4.6-1.2.6-2,0-1.4-.8-2-1.6-2s-1.4.4-2.6,2.2c-1.2,2.2-3,3-4.6,3-3,0-5-2.2-5-5.4s.4-2.6.6-3l2.8.4h0v-.4Z"/>
        <path class="st5" d="M404.6,565.7h-3.2v2.2h-2.2v-2.2h-5.4c-1.4,0-1.8.6-1.8,1.2v.8h-2.4c0-.4-.2-1-.2-2s.2-1.8.8-2.2c.6-.6,1.6-1,3.4-1h5.6v-1.4h2.2v1.4h2.4l.8,3.2h0Z"/>
        <path class="st5" d="M398,569.5h3.6v2.8h-1.8c1.2.8,2,1.8,2,2.6s0,.4,0,.6h-3.2v-.6c0-.6-.4-1.6-1.6-2h-7.2v-3.2h8.2v-.2Z"/>
        <path class="st5" d="M394.4,579.1c-1.8,0-2.4,1-2.4,2.4s.2,1.6.4,2.2l-2.2.4c-.4-.8-.6-2-.6-3.2,0-3.2,2.2-5,5.8-5s6.2,2,6.2,4.8-2,4-5.6,4-1.2,0-1.6,0v-5.6h0ZM396.6,581.9c1.6,0,2.8-.4,2.8-1.4s-1.6-1.4-2.6-1.4v2.8h-.2Z"/>
        <path class="st5" d="M394.4,589.1c-1.8,0-2.4,1-2.4,2.4s.2,1.6.4,2.2l-2.2.4c-.4-.8-.6-2-.6-3.2,0-3.2,2-5,5.8-5s6.2,2,6.2,4.8-2,4-5.6,4-1.2,0-1.6,0v-5.6h0ZM396.6,591.9c1.6,0,2.6-.4,2.6-1.4s-1.6-1.4-2.6-1.4v2.8h0Z"/>
        <path class="st5" d="M404.6,600.3h-3.2v2.2h-2.2v-2.2h-5.4c-1.4,0-1.8.6-1.8,1.2v.8h-2.4c0-.4-.2-1-.2-2s.2-1.8.8-2.2c.6-.6,1.6-1,3.4-1h5.6v-1.4h2.2v1.4h2.4l.8,3.2h0Z"/>
        <path class="st5" d="M393.4,610.7l-3.8-.8v-3l16.2,3.6v3.8l-16.2,3.2v-3l3.8-.8v-3h0ZM395.8,613.3l3.4-.6c1,0,2.6-.4,3.6-.6h0c-1-.2-2.8-.4-3.6-.6l-3.4-.6v2.4Z"/>
        <path class="st5" d="M398,618.7h3.6v2.8h-1.8c1.2.8,2,1.8,2,2.6s0,.4,0,.6h-3.2v-.6c0-.6-.4-1.6-1.6-2h-7.2v-3.2h8.2v-.2Z"/>
        <path class="st5" d="M404.6,630.1h-3.2v2.2h-2.2v-2.2h-5.4c-1.4,0-1.8.6-1.8,1.2v.8h-2.4c0-.4-.2-1-.2-2s.2-1.8.8-2.2c.6-.6,1.6-1,3.4-1h5.6v-1.4h2.2v1.4h2.4l.8,3.2h0Z"/>
        <path class="st5" d="M388.8,635.9l17.4,5.6v2l-17.4-5.6v-2h0Z"/>
        <path class="st5" d="M390.2,657.3c-.2-.6-.6-2.2-.6-3.4,0-1.8.6-3.2,1.6-4.4,1.4-1.4,3.8-2.2,6.6-2,5.8,0,8.4,3.4,8.4,6.8s-.2,2.2-.4,2.6l-2.8-.6c.2-.4.4-1,.4-1.8,0-2.2-1.4-3.8-5.6-3.8s-5.2,1.6-5.2,3,0,.4,0,.6h4v-1.4h2.6v4.4h-9Z"/>
        <path class="st5" d="M398,659.5h3.6v2.8h-1.8c1.2.8,2,1.6,2,2.6s0,.4,0,.6h-3.2v-.6c0-.6-.4-1.6-1.6-2h-7.2v-3.2h8.2v-.2Z"/>
        <path class="st5" d="M389.8,671.7h1.2c-1-.8-1.4-1.8-1.4-2.8,0-1.8,1.4-3,3.6-3s4.4,2.8,4.4,5.4h.2c1,0,1.6-.6,1.6-1.6s-.2-1.6-.6-2.4l2.2-.6c.4.6,1,2,1,3.6,0,3.6-2.4,4.2-4.8,4.2h-7v-2.8h-.4ZM395.4,671.3c0-1-.4-2.4-2-2.4s-1.6.6-1.6,1.2.2,1,1,1.2h2.6Z"/>
        <path class="st5" d="M403.6,690.9c.2-.6.4-1.2.4-2.2,0-1.8-1-2.2-2-2.2h-.4v5.8h-11.8v-3.2h9.6v-2.6h-9.6v-3.2h9.6v-3h-9.6v-3.2h9.6v-1.6h2.2v1.6h.4c1.6,0,3,.6,3.8,1.8.4.6.8,1.6.8,2.6s0,1.4-.4,1.8l-2.4-.8v-.8c0-.4,0-.6-.4-1s-1-.4-1.6-.4h-.4v3h.6c1.6,0,4.4,1,4.4,5.2s-.2,2.2-.4,2.8l-2.4-.4h0Z"/>
        <path class="st5" d="M404.6,698.1h-3.2v2.4h-2.2v-2.4h-5.4c-1.4,0-1.8.6-1.8,1.2v.8h-2.4c0-.4-.2-1-.2-2s.2-1.6.8-2.2,1.6-1,3.4-1h5.6v-1.4h2.2v1.4h2.4l.8,3.2h0Z"/>
        <path class="st5" d="M389.8,701.9h11.8v3.2h-11.8v-3.2h0ZM404.6,705.1c-1,0-1.8-.6-1.8-1.6s.8-1.6,1.8-1.6,1.8.8,1.8,1.6-.6,1.6-1.8,1.6h0Z"/>
        <path class="st5" d="M393.4,713.9l-3.8-.8v-3l16.2,3.6v3.8l-16.2,3.2v-3l3.8-.6v-3h0v-.2ZM395.8,716.5l3.4-.6c1,0,2.6-.4,3.6-.6h0c-1-.2-2.8-.4-3.6-.6l-3.4-.6v2.4h0Z"/>
        <path class="st5" d="M398,722.1h3.6v2.8h-1.8c1.2.8,2,1.6,2,2.6s0,.4,0,.6h-3.2v-.6c0-.6-.4-1.6-1.6-2h-7.2v-3.2h8.2v-.2Z"/>
        <path class="st5" d="M404.6,733.3h-3.2v2.4h-2.2v-2.4h-5.4c-1.4,0-1.8.6-1.8,1.2v.8h-2.4c0-.4-.2-1-.2-2s.2-1.6.8-2.2,1.6-1,3.4-1h5.6v-1.4h2.2v1.4h2.4l.8,3.2h0Z"/>
      </g>
      <g>
        <path class="st5" d="M567.4,511.7c.8.4,1.8,1,2.8,1.6,1.6,1,2.6,2.2,2.8,3.6.2,1.2,0,2.6-1,3.6-1,1.4-2.2,2-3.4,2.4-1.4.2-3-.2-4-1,0,0-.4-.2-.4-.4l-3.6,4.8-2.6-1.8,9.4-12.8h0ZM565.6,519.5l.4.4c1.2,1,2.6.4,3.4-.8.8-1.2,1-2.4,0-3.2-.2,0-.4-.2-.8-.4l-3,4h0Z"/>
        <path class="st5" d="M576.6,530.9c-2.8,4-5.8,3.4-7.2,2.2-2.2-1.6-2.4-4.4,0-7.6,2.4-3.4,5.4-3.6,7.2-2.2,2.2,1.6,2.2,4.4,0,7.4h0v.2ZM572,527.5c-1.2,1.6-2,3.2-1,3.8.8.6,2.2-.8,3.2-2.2s2-3.2,1-3.8-2.4.8-3.2,2.2h0Z"/>
        <path class="st5" d="M576.2,534.3c.2.4.8,1.2,1.4,1.8s1.2.4,1.6,0c.4-.4.2-1,0-2-1-2-.6-3.2,0-4.2,1.2-1.8,3.4-2.2,5.4-.8.8.6,1.2,1.2,1.6,1.8l-1.8,1.6c-.2-.4-.6-1-1-1.4-.6-.4-1.2-.2-1.6,0-.2.4-.2.8.2,2,.8,1.8.6,3.2,0,4.2-1.4,2-3.6,2-5.6.6-.8-.6-1.6-1.4-1.8-2.2l1.8-1.6h0l-.2.2Z"/>
        <path class="st5" d="M592.8,531.3l-1.8,2.6,1.8,1.4-1.4,1.8-1.8-1.4-3.2,4.4c-.8,1-.6,1.8,0,2,.2,0,.4.2.8.4l-1.4,2c-.4,0-1-.4-1.6-1-.8-.6-1.2-1.2-1.4-2,0-.8,0-1.8,1.2-3.2l3.2-4.4-1.2-.8,1.4-1.8,1.2.8,1.4-2,3,1.2h-.2Z"/>
        <path class="st5" d="M591.8,538.9c.8-1,1.4-2,2-3l2.2,1.6-.6,1.2h0c1-.4,2.2-.2,3.2.4,1,.8,1.4,1.8,1.2,2.8h0c.4,0,1.2-.2,1.6-.2.6,0,1,.2,1.6.6,1.8,1.2,1.4,3.2,0,5.4l-4.4,6-2.6-1.8,4-5.6c.8-1,1.2-2,.6-2.6-.4-.4-1-.2-1.6,0l-.6.6-4.4,6-2.6-1.8,4.4-6c.4-.8,1-1.6.2-2.2-.4-.2-1-.2-1.6,0l-.6.6-4.4,6-2.6-1.8,4.8-6.6h0l.2.4Z"/>
        <path class="st5" d="M600.2,555.3l7-9.6,2.6,1.8-7,9.6-2.6-1.8ZM611.4,545.1c-.6.8-1.6,1-2.4.4-.8-.4-.8-1.6-.2-2.2.6-.8,1.6-1,2.2-.4.8.6,1,1.4.2,2.4h0l.2-.2Z"/>
        <path class="st5" d="M609.4,551.7c.8-1,1.4-2,2-3l2.2,1.6-.6,1.2h0c1-.4,2.2-.2,3.2.4,1.8,1.2,1.4,3.2,0,5.4l-4.4,6-2.6-1.8,4.4-6c.6-.8,1-1.8.2-2.2-.4-.2-1-.2-1.6,0-.2,0-.4.4-.8.8l-4.2,5.8-2.6-1.8,4.8-6.6h0v.2Z"/>
        <path class="st5" d="M613.4,564.7l7-9.6,2.6,1.8-7,9.6-2.6-1.8ZM624.6,554.7c-.6.8-1.6,1-2.4.4-.8-.4-.8-1.6-.2-2.2.6-.8,1.6-1,2.2-.4.8.6,1,1.4.2,2.4h0l.2-.2Z"/>
        <path class="st5" d="M622.6,561.3c.8-1,1.4-2,2-3l2.2,1.6-.6,1.2h0c1-.4,2.2-.2,3.2.4,1,.8,1.4,1.8,1.2,2.8h0c.4,0,1.2-.2,1.6-.2.6,0,1,.2,1.6.6,1.8,1.2,1.4,3.2,0,5.4l-4.4,6-2.6-1.8,4-5.6c.8-1,1.2-2,.6-2.6-.4-.4-1-.2-1.6,0l-.6.6-4.4,6-2.6-1.8,4.4-6c.4-.8,1-1.6.2-2.2-.4-.2-1-.2-1.6,0l-.6.6-4.4,6-2.6-1.8,4.8-6.6h0l.2.4Z"/>
        <path class="st5" d="M635.2,580.7l.6-1h0c-1,.4-2,0-3-.4-1.4-1-1.6-3-.4-4.8,1.8-2.4,4.8-2,7-.4h0c.6-1,.4-1.8-.4-2.4-.8-.6-1.6-.8-2.4-.8l.8-2c.8,0,2.2.4,3.4,1.4,2.8,2,1.8,4.4.4,6.4l-2.6,3.6c-.6.8-1,1.6-1.4,2.2l-2.2-1.6h0l.2-.2ZM638.2,575.7c-.8-.6-2.2-1.2-3.2,0-.6,1-.4,1.6,0,2,.4.2,1,.4,1.6,0l.4-.4,1.2-1.6Z"/>
        <path class="st5" d="M648.8,570.1l2.6,1.8-9.8,13.4-2.6-1.8,9.8-13.4h0Z"/>
        <path class="st5" d="M643.4,586.7l7-9.6,2.6,1.8-7,9.6-2.6-1.8ZM654.8,576.5c-.6.8-1.6,1-2.4.4-.8-.4-.8-1.6-.2-2.2.6-.8,1.6-1,2.2-.4.8.6,1,1.4.2,2.4h0l.2-.2Z"/>
        <path class="st5" d="M649.4,587.5c.2.4.8,1.2,1.4,1.8s1.2.4,1.6,0c.4-.4.2-1,0-2-1-2-.6-3.2,0-4.2,1.2-1.8,3.4-2.2,5.4-.8.8.6,1.2,1.2,1.6,1.8l-1.8,1.6c-.2-.4-.6-1-1-1.4-.6-.4-1.2-.2-1.6,0-.2.4-.2.8.2,2,.8,1.8.6,3.2,0,4.2-1.4,2-3.6,2-5.6.6-.8-.6-1.6-1.4-1.8-2.2l1.8-1.6h0l-.2.2Z"/>
        <path class="st5" d="M659,587.7c.8-1,1.4-2,2-3l2.2,1.6-.6,1.2h0c1-.4,2.2-.2,3.2.4,1,.8,1.4,1.8,1.2,2.8h0c.4,0,1.2-.2,1.6-.2.6,0,1,.2,1.6.6,1.8,1.2,1.4,3.2,0,5.4l-4.4,6-2.6-1.8,4-5.6c.8-1,1.2-2,.6-2.6-.4-.4-1-.2-1.6,0l-.6.6-4.4,6-2.6-1.8,4.4-6c.4-.8,1-1.6.2-2.2-.4-.2-1-.2-1.6,0l-.6.6-4.4,6-2.6-1.8,4.8-6.6h0l.2.4Z"/>
      </g>
      <g>
        <path class="st5" d="M499.6,550.5l13-9.6,1.8,2.4-3.6,5.8c-.8,1.2-2,3-2.8,4.2h0c1.4-1,3.6-2.8,6-4.6l3-2,1.6,2.2-13,9.6-1.8-2.4,3.6-5.6c.8-1.2,2-3,3-4.2h0c-1.2,1-3.2,2.6-5.8,4.4l-3,2.2-1.6-2.2h0l-.4-.2Z"/>
        <path class="st5" d="M512,559.5c-1.4,1-1.4,2.4-.6,3.4.6.8,1.2,1.2,1.6,1.6l-1.6,1.6c-.8-.4-1.6-1.4-2.4-2.2-1.8-2.6-1.2-5.2,1.8-7.4,3.2-2.4,6.2-2,7.8,0,1.4,2,.8,4.4-2.2,6.4-.6.4-1,.8-1.4.8l-3.2-4.4h0l.2.2ZM515.4,560.5c1.2-.8,2-2,1.4-2.6-.6-.8-2-.2-3,.4l1.6,2.2h0Z"/>
        <path class="st5" d="M522.4,571.9c-4,2.8-6.6,1.4-7.6,0-1.6-2.2-.8-5,2.2-7.2,3.4-2.4,6.2-1.8,7.6,0,1.6,2.2.8,5-2.2,7.2h0ZM518.8,567.1c-1.6,1.2-2.8,2.4-2.2,3.4.6.8,2.4,0,3.8-1.2,1.4-1,2.8-2.4,2.2-3.2-.6-1-2.4,0-3.8,1h0Z"/>
        <path class="st5" d="M527.8,576.1l-1.8,1.4-2.8-3.8,1.8-1.4,2.8,3.8Z"/>
        <path class="st5" d="M532.4,583.7l-2.2-3-3.6,2.6,2.4,3.4-2.2,1.6-4.2-6,13-9.6,4.2,5.6-2.2,1.6-2.2-3.2-3,2.2,2.2,3-2.2,1.6h0v.2Z"/>
        <path class="st5" d="M539,584.9l-1.2,1.8c-.4.6-1,1.2-1.2,1.6h0c.6,0,1.2-.4,2-.6l2-.6,1.8,2.6-6.2,1.2-3.2,5.6-2-2.8,1.4-2c.4-.6.8-1,1.2-1.6h0c-.6,0-1.2.4-1.8.6l-2.2.8-1.8-2.6,6.2-1.4,3.2-5.6,2,2.8h0l-.2.2Z"/>
        <path class="st5" d="M540.2,592.7c1.2-.8,2-1.6,3-2.2l1.6,2.2-1,1h0c1,0,2,.2,2.8,1.2,1.6,2,0,4.6-2.8,6.4-3.4,2.4-6,2-7.2.4-.6-.8-.4-1.6-.2-2.2h0l-4.6,3.2-1.8-2.6,10.2-7.4h0ZM539,597.5c-.4.2-.6.4-.8.8-.4.6-.4,1,0,1.4.6,1,2.2.2,3.6-.8,1.8-1.4,2.4-2.4,2-3.2-.2-.4-1-.4-1.4-.2-.2,0-.6.2-.8.4l-2.6,1.8h0v-.2Z"/>
        <path class="st5" d="M546.6,601.3c1-.6,2-1.4,2.8-2.2l1.6,2.2-1.2,1.2h0c1.4-.2,2.4,0,3,.8,0,.2.2.4.4.6l-2.6,1.8s-.2-.4-.4-.6c-.4-.6-1.2-1-2.4-.6-.2,0-.6.2-1,.6l-4.8,3.6-1.8-2.6,6.6-4.8h-.2Z"/>
        <path class="st5" d="M549.4,611.1c-1.4,1-1.4,2.4-.6,3.4.6.8,1.2,1.2,1.6,1.6l-1.6,1.6c-.8-.4-1.6-1.4-2.4-2.2-1.8-2.6-1.2-5.2,1.8-7.4,3.2-2.4,6.2-2,7.8,0,1.4,2,.8,4.4-2.2,6.4-.6.4-1,.8-1.4.8l-3.2-4.4h0l.2.2ZM552.8,612.1c1.2-.8,2-2,1.4-2.6-.6-.8-2-.2-3,.4l1.6,2.2h0Z"/>
        <path class="st5" d="M552.2,618.1c0,.6.2,1.4.8,2,.4.6,1,.8,1.6.4.4-.4.6-.8.4-2-.2-2.2.4-3.2,1.4-4,1.8-1.2,4-1,5.2,1,.6.8.8,1.6,1,2.2l-2.2,1c0-.6-.2-1-.6-1.6-.4-.6-1-.6-1.6-.4-.4.2-.4.8-.4,2,.2,2-.4,3.2-1.4,4-2,1.4-4,.8-5.4-1.2-.6-.8-1-1.8-1-2.6l2.2-1h0v.2Z"/>
        <path class="st5" d="M556.8,624.5c0,.6.2,1.4.8,2,.4.6,1,.8,1.6.4.4-.4.6-.8.4-2-.2-2.2.4-3.2,1.4-4,1.8-1.2,4-1,5.2,1,.6.8.8,1.6,1,2.2l-2.2,1c0-.6-.2-1-.6-1.6-.4-.6-1-.6-1.6-.4-.4.2-.4.8-.4,2,.2,2-.4,3.2-1.4,4-2,1.4-4,.8-5.4-1.2-.6-.8-1-1.8-1-2.6l2.2-1h0v.2Z"/>
        <path class="st5" d="M559,632.5l9.6-7,1.8,2.6-9.6,7-1.8-2.6h0ZM573,626.3c-.8.6-1.8.4-2.4-.4-.6-.8-.4-1.6.4-2.2.8-.6,1.8-.4,2.4.2.6.8.4,1.8-.4,2.4h0Z"/>
        <path class="st5" d="M572,640.3c-4,2.8-6.6,1.4-7.6,0-1.6-2.2-.8-5,2.2-7.2,3.4-2.4,6.2-1.8,7.6,0,1.6,2.2.8,5-2.2,7.2h0ZM568.6,635.5c-1.6,1.2-2.8,2.4-2.2,3.4.6.8,2.4,0,3.8-1.2,1.4-1,2.8-2.4,2.2-3.2-.6-1-2.4,0-3.8,1h0Z"/>
        <path class="st5" d="M575,640.3c1-.8,2-1.4,2.8-2.2l1.6,2.2-1,1h0c1.2,0,2.2.4,3,1.4,1.2,1.8.4,3.6-1.8,5.2l-6,4.4-1.8-2.6,6-4.4c.8-.6,1.4-1.4.8-2-.2-.4-.8-.6-1.6-.4-.2,0-.6.2-1,.4l-5.8,4.2-1.8-2.6,6.6-4.8h0v.2Z"/>
        <path class="st5" d="M574.8,654.1l9.6-7,1.8,2.6-9.6,7-1.8-2.6ZM588.6,647.9c-.8.6-1.8.4-2.4-.4-.4-.8-.4-1.6.4-2.2.8-.6,1.8-.4,2.4.2.6.8.4,1.6-.4,2.4h0Z"/>
        <path class="st5" d="M580.2,656.7c0,.6.2,1.4.8,2,.4.6,1,.8,1.6.4.4-.4.6-.8.4-2-.2-2.2.4-3.2,1.4-4,1.8-1.2,4-1,5.2,1,.6.8.8,1.6,1,2.2l-2.2,1c0-.6-.2-1-.6-1.6-.4-.6-1-.6-1.6-.4-.4.2-.4.8-.4,2,.2,2-.4,3.2-1.4,4-2,1.4-4,.8-5.4-1.2-.6-.8-1-1.8-1-2.6l2.2-1h0v.2Z"/>
        <path class="st5" d="M589.2,659.9c1-.8,2-1.4,2.8-2.2l1.6,2.2-1,1h0c1,0,2.2.4,3,1.4s.8,2,.2,3h0c.6,0,1.2,0,1.8.4.4.2,1,.6,1.2,1,1.2,1.8.4,3.4-1.8,5.2l-6,4.4-1.8-2.6,5.6-4c1-.8,1.8-1.6,1.2-2.2-.4-.4-.8-.6-1.6-.4,0,0-.4.2-.8.4l-6,4.4-1.8-2.6,6-4.4c.8-.4,1.6-1.2,1-2-.2-.4-.8-.6-1.6-.4-.2,0-.6.2-.8.4l-6,4.4-1.8-2.6,6.6-4.8h0Z"/>
      </g>
      <g>
        <path class="st5" d="M618.6,459.4c1,0,2,.4,3.2.8,1.8.6,3,1.2,3.8,2.6.6,1,.6,2.4.2,3.8-.6,1.6-1.4,2.6-2.4,3.2-1.2.8-3,.6-4.2.2-.2,0-.4,0-.6-.2l-1.8,5.8-3-1,5-15.2h-.2ZM619.4,467.4s.2,0,.4.2c1.6.4,2.6-.4,3-1.8.4-1.4.2-2.6-1.2-3h-.8l-1.6,4.8h0l.2-.2Z"/>
        <path class="st5" d="M629,462l3,1-1.8,5.8h0c.4-.2.8-.4,1.2-.6h1.6c2,.6,2.2,2.6,1.4,5.6l-2.2,6.8-3-1,2.2-6.8c.4-1,.4-2.2-.4-2.4-.4,0-1,0-1.6.6,0,0-.2.6-.4.8l-2.2,7-3-1,5.2-15.8h0Z"/>
        <path class="st5" d="M644.4,478.2c-1.6,4.6-4.4,5-6.2,4.4-2.6-.8-3.6-3.6-2.4-7.2,1.2-4,4-5.2,6.2-4.4,2.6.8,3.6,3.6,2.4,7h0v.2ZM638.8,476.6c-.6,2-.8,3.6.2,4s1.8-1.4,2.4-3.2c.4-1.6.8-3.6,0-4-1-.4-2,1.6-2.4,3h0l-.2.2Z"/>
        <path class="st5" d="M652.4,471.4l-1,3,2.2.8-.6,2.2-2.2-.8-1.6,5c-.4,1.2,0,1.8.6,2h.8l-.8,2.4c-.4,0-1,0-2-.4-.8-.2-1.6-.8-2-1.4-.4-.8-.4-1.8,0-3.6l1.8-5.2-1.4-.4.6-2.2,1.4.4.8-2.2h3.2v.4h.2Z"/>
        <path class="st5" d="M661.2,483.8c-1.6,4.6-4.4,5-6.2,4.4-2.6-.8-3.6-3.6-2.4-7.2,1.2-4,4-5.2,6.2-4.4,2.6.8,3.6,3.6,2.4,7h0v.2ZM655.6,482c-.6,2-.8,3.6.2,4s1.8-1.4,2.4-3.2c.4-1.6.8-3.6,0-4-1-.4-2,1.6-2.4,3h0l-.2.2Z"/>
        <path class="st5" d="M663.6,482c.4-1,.8-2.4,1-3.4l2.6.8-.4,1.6h0c.8-1,2-1.4,2.8-1,.2,0,.4,0,.6.2l-1,3s-.4,0-.6-.2c-.6-.2-1.6,0-2.4,1,0,.2-.4.6-.4,1l-1.8,5.6-3-1,2.6-7.8h0v.2Z"/>
        <path class="st5" d="M671.6,488.4c-.6,1.8.2,2.8,1.6,3.2.8.2,1.6.4,2.2.4v2.2c-1.2,0-2.4,0-3.6-.4-3-1-4-3.6-3-7,1.2-3.8,4-5.4,6.4-4.6,2.4.8,3.2,3.2,2,6.6-.2.8-.4,1.2-.6,1.6l-5.2-1.8h0l.2-.2ZM675,487.2c.4-1.4.4-2.6-.4-3-1-.4-1.8,1-2.2,2l2.6.8h0v.2Z"/>
        <path class="st5" d="M682.2,496.8v-1.2c.2,0,0,0,0,0-.8.6-2,.8-2.8.4-1.6-.6-2.4-2.4-1.8-4.4,1-3,4-3.2,6.4-2.4h0c.2-1.2,0-2-1-2.2s-1.6-.2-2.4,0v-2.2c.8,0,2.2-.2,3.8.2,3.4,1,3.2,3.6,2.4,6l-1.4,4.2c-.2.8-.6,1.8-.6,2.6l-2.6-.8h0v-.2ZM683.6,491.2c-1-.2-2.4-.4-3,1.2-.4,1,0,1.8.6,1.8s1.2,0,1.6-.6c0,0,0-.2.2-.4l.6-2h0Z"/>
        <path class="st5" d="M692,482.6l3,1-5.2,15.8-3-1,5.2-15.8Z"/>
        <path class="st5" d="M692,500l3.6-11.2,3,1-3.6,11.2-3-1ZM699.6,486.8c-.2,1-1.2,1.4-2,1-.8-.2-1.2-1.2-1-2,.2-1,1.2-1.4,2-1.2s1.4,1.2,1,2.2Z"/>
        <path class="st5" d="M697.8,498.8c.4.4,1,1,1.8,1.2s1.4,0,1.6-.6c0-.6,0-1-.8-2-1.4-1.6-1.6-3-1.2-4,.6-2,2.6-3,4.8-2.4,1,.2,1.6.8,2,1.2l-1.2,2c-.4-.4-.8-.8-1.4-1-.8-.2-1.2,0-1.4.6s0,.8.8,1.8c1.4,1.4,1.6,2.8,1.2,4-.8,2.2-2.8,3-5,2.2-1-.2-2-1-2.4-1.4l1.2-2h0v.4Z"/>
        <path class="st5" d="M707,496.2c.4-1.2.8-2.4,1-3.4l2.6.8v1.4h-.2c.8-.6,2-1,3.2-.6s1.8,1.2,2,2.4h0c.4-.4,1-.6,1.6-.8h1.6c2,.6,2.4,2.6,1.6,5.2l-2.2,7-3-1,2.2-6.6c.4-1.2.6-2.4-.2-2.6-.6,0-1,0-1.4.6,0,0-.2.4-.4.8l-2.2,7-3-1,2.2-7c.2-.8.6-2-.4-2.2-.4,0-1,0-1.4.6,0,0-.2.4-.4.8l-2.2,7-3-1,2.6-7.8h0l-.6.4Z"/>
      </g>
      <g>
        <path class="st5" d="M591.3,324.7c.8-.4,1.8-1,3-1.4,1.8-.6,3.2-.8,4.6,0,1.2.6,2,1.6,2.4,3,.6,1.6.4,3,0,4.2-.6,1.4-2,2.2-3.2,2.8h-.6l1.8,5.8-3,1-5-15.2h0v-.2ZM596.5,330.7h.4c1.6-.4,1.8-1.8,1.4-3.2-.4-1.4-1.4-2.2-2.8-1.8-.2,0-.6.2-.8.4l1.6,4.8h0l.2-.2Z"/>
        <path class="st5" d="M606.9,331.3c.6,1.8,1.8,2,3.2,1.6.8-.2,1.6-.8,2-1l1,2c-.6.6-1.8,1.2-3,1.6-3,1-5.4-.4-6.4-4-1.2-3.8,0-6.6,2.6-7.4,2.4-.8,4.4.6,5.6,4,.2.8.4,1.2.4,1.6l-5.2,1.8h0l-.2-.2ZM608.9,328.5c-.4-1.4-1.2-2.4-2-2.2-1,.4-1,1.8-.6,3l2.6-.8Z"/>
        <path class="st5" d="M612.9,325.7c-.4-1.2-.8-2.2-1.2-3.4l2.6-.8.6,1.6h0c0-1.4.8-2.2,1.6-2.6h.6l1,3h-.6c-.6.2-1.4,1-1.2,2.2,0,.2,0,.8.2,1.2l1.8,5.6-3,1-2.6-7.8h.2Z"/>
        <path class="st5" d="M623.3,331.1l-3-9-1.6.4-.6-2.2,1.6-.4v-.4c-.6-1.2-.6-2.4,0-3.8.4-1,1.2-1.6,2.4-2,.8-.2,1.4-.4,1.8-.4l.4,2.4h-1c-1,.4-1,1.4-.8,2.2v.6l2-.6.6,2.2-2,.6,3,9-3,1h0l.2.4Z"/>
        <path class="st5" d="M635.5,320.9c1.6,4.6-.6,6.6-2.4,7.2-2.6.8-5-.8-6.2-4.4-1.2-4,.2-6.4,2.4-7.2,2.6-.8,5,.8,6,4.4h.2ZM629.9,322.7c.6,2,1.4,3.4,2.6,3,1-.4.6-2.2,0-4-.4-1.6-1.4-3.4-2.4-3s-.8,2.4-.2,4h0Z"/>
        <path class="st5" d="M636.5,318.1c-.4-1.2-.8-2.2-1.2-3.4l2.6-.8.6,1.6h0c0-1.4.8-2.2,1.6-2.6h.6l1,3h-.6c-.6.2-1.4,1-1.2,2.2,0,.2,0,.8.2,1.2l1.8,5.6-3,1-2.6-7.8h.2Z"/>
        <path class="st5" d="M643.1,315.9c-.4-1.2-.8-2.2-1.2-3.4l2.6-.8.6,1.2h0c.2-1,1-2,2.2-2.4s2.2,0,3,.8h0c0-.6.4-1,.8-1.6.4-.4.8-.8,1.4-1,2-.6,3.4.6,4.2,3.4l2.2,7-3,1-2.2-6.6c-.4-1.2-.8-2.2-1.8-2-.6,0-.8.6-.8,1.4s0,.4,0,.8l2.2,7-3,1-2.2-7c-.2-.8-.6-1.8-1.6-1.6-.4,0-.8.6-.8,1.4s0,.6,0,.8l2.2,7-3,1-2.6-7.8h0l.8.4Z"/>
        <path class="st5" d="M666.3,317.1l-.6-1h0c-.4,1-1,1.8-2,2-1.6.6-3.4-.4-4-2.4-1-3,1.2-5,3.8-5.8h0c-.2-1.2-1-1.6-2-1.2-1,.2-1.6.8-2,1.4l-1.2-1.8c.4-.6,1.6-1.4,3.2-2,3.4-1,4.8,1,5.4,3.4l1.4,4.2c.2.8.6,1.8,1,2.4l-2.6.8h-.4ZM664.1,311.7c-1,.4-2.2,1.2-1.8,2.6.4,1,1.2,1.4,1.6,1.2.4,0,1-.6,1-1.4s0-.4,0-.6l-.6-2h0l-.2.2Z"/>
        <path class="st5" d="M668.3,307.7c-.4-1.2-.8-2.2-1.2-3.4l2.6-.8.6,1.2h0c.2-1,1-2,2.2-2.4,2.2-.6,3.6.8,4.4,3.2l2.4,7.2-3,1-2.2-7c-.2-1-.8-1.8-1.8-1.4-.4,0-.8.6-.8,1.4v1l2.2,6.8-3,1-2.6-7.8h.2Z"/>
        <path class="st5" d="M687.5,309.9c-.2.2-1,.6-1.8,1-2.8,1-5.4-.4-6.4-4-1.2-3.4,0-6.4,3.2-7.6.8-.2,1.4-.2,1.8-.2l.4,2.4h-1.2c-1.4.4-1.8,2.2-1.2,4,.6,2,2,3,3.4,2.6.4,0,.8-.4,1-.6l1,2.2h0l-.2.2Z"/>
        <path class="st5" d="M689.7,304.5c.6,1.8,1.8,2,3.2,1.6.8-.2,1.6-.8,2-1l1,2c-.6.6-1.8,1.2-3,1.6-3,1-5.4-.4-6.4-4-1.2-3.8,0-6.6,2.6-7.4,2.4-.8,4.4.6,5.6,4,.2.8.4,1.2.4,1.6l-5.2,1.8h0l-.2-.2ZM691.7,301.5c-.4-1.4-1.2-2.4-2-2.2-1,.4-1,1.8-.6,3l2.6-.8Z"/>
        <path class="st5" d="M703.5,301.1l.4,3.8-3,1-1.6-16.4,3.6-1.2,8,14.4-3,1-1.8-3.2-2.8,1h0l.2-.4ZM705.1,297.9l-1.6-3c-.4-.8-1.2-2.4-1.6-3.4h0c0,1,.4,2.8.6,3.8l.4,3.4,2.2-.8h0Z"/>
        <path class="st5" d="M709.7,294.3c-.4-1.2-.8-2.2-1.2-3.4l2.6-.8.6,1.6h0c0-1.4.8-2.2,1.6-2.6h.6l1,3h-.6c-.6.2-1.4,1-1.4,2.2s0,.8.2,1.2l1.8,5.6-3,1-2.6-7.8h.4Z"/>
        <path class="st5" d="M718.3,284.5l1,3,2.2-.8.6,2.2-2.2.8,1.6,5c.4,1.2,1,1.4,1.6,1.2.4,0,.6-.2.8-.4l.8,2.4c-.4.2-1,.6-1.8.8s-1.6.4-2.4,0-1.4-1.2-2-2.8l-1.8-5.2-1.4.4-.6-2.2,1.4-.4-.8-2.2,2.8-1.6h0l.2-.2Z"/>
      </g>
      <g>
        <path class="st5" d="M559.4,387h3.2v13.6h4.2v2.6h-7.2v-16.2h-.2Z"/>
        <path class="st5" d="M573.6,403.2v-1.2h-.2c-.6,1-1.6,1.4-2.6,1.4-1.8,0-3-1.4-3-3.6s2.8-4.4,5.4-4.4h0c0-1.2-.6-1.8-1.6-1.8s-1.6.2-2.4.6l-.6-2.2c.6-.4,2-1,3.6-1,3.6,0,4.2,2.4,4.2,4.8v7h-2.8v.4ZM573.2,397.6c-1,0-2.4.4-2.4,2s.6,1.6,1.2,1.6,1-.2,1.2-1v-2.6h0Z"/>
        <path class="st5" d="M578.4,395v-3.6h2.8v1.4h0c.6-1,1.6-1.6,2.8-1.6,2.2,0,3.2,1.8,3.2,4.4v7.6h-3.2v-7.4c0-1-.2-2-1.2-2s-1,.4-1.2,1v8.2h-3.2v-8.2h0v.2Z"/>
        <path class="st5" d="M598,386.6v16.6h-2.8v-1.4h-.2c-.4.8-1.4,1.6-2.4,1.6-2.4,0-3.6-2.8-3.6-6s1.8-6,3.8-6,1.6.6,2,1.2h0v-5.8h3.2v-.2ZM594.8,396v-.6c0-.8-.4-1.4-1.2-1.4s-1.6,1.6-1.6,3.6.6,3.4,1.4,3.4.8-.2,1-1v-3.8h0l.4-.2Z"/>
        <path class="st5" d="M606.8,399.6l-.8,3.8h-3l3.6-16.2h3.8l3.2,16.2h-3l-.8-3.8h-3ZM609.4,397.2l-.6-3.4c0-1-.4-2.6-.6-3.6h0c0,1-.4,2.8-.6,3.6l-.6,3.4h2.4,0Z"/>
        <path class="st5" d="M615,395v-3.6h2.8v1.8h.2c.6-1.2,1.4-2,2.4-2s.4,0,.6,0v3.2h-.6c-.6,0-1.6.4-2,1.6v7.2h-3.2v-8.2h-.2Z"/>
        <path class="st5" d="M626.2,388.4v3.2h2.2v2.2h-2.2v5.4c0,1.4.6,1.8,1.2,1.8h.8v2.4c-.4,0-1,.2-2,.2s-1.8-.2-2.2-.8c-.6-.6-1-1.6-1-3.4v-5.6h-1.4v-2.2h1.4v-2.4l3.2-.8h0Z"/>
        <path class="st5" d="M632.2,404.2l5.6-17.4h2l-5.6,17.4h-2Z"/>
        <path class="st5" d="M651.4,396.2h-3.6v4.4h4.2v2.8h-7.2v-16.2h7v2.8h-3.8v3.8h3.6v2.6h0l-.2-.2Z"/>
        <path class="st5" d="M659,403.2v-1.2h-.2c-.6,1-1.6,1.4-2.6,1.4-1.8,0-3-1.4-3-3.6s2.8-4.4,5.4-4.4h0c0-1.2-.6-1.8-1.6-1.8s-1.6.2-2.4.6l-.6-2.2c.6-.4,2-1,3.6-1,3.6,0,4.2,2.4,4.2,4.8v7h-2.8v.4ZM658.6,397.6c-1,0-2.4.4-2.4,2s.6,1.6,1.2,1.6,1-.2,1.2-1v-2.6h0Z"/>
        <path class="st5" d="M663.8,395v-3.6h2.8v1.8h.2c.6-1.2,1.4-2,2.4-2s.4,0,.6,0v3.2h-.6c-.6,0-1.6.4-2,1.6v7.2h-3.2v-8.2h-.2Z"/>
        <path class="st5" d="M675,388.4v3.2h2.4v2.2h-2.4v5.4c0,1.4.6,1.8,1.2,1.8h.8v2.4c-.4,0-1,.2-2,.2s-1.6-.2-2.2-.8-1-1.6-1-3.4v-5.6h-1.4v-2.2h1.4v-2.4l3.2-.8h0Z"/>
        <path class="st5" d="M678.8,386.6h3.2v6h0c.2-.4.6-.8,1-1s1-.4,1.6-.4c2.2,0,3,1.8,3,4.8v7.2h-3.2v-7.2c0-1.2-.2-2.2-1.2-2.2s-1,.2-1.2,1.2v8h-3.2v-16.6h0v.2Z"/>
        <path class="st5" d="M692,391.4l.6,5c0,1.2.4,2.4.4,3.6h0c0-1.2.4-2.4.6-3.6l1-5.2h2.4l1,5c.2,1.4.4,2.4.6,3.6h0c0-1,.2-2.4.4-3.6l.8-5h3.2l-3,11.8h-2.6l-.8-4c-.2-1-.4-2.4-.6-3.6h0c0,1.4-.4,2.6-.6,3.6l-1,4h-2.6l-2.8-11.8h3.4l-.4.2Z"/>
        <path class="st5" d="M712.6,397.4c0,5-2.6,6-4.4,6-2.8,0-4.4-2.2-4.4-6s2.2-6,4.6-6,4.4,2.4,4.4,6h-.2ZM706.8,397.4c0,2,.4,3.8,1.4,3.8s1.2-2,1.2-3.8-.2-3.6-1.4-3.6-1.4,2-1.4,3.6h.2Z"/>
        <path class="st5" d="M714.4,395v-3.6h2.8v1.8h.2c.6-1.2,1.4-2,2.4-2s.4,0,.6,0v3.2h-.6c-.6,0-1.6.4-2,1.6v7.2h-3.2v-8.2h-.2Z"/>
        <path class="st5" d="M724.4,396.6h0c.2-.6.4-1.2.6-1.6l1.6-3.6h3.4l-2.8,5,3,6.8h-3.6l-1.6-4.8-.6,1v3.8h-3.2v-16.6h3.2v10h0Z"/>
        <path class="st5" d="M731.2,400.4c.4.2,1.4.6,2.2.6s1.2-.4,1.2-1-.4-1-1.4-1.6c-2-1-2.4-2.2-2.4-3.4,0-2.2,1.6-3.8,3.8-3.8s1.8.2,2.4.6l-.6,2.2c-.4-.2-1-.4-1.6-.4s-1.2.4-1.2,1,.2.8,1.4,1.4c1.8,1,2.4,2.2,2.4,3.6,0,2.4-1.8,3.8-4.2,3.8s-2.2-.2-2.6-.6l.6-2.2h0v-.2Z"/>
      </g>
      <g>
        <path class="st5" d="M584.9,267.4c-.2.4-.8,1-1.8,1.8-3.4,2.4-7,.8-9.6-2.8-3.6-5-2.2-8.8.2-10.6,1-.6,1.6-1,2-1l1.2,2.4c-.4,0-.8.2-1.4.6-1.4,1-1.8,3.2.6,6.4,2.2,3.2,4.4,3.4,5.8,2.4.4-.2.8-.8,1-1l1.8,2h0l.2-.2Z"/>
        <path class="st5" d="M589.5,257c2.8,4,1.4,6.6,0,7.6-2.2,1.6-5,.8-7.2-2.2-2.4-3.4-1.8-6.2,0-7.6,2.2-1.6,5-.8,7.2,2.2h0ZM584.7,260.4c1.2,1.6,2.4,2.8,3.4,2.2.8-.6,0-2.4-1.2-3.8-1-1.4-2.4-2.8-3.2-2.2-1,.6,0,2.4,1,3.8h0Z"/>
        <path class="st5" d="M589.5,254c-.8-1-1.4-2-2.2-2.8l2.2-1.6,1,1h0c0-1.2.4-2.2,1.4-3,1.8-1.2,3.6-.4,5.2,1.8l4.4,6-2.6,1.8-4.4-6c-.6-.8-1.4-1.4-2-.8-.4.2-.6.8-.4,1.6,0,.2.2.6.4,1l4.2,5.8-2.6,1.8-4.8-6.6h.2Z"/>
        <path class="st5" d="M608.5,250.2c0,.4-.6,1-1.4,1.4-2.4,1.8-5.2,1.2-7.4-1.8s-1.8-6.2.8-8.2c.6-.4,1.2-.8,1.6-.8l1.2,2.2c-.2,0-.6.2-1,.6-1.2.8-1,2.6,0,4.2,1.2,1.8,2.8,2.2,4,1.4.4-.2.6-.6.8-.8l1.6,1.8h-.2Z"/>
        <path class="st5" d="M608.9,244.4c1,1.4,2.4,1.4,3.4.6.8-.6,1.2-1.2,1.6-1.6l1.6,1.6c-.4.8-1.4,1.6-2.2,2.4-2.6,1.8-5.2,1.2-7.4-1.8-2.4-3.2-2-6.2,0-7.8,2-1.4,4.4-.8,6.4,2.2.4.6.8,1,.8,1.4l-4.4,3.2h0l.2-.2ZM609.9,241c-.8-1.2-2-2-2.6-1.4-.8.6-.2,2,.4,3l2.2-1.6h0Z"/>
        <path class="st5" d="M612.9,237.4c-.8-1.2-1.6-2-2.2-3l2.2-1.6,1,1h0c0-1,.2-2,1-2.8,2-1.6,4.6,0,6.4,2.8,2.4,3.4,2,6,.4,7.2-.8.6-1.6.4-2.2.2h0l3.2,4.6-2.6,1.8-7.4-10.2h.2ZM617.7,238.6c.2.4.4.6.8.8.6.4,1,.4,1.4,0,.8-.6.2-2.2-.8-3.6-1.4-1.8-2.4-2.4-3.2-2-.4.2-.4,1-.2,1.4,0,.2.2.6.4.8l1.8,2.6h-.2Z"/>
        <path class="st5" d="M620.5,223.4l1.8,2.6,1.8-1.4,1.4,1.8-1.8,1.4,3.2,4.4c.8,1,1.4,1,2,.6.2,0,.4-.4.6-.6l1.4,2c-.2.4-.8.8-1.4,1.2-.8.6-1.6.8-2.2.8s-1.8-.6-2.8-2.2l-3.2-4.4-1.2.8-1.4-1.8,1.2-.8-1.4-2,2-2.4h0Z"/>
        <path class="st5" d="M637.3,225.2c.8,1,1.6,2,2.2,2.8l-2.2,1.6-.8-1h0c0,1-.4,2-1.4,2.8-1.8,1.4-3.6.4-5.4-2l-4.2-5.8,2.6-1.8,4,5.4c1,1.2,1.8,1.8,2.4,1.4.4-.4.4-.8.4-1.2s-.2-.6-.4-1l-4.4-6,2.6-1.8,4.8,6.6h-.2Z"/>
        <path class="st5" d="M645.5,223.6l-.8-.8h0c0,1.2-.4,2-1.2,2.6-1.4,1-3.4.6-4.6-1-1.8-2.4-.4-5,1.8-6.6h0c-.6-1-1.4-1.2-2.2-.6-.8.6-1.2,1.2-1.6,2l-1.8-1.4c.2-.6,1-2,2.4-2.8,2.8-2,4.8-.4,6.2,1.6l2.6,3.6c.6.8,1.2,1.6,1.8,2l-2.2,1.6h0l-.4-.2ZM641.7,219.2c-.8.6-1.8,1.8-.8,3,.6,1,1.4,1,1.8.6.4-.2.6-.8.4-1.6,0,0,0-.4-.2-.4l-1.2-1.6h0Z"/>
        <path class="st5" d="M639.5,207.4l2.6-1.8,9.8,13.4-2.6,1.8-9.8-13.4Z"/>
        <path class="st5" d="M656.9,210.8l1.6,3.4-2.4,1.8-6.6-15.2,3-2.2,12,11.2-2.4,1.8-2.8-2.6-2.4,1.8h0ZM657.7,207.2l-2.4-2.4c-.8-.8-1.8-2-2.6-2.6h0c.4,1,1.2,2.4,1.8,3.4l1.6,3,1.8-1.4h-.2Z"/>
        <path class="st5" d="M660.9,202.4c-.6-1-1.4-2-2.2-2.8l2.2-1.6,1.2,1.2h0c-.4-1.4,0-2.4.8-3,.2,0,.4-.2.6-.4l1.8,2.6s-.4.2-.6.4c-.6.4-1,1.2-.6,2.4,0,.2.2.6.6,1l3.6,4.8-2.6,1.8-4.8-6.6h0v.2Z"/>
        <path class="st5" d="M665.9,190.4l1.8,2.6,1.8-1.4,1.4,1.8-1.8,1.4,3.2,4.4c.8,1,1.4,1,2,.6.2,0,.4-.4.6-.6l1.4,2c-.2.4-.8.8-1.4,1.2-.8.6-1.6.8-2.2.8s-1.8-.6-2.8-2.2l-3.2-4.4-1.2.8-1.4-1.8,1.2-.8-1.4-2,2-2.4h0Z"/>
      </g>
      <g>
        <path class="st5" d="M546.8,188.3c-1.2-.8-3-2-4.4-3h0c1.2,1.4,2.6,2.8,3.4,3.8l3.8,4.6-1.4,1.8-5.4-2.2c-1.2-.6-3.2-1.4-4.6-2.2h0c1.4,1.2,3,2.4,4.2,3.4l4.4,3.6-1.6,2.2-12.4-10.4,2-2.6,5.6,2.4c2,.8,3.6,1.6,5.2,2.4h0c-1.2-1.2-2.6-2.6-4-4.2l-4-4.4,2-2.6,13.6,8.8-1.6,2.2-4.8-3h0v-.6Z"/>
        <path class="st5" d="M544.2,176.3c.8.6,1,1.6.4,2.4-.4.8-1.6.8-2.2.2-.8-.6-1-1.6-.4-2.2.6-.8,1.4-1,2.4-.2h0l-.2-.2ZM554.4,187.5l-9.6-7,1.8-2.6,9.6,7-1.8,2.6Z"/>
        <path class="st5" d="M551,178.3c-1-.8-2-1.4-3-2l1.6-2.2,1.2.6h0c-.4-1-.2-2.2.4-3.2,1.2-1.8,3.2-1.4,5.4,0l6,4.4-1.8,2.6-6-4.4c-.8-.6-1.8-1-2.2-.2-.2.4-.2,1,0,1.6,0,.2.4.4.8.8l5.8,4.2-1.8,2.6-6.6-4.8h.2Z"/>
        <path class="st5" d="M553.8,162.9c.8.6,1,1.6.4,2.4-.4.8-1.6.8-2.2.2-.8-.6-1-1.6-.4-2.2.6-.8,1.4-1,2.4-.2h0l-.2-.2ZM564,174.3l-9.6-7,1.8-2.6,9.6,7-1.8,2.6Z"/>
        <path class="st5" d="M560.6,165.1c-1-.8-2-1.4-3-2l1.6-2.2,1.2.6h0c-.4-1-.2-2.2.4-3.2.8-1,1.8-1.4,2.8-1.2h0c0-.6-.2-1.2-.2-1.6,0-.6.2-1,.6-1.6,1.2-1.8,3.2-1.4,5.4,0l6,4.4-1.8,2.6-5.6-4c-1-.8-2-1.2-2.6-.6-.4.4-.2,1,0,1.6l.6.6,6,4.4-1.8,2.6-6-4.4c-.8-.4-1.6-1-2.2-.2-.2.4-.2,1,0,1.6l.6.6,6,4.4-1.8,2.6-6.6-4.8h0l.4-.2Z"/>
        <path class="st5" d="M579.8,152.5l-1-.6h0c.4,1,0,2-.4,3-1,1.4-3,1.6-4.8.4-2.4-1.8-2-4.8-.4-7h-.2c-.8-.6-1.6-.6-2.2.2-.6.8-.8,1.6-.8,2.4l-2-.8c0-.8.4-2.2,1.4-3.4,2-2.8,4.4-1.8,6.4-.4l3.6,2.6c.8.6,1.6,1,2.2,1.4l-1.6,2.2h-.2ZM575,149.5c-.6.8-1.2,2.2,0,3.2,1,.6,1.6.4,2,0,.2-.4.4-1,0-1.6l-.4-.4-1.6-1.2Z"/>
        <path class="st5" d="M569.2,138.7l1.8-2.6,13.4,9.8-1.8,2.6-13.4-9.8Z"/>
        <path class="st5" d="M575.8,132.9c.8.6,1,1.6.4,2.4-.4.8-1.6.8-2.2.2-.8-.6-1-1.6-.4-2.2.6-.8,1.4-1,2.4-.2h0l-.2-.2ZM585.8,144.1l-9.6-7,1.8-2.6,9.6,7-1.8,2.6Z"/>
        <path class="st5" d="M586.6,138.3c.4-.2,1.2-.8,1.8-1.4s.4-1.2,0-1.6c-.4-.4-1-.2-2,0-2,1-3.2.6-4.2,0-1.8-1.2-2.2-3.4-.8-5.4.6-.8,1.2-1.2,1.8-1.6l1.6,1.8c-.4.2-1,.6-1.4,1-.4.6-.2,1.2,0,1.6.4.2.8.2,2-.2,1.8-.8,3.2-.6,4.2,0,2,1.4,2,3.6.6,5.6-.6.8-1.4,1.6-2.2,1.8l-1.6-1.8h0l.2.2Z"/>
        <path class="st5" d="M587,128.7c-1-.8-2-1.4-3-2l1.6-2.2,1.2.6h0c-.4-1-.2-2.2.4-3.2.8-1,1.8-1.4,2.8-1.2h0c0-.6-.2-1.2-.2-1.6,0-.6.2-1,.6-1.6,1.2-1.8,3.2-1.4,5.4,0l6,4.4-1.8,2.6-5.6-4c-1-.8-2-1.2-2.6-.6-.4.4-.2,1,0,1.6l.6.6,6,4.4-1.8,2.6-6-4.4c-.8-.4-1.6-1-2.2-.2-.2.4-.2,1,0,1.6l.6.6,6,4.4-1.8,2.6-6.6-4.8h0l.4-.2Z"/>
      </g>
      <g>
        <path class="st5" d="M472,121.6c0-1,.4-2,.8-3.2.6-1.8,1.2-3,2.6-3.8,1-.6,2.4-.6,3.8-.2,1.6.6,2.6,1.4,3.2,2.4.8,1.2.6,3,.2,4.2,0,.2,0,.4-.2.6l5.8,1.8-1,3-15.2-5h0v.2ZM479.8,120.8s0-.2.2-.4c.4-1.6-.4-2.6-1.8-3-1.4-.4-2.6-.2-3,1.2v.8l4.8,1.6h0l-.2-.2Z"/>
        <path class="st5" d="M487.2,106.8c4.6,1.6,5,4.4,4.4,6.2-.8,2.6-3.6,3.6-7.2,2.4-4-1.2-5.2-4-4.4-6.2.8-2.6,3.6-3.6,7-2.4h.2ZM485.4,112.4c2,.6,3.6.8,4-.2s-1.4-1.8-3.2-2.4c-1.6-.4-3.6-.8-4,0-.4,1,1.6,2,3,2.4h0l.2.2Z"/>
        <path class="st5" d="M485.8,104.4c-1.4-.4-2.4-.8-3.6-1l.8-2.6h1.4v.2c-.8-.8-1-1.8-.8-2.8.8-2.4,3.8-2.6,6.8-1.6,4,1.2,5.2,3.6,4.6,5.6-.2,1-1,1.4-1.6,1.4h0l5.2,1.8-1,3-12-4h.2ZM490.2,102.6h1c.8,0,1-.4,1.2-.6.4-1-1-2-2.8-2.4-2.2-.8-3.4-.6-3.8.4,0,.4,0,1,.6,1.4.2,0,.4.2.8.4l3,1v-.2Z"/>
        <path class="st5" d="M495.2,89.2l3.2,1.8-1,3-14.2-8.4,1.2-3.6,16.4,2-1,3-3.8-.4-1,2.8h0l.2-.2ZM493.8,86l-3.4-.6c-1,0-2.6-.4-3.6-.6h0c1,.6,2.4,1.2,3.2,1.8l3,1.6.8-2.2h0Z"/>
        <path class="st5" d="M493.4,80.2c-1-.4-2.4-.8-3.4-1l.8-2.6,1.6.4h0c-1-1-1.4-2-1-2.8,0-.2,0-.4.2-.6l3,1s0,.4-.2.6c-.2.6,0,1.6,1,2.4.2,0,.6.4,1,.4l5.6,1.8-1,3-7.8-2.6h.2Z"/>
        <path class="st5" d="M490.6,67.4l3,1,.8-2.2,2.2.8-.8,2.2,5,1.6c1.2.4,1.8,0,2-.6v-.8l2.4.8c0,.4,0,1.2-.4,2-.2.8-.8,1.6-1.4,2-.8.4-1.8.4-3.6,0l-5.2-1.8-.4,1.4-2.2-.6.4-1.4-2.2-.8v-3.2h.4v-.4Z"/>
      </g>
    </g>
    <g>
      <path class="st10" d="M351.4,383.1l-.7,3h-3.5l3.6-13.5h4.5l3.5,13.5h-3.6l-.7-3h-3.1,0ZM354.1,380.5l-.5-2.5c-.2-.8-.4-2-.6-2.8h0c-.2.8-.4,2-.5,2.8l-.5,2.5h2.2-.1Z"/>
      <path class="st10" d="M360.2,379.5v-3.3h3v1.7h.2c.5-1.4,1.6-1.9,2.4-1.9s.5,0,.7,0v3.3h-.9c-.9,0-1.6.4-1.8,1.2v5.5h-3.5v-6.6h-.1Z"/>
      <path class="st10" d="M372,373.4v2.8h2v2.5h-2v3.1c0,1.1.3,1.6,1.1,1.6s.6,0,.8,0v2.6c-.4.1-1.2.2-2,.2s-1.8-.3-2.3-.8-.9-1.5-.9-3v-3.7h-1.2v-2.5h1.2v-2l3.4-.8h-.1Z"/>
      <path class="st10" d="M382.9,372.6v5.1h3.8v-5.1h3.5v13.5h-3.5v-5.4h-3.8v5.4h-3.5v-13.5h3.5Z"/>
      <path class="st10" d="M395.8,373.5c0,1-.7,1.7-1.8,1.7s-1.7-.7-1.7-1.7.7-1.7,1.7-1.7,1.7.7,1.7,1.7h0ZM392.3,386v-9.8h3.5v9.8h-3.5Z"/>
      <path class="st10" d="M397.9,383.1c.5.3,1.6.7,2.5.7s1-.2,1-.6-.2-.6-1.2-.9c-2-.8-2.6-1.9-2.6-3,0-1.9,1.6-3.4,4-3.4s2.1.2,2.7.5l-.5,2.4c-.4-.2-1.2-.5-2-.5s-.9.2-.9.6.3.5,1.4,1c1.8.7,2.5,1.7,2.5,3,0,1.9-1.5,3.2-4.3,3.2s-2.4-.3-3.1-.6l.6-2.5h-.1Z"/>
      <path class="st10" d="M410,373.4v2.8h2v2.5h-2v3.1c0,1.1.3,1.6,1.1,1.6s.6,0,.8,0v2.6c-.4.1-1.2.2-2,.2s-1.8-.3-2.3-.8-.9-1.5-.9-3v-3.7h-1.2v-2.5h1.2v-2l3.4-.8h-.1Z"/>
      <path class="st10" d="M422.8,381c0,3.8-2.5,5.2-4.9,5.2s-4.9-1.9-4.9-5.1,2-5.2,5-5.2,4.8,2.1,4.8,5h0ZM416.5,381.1c0,1.5.4,2.6,1.4,2.6s1.3-1.1,1.3-2.6-.4-2.6-1.3-2.6-1.4,1.4-1.4,2.6Z"/>
      <path class="st10" d="M424.4,379.5v-3.3h3v1.7h.2c.5-1.4,1.6-1.9,2.4-1.9s.5,0,.7,0v3.3h-.9c-.9,0-1.6.4-1.8,1.2v5.5h-3.5v-6.6h-.1Z"/>
      <path class="st10" d="M435.1,376.2l1.1,4.6c.1.5.3,1.2.4,1.7h0c.1-.5.2-1.1.3-1.6l.8-4.6h3.6l-2.1,6.8c-1.2,3.4-2,4.9-3.1,5.9s-2.2,1.4-3,1.5l-.8-2.9c.4,0,.8-.2,1.2-.5.4-.2.8-.6,1-.9.1-.1.2-.3.2-.4s0-.3-.1-.5l-3.4-9h3.9Z"/>
      <path class="st10" d="M367.3,399.9h-3.2v2h3.6v2.1h-6.2v-10.1h6v2.1h-3.4v1.7h3.2v2.1h0Z"/>
      <path class="st10" d="M369.1,399.1v-2.5h2.2v1.2h.2c.4-1,1.2-1.4,1.8-1.4s.4,0,.5,0v2.5h-.6c-.6,0-1.2.3-1.4.9v4.1h-2.6v-4.9h-.1Z"/>
      <path class="st10" d="M378.6,404v-.7h-.2c-.5.6-1.2.8-1.9.8-1.4,0-2.3-1-2.3-2.3,0-2,1.8-2.8,4-2.8h0c0-.4-.3-.8-1.1-.8s-1.5.2-1.9.5l-.5-1.7c.5-.2,1.5-.6,2.9-.6,2.5,0,3.2,1.5,3.2,3.2v2.5c0,.7,0,1.4.1,1.8h-2.3ZM378.3,400.6c-1,0-1.6.3-1.6,1s.3.8.7.8.7-.2.9-.6v-1.2h0Z"/>
      <path class="st10" d="M382.4,401.9c.4.2,1.2.5,1.9.5s.8-.1.8-.4-.2-.4-.9-.7c-1.5-.6-2-1.4-2-2.2,0-1.4,1.2-2.5,3-2.5s1.5.2,2,.4l-.4,1.8c-.3-.2-.9-.4-1.5-.4s-.7.1-.7.4.2.4,1,.7c1.4.5,1.9,1.3,1.9,2.3s-1.1,2.4-3.2,2.4-1.8-.2-2.3-.5l.4-1.8h0Z"/>
      <path class="st10" d="M387.9,404.6l3-10.9h1.6l-3,10.9h-1.6Z"/>
      <path class="st10" d="M393.5,401.5c.6.3,1.5.5,2.4.5s1.4-.3,1.4-.9-.4-.8-1.5-1.2c-1.7-.7-2.6-1.7-2.6-3s1.4-3.1,3.9-3.1,1.9.2,2.4.5l-.5,2.1c-.4-.2-1-.4-1.9-.4s-1.2.3-1.2.8.4.7,1.7,1.2c1.7.7,2.4,1.7,2.4,3s-1.4,3.2-4.1,3.2-2.2-.3-2.7-.5l.5-2.2h-.2Z"/>
      <path class="st10" d="M403.9,394.6v2.1h1.5v1.9h-1.5v2.4c0,.9.2,1.2.8,1.2h.6v2c-.3.1-.9.2-1.5.2s-1.4-.2-1.8-.6c-.5-.4-.7-1.1-.7-2.3v-2.8h-.9v-1.9h.9v-1.5l2.5-.6h.1Z"/>
      <path class="st10" d="M408.7,396.7l.8,3.4c0,.4.2.9.3,1.2h0c0-.4.1-.9.2-1.2l.6-3.4h2.7l-1.6,5.1c-.9,2.5-1.5,3.7-2.3,4.5s-1.7,1-2.3,1.1l-.6-2.2c.3,0,.6-.2.9-.3s.6-.4.8-.7c0-.1.1-.2.1-.3v-.4l-2.5-6.8h2.9Z"/>
      <path class="st10" d="M414.2,393.5h2.6v10.6h-2.6v-10.6Z"/>
      <path class="st10" d="M420.4,401.3c0,.6.8,1,1.8,1s1.3,0,1.9-.3l.3,1.8c-.8.3-1.7.4-2.6.4-2.5,0-3.8-1.4-3.8-3.7s1.2-4,3.6-4,3.2,1.6,3.2,3.7,0,.9,0,1.1h-4.4ZM422.4,399.5c0-.5-.2-1.3-1-1.3s-1,.8-1,1.3h2Z"/>
      <path class="st10" d="M426,401.9c.4.2,1.2.5,1.9.5s.8-.1.8-.4-.2-.4-.9-.7c-1.5-.6-2-1.4-2-2.2,0-1.4,1.2-2.5,3-2.5s1.5.2,2,.4l-.4,1.8c-.3-.2-.9-.4-1.5-.4s-.7.1-.7.4.2.4,1,.7c1.4.5,1.9,1.3,1.9,2.3s-1.1,2.4-3.2,2.4-1.8-.2-2.3-.5l.4-1.8h0Z"/>
      <path class="st10" d="M360,414.3h0l-1.8.9-.4-1.7,2.5-1.2h1.8v9.8h-2.1v-7.8h0Z"/>
      <path class="st10" d="M365.7,420.4h1c.6,0,1.2-.2,1.7-.6.6-.4,1-1.1,1.1-1.9h0c-.4.4-1,.7-1.8.7-1.5,0-2.8-1.1-2.8-3s1.4-3.5,3.4-3.5,3.4,1.8,3.4,4.1-.7,3.6-1.7,4.6-2,1.2-3.3,1.3h-1v-1.7h0ZM367,415.5c0,.9.4,1.6,1.2,1.6s.9-.3,1.1-.6c0-.1.1-.3.1-.7,0-1.1-.4-2-1.3-2s-1.2.7-1.2,1.7h0Z"/>
      <path class="st10" d="M378.5,413.9h-.9c-1.8.2-2.6,1.2-2.9,2.4h0c.5-.5,1.1-.8,1.9-.8,1.5,0,2.8,1.2,2.8,3.1s-1.3,3.5-3.4,3.5-3.6-1.8-3.6-4.2.7-3.4,1.7-4.4c.9-.8,2-1.3,3.4-1.4h.9v1.7h.1ZM377.3,418.8c0-.9-.4-1.7-1.3-1.7s-1,.3-1.2.8c0,.1-.1.3-.1.7,0,1.1.5,2,1.4,2s1.2-.8,1.2-1.8h0Z"/>
      <path class="st10" d="M387.2,417.1c0,3.1-1.2,5.1-3.5,5.1s-3.4-2.3-3.4-5,1.1-5,3.5-5,3.4,2.4,3.4,5h0ZM382.5,417.2c0,2.2.5,3.3,1.3,3.3s1.2-1.1,1.2-3.3-.4-3.3-1.2-3.3-1.3,1-1.3,3.3h0Z"/>
      <path class="st10" d="M388.5,420.1c.4.2,1.1.5,1.8.5s.9-.2.9-.6-.2-.6-1-.9c-1.4-.5-1.9-1.4-1.9-2.2,0-1.4,1.1-2.4,2.8-2.4s1.5.2,1.9.4l-.4,1.5c-.3-.2-.9-.4-1.4-.4s-.8.2-.8.6.3.5,1.1.9c1.3.5,1.8,1.2,1.8,2.2s-1.1,2.4-3,2.4-1.7-.2-2.2-.5l.4-1.6h0Z"/>
      <path class="st10" d="M400.6,417.3v1.5h-3.6v-1.5h3.6Z"/>
      <path class="st10" d="M404.8,422v-10.1h2.4l1.9,3.8c.5,1,1.1,2.2,1.5,3.3h0c-.1-1.3-.2-2.7-.2-4.4v-2.7h2v10.1h-2.2l-2-3.9c-.5-1-1.1-2.3-1.5-3.4h0c0,1.2.1,2.7.1,4.5v2.8h-2,0Z"/>
      <path class="st10" d="M422.6,416.9c0,3.5-1.8,5.3-4.5,5.3s-4.3-2.3-4.3-5.2,1.7-5.2,4.5-5.2,4.3,2.4,4.3,5.1h0ZM416.2,417c0,2.1.8,3.4,2.1,3.4s2-1.5,2-3.5-.7-3.4-2-3.4-2.1,1.4-2.1,3.4h0Z"/>
      <path class="st10" d="M425.5,422l-2.2-10.1h2.3l.7,4.1c.2,1.2.4,2.5.5,3.5h0c.2-1.1.4-2.3.6-3.6l.8-4.1h2.2l.8,4.2c.2,1.2.4,2.3.5,3.4h0c.1-1.2.3-2.3.5-3.5l.7-4.1h2.2l-2.4,10.1h-2.3l-.8-4c-.2-1-.4-2-.5-3.2h0c-.2,1.2-.3,2.2-.6,3.2l-.9,4h-2.3.2Z"/>
    </g>
    <g>
      <path class="st10" d="M398,210.3v7.8h4.9v-8.8h5.1v15.1h-24.7v-14.7h5.1v8.3h4.2v-7.8h5.4Z"/>
      <path class="st10" d="M396.1,205.9h-6.1v-5.4h2.9v-.5c-2.4-1-3.4-2.9-3.4-4.4s0-1,0-1.2h6.1v1.5c0,1.5.7,2.9,2.2,3.4h10v6.4h-12l.2.2Z"/>
      <path class="st10" d="M408,182.7h-1.7v.5c1.5,1.2,2,2.9,2,4.6,0,3.4-2.4,5.6-5.6,5.6-4.9,0-6.8-4.4-6.8-9.8h0c-1,0-2,.7-2,2.7s.5,3.7,1.2,4.6l-4.2,1.2c-.5-1.2-1.5-3.7-1.5-7.1,0-6.1,3.7-7.8,7.8-7.8h6.1c1.7,0,3.4,0,4.4-.2v5.6h.2ZM399.7,183.4c0,2.4.7,3.9,2.4,3.9s2-.7,2-1.7-.5-1.7-1.5-2.2h-2.9Z"/>
      <path class="st10" d="M402.9,173.4c.5-1,1.2-2.9,1.2-4.6s-.2-2-1-2-1,.5-1.7,2.2c-1.5,3.7-3.4,4.9-5.4,4.9-3.4,0-6.1-2.9-6.1-7.3s.5-3.7,1-4.9l4.4,1c-.5.7-1,2.2-1,3.7s.2,1.7,1,1.7,1-.5,1.7-2.4c1.2-3.4,3.2-4.6,5.6-4.6s5.9,2.7,5.9,7.8-.5,4.4-1.2,5.6l-4.4-1h0Z"/>
      <path class="st10" d="M409.5,159.9l-26.6-7.3v-3.9l26.6,7.3v3.9Z"/>
      <path class="st10" d="M401.9,146.3c.7-1.5,1.2-3.7,1.2-5.9s-.7-3.4-2.2-3.4-2,1-2.9,3.7c-1.7,4.2-4.2,6.4-7.3,6.4s-7.6-3.4-7.6-9.5.5-4.6,1.2-5.9l5.1,1.2c-.5,1-1,2.4-1,4.6s.7,2.9,2,2.9,1.7-1,2.9-4.2c1.7-4.2,4.2-5.9,7.3-5.9s7.8,3.4,7.8,10-.7,5.4-1.2,6.6l-5.4-1.2h0v.5Z"/>
      <path class="st10" d="M385.1,120.9h5.1v-3.7h4.6v3.7h5.9c2.2,0,2.9-.5,2.9-2v-1.5h4.9c.2.7.5,2.2.5,3.7s-.5,3.4-1.5,4.4c-1,1.2-2.7,1.7-5.6,1.7h-6.8v2.2h-4.6v-2.2h-3.7l-1.5-6.1h0l-.2-.2Z"/>
      <path class="st10" d="M390.2,109.1l8.3-2c1,0,2.2-.5,2.9-.7h0c-1,0-2.2-.2-2.9-.5l-8.3-1.5v-6.6l12.5,3.9c6.1,2.2,9,3.7,11,5.6s2.4,4.2,2.7,5.6l-5.4,1.5c0-.7-.5-1.5-.7-2.2s-1-1.5-1.7-2c-.2,0-.5-.2-.7-.2h-1l-16.6,6.1v-7.1h0Z"/>
      <path class="st10" d="M382.4,95.7v-6.4h25.9v6.4h-25.9Z"/>
      <path class="st10" d="M401.4,80.6c1.5,0,2.4-2,2.4-4.4s0-3.2-.7-4.6l4.4-.7c.7,2,1,4.2,1,6.4,0,6.1-3.4,9.3-9,9.3s-9.8-2.9-9.8-8.8,3.9-7.8,9-7.8,2.2,0,2.7,0v10.7ZM397,75.7c-1.2,0-3.2.5-3.2,2.4s2,2.4,3.2,2.4v-4.9Z"/>
      <path class="st10" d="M402.9,66.9c.5-1,1.2-2.9,1.2-4.6s-.2-2-1-2-1,.5-1.7,2.2c-1.5,3.7-3.4,4.9-5.4,4.9-3.4,0-6.1-2.9-6.1-7.3s.5-3.7,1-4.9l4.4,1c-.5.7-1,2.2-1,3.7s.2,1.7,1,1.7,1-.5,1.7-2.4c1.2-3.4,3.2-4.6,5.6-4.6s5.9,2.7,5.9,7.8-.5,4.4-1.2,5.6l-4.4-1h0Z"/>
    </g>
    <g>
      <path class="st7" d="M367.8,38.5l-.5-6.6h1.3l1.7,2.6c.4.7.9,1.4,1.2,2.1h0c-.1-.9-.2-1.8-.3-2.8l-.2-2.2h1.1l.5,6.6h-1.2l-1.8-2.7c-.4-.7-.9-1.5-1.2-2.2h0c.1.8.2,1.7.3,2.9l.2,2.2h-1.1Z"/>
      <path class="st7" d="M379,34.3c.1,2.3-1,3.6-2.7,3.7-1.7,0-2.8-1.3-2.9-3.2-.1-2,.9-3.5,2.7-3.6,1.8-.1,2.8,1.3,2.9,3.2h0ZM374.6,34.7c0,1.4.7,2.4,1.7,2.4s1.5-1.2,1.4-2.6c0-1.2-.6-2.4-1.7-2.4s-1.5,1.2-1.4,2.6h0Z"/>
      <path class="st7" d="M381,37.7l-1.7-6.6h1.2l.7,2.9c.2.8.3,1.6.5,2.3h0c0-.7.2-1.5.4-2.4l.6-3h1.2l.7,2.9c.2.8.3,1.5.5,2.3h0c0-.8.2-1.5.3-2.3l.5-3h1.2l-1.4,6.7h-1.2l-.7-2.9c-.2-.7-.3-1.4-.4-2.1h0c0,.7-.2,1.4-.4,2.2l-.6,3h-1.4Z"/>
      <path class="st7" d="M394,29.2l.2,10.9h-.9l-.2-10.9s.9,0,.9,0Z"/>
      <path class="st7" d="M401.6,31.5h0l-1.3.6-.2-1,1.7-.8h1.1v7.1h-1.3v-5.9h.1-.1Z"/>
      <path class="st7" d="M405.5,36.5h.7c.5,0,.9-.2,1.3-.5s.8-.9.9-1.6h0c-.3.3-.8.6-1.4.5-1.1,0-2-.9-1.9-2.2,0-1.3,1-2.5,2.5-2.4,1.5,0,2.3,1.4,2.2,3,0,1.5-.6,2.6-1.3,3.3-.6.5-1.4.8-2.2.9h-.8v-1h0ZM406.3,32.8c0,.8.4,1.3,1,1.3s.8-.2,1-.5v-.5c0-1-.3-1.8-1-1.8s-1.1.5-1.1,1.4h.1Z"/>
      <path class="st7" d="M414.7,31.7h-.6c-1.4.1-2,1-2.3,2h0c.3-.4.8-.6,1.5-.6,1.1,0,2,1,1.9,2.4,0,1.3-1,2.5-2.4,2.4-1.6,0-2.4-1.4-2.3-3.1,0-1.4.6-2.5,1.3-3.1.6-.6,1.4-.9,2.3-.9h.7v1h-.1ZM413.9,35.5c0-.8-.3-1.4-1-1.4s-.9.2-1.1.7c0,0,0,.2-.1.5,0,1,.4,1.8,1.1,1.8s1-.5,1.1-1.4v-.2Z"/>
      <path class="st7" d="M420.6,34.6c-.1,2.4-1.1,3.6-2.6,3.5-1.5,0-2.2-1.7-2.1-3.8.1-2.2,1.1-3.6,2.6-3.5,1.6.1,2.2,1.7,2.1,3.7h0ZM417.2,34.5c-.1,1.7.2,2.6.9,2.7.7,0,1.1-.9,1.2-2.6.1-1.6-.2-2.6-.9-2.7-.7,0-1.1.8-1.2,2.6h0Z"/>
      <path class="st7" d="M421.4,37.1c.2.2.8.4,1.2.4s.8-.2.8-.5-.2-.6-.7-.9c-.9-.5-1.3-1-1.2-1.6,0-.9.9-1.6,2-1.5.5,0,1,.2,1.3.4l-.3.9c-.2,0-.6-.3-1-.3s-.7.2-.7.5.2.5.8.8c.9.4,1.2,1,1.2,1.7,0,1-.9,1.6-2.1,1.5-.6,0-1.1-.2-1.4-.5l.3-.9h-.2Z"/>
    </g>
    <g class="st9">
      <g>
        <path class="st4" d="M344.5,37c16.8-2.4,34-3.6,51.5-3.6s34.6,1.2,51.4,3.6"/>
        <path class="st7" d="M338.5,37.9c3,.7,6.7,2,9.1,3.5l-2.4-4.5,1.1-4.9c-1.9,2.2-5.1,4.5-7.8,5.9h0Z"/>
        <path class="st7" d="M453.4,37.9c-3,.7-6.7,2-9.1,3.5l2.4-4.5-1.1-4.9c1.9,2.2,5.1,4.4,7.8,5.9h0Z"/>
      </g>
    </g>
  </g>
</svg>