<?xml version="1.0" encoding="UTF-8"?>
<svg id="Layer_2" xmlns="http://www.w3.org/2000/svg" version="1.1" viewBox="0 0 1440 813.8">
  <!-- Generator: Adobe Illustrator 29.8.1, SVG Export Plug-In . SVG Version: 2.1.1 Build 2)  -->
  <defs>
    <style>
      .st0 {
        fill: #ffc98e;
      }

      .st1 {
        fill: #b152f2;
      }

      .st2 {
        isolation: isolate;
      }

      .st3 {
        fill: #ffca9c;
      }

      .st4 {
        fill: #ffa23d;
      }

      .st5 {
        fill: #318e16;
      }

      .st6 {
        fill: #ff4800;
      }

      .st7 {
        fill: #008eb6;
      }
    </style>
  </defs>
  <g id="Matisse_Front">
    <rect class="st3" width="1440" height="813.8"/>
    <g>
      <rect class="st0" x="653.4" y="131" width="128.8" height="128.8" transform="translate(72.1 564.8) rotate(-45)"/>
      <g>
        <g>
          <path class="st1" d="M789,204.6c7-11.1,16.4-20.6,27.3-27.7.2,1.9.5,3.9.7,5.9,2.3-1.8,5-3,7.8-3.5.2,1.2.3,2.4.1,3.6,1-1.8,4.1-.2,4,1.8s-1.7,3.6-3.3,4.8c-9.1,6.8-12.5,11.9-26.3,21.9l-10.4-6.8h0Z"/>
          <path class="st4" d="M727.8,280.2c-1.1-1.1-.9-3-.2-4.4,13.2-24.8,38.5-48.7,57.9-69.1.8-.8,1.5-1.6,2.6-1.9,1.6-.4,3.2.4,4.6,1.2,1.7,1,3.4,2,5.1,2.9,2.1,1.2,2.6,4,1.1,5.9-19.8,25.2-36.8,39.9-65.6,66.3-1.4,1.3-3.7.9-5-.5l-.5-.5h0Z"/>
        </g>
        <g>
          <path class="st7" d="M651,181.5c-7,11.1-16.4,20.6-27.3,27.7-.2-1.9-.5-3.9-.7-5.9-2.3,1.8-5,3-7.8,3.5-.2-1.2-.3-2.4-.1-3.6-1,1.8-4.1.2-4-1.8s1.7-3.6,3.3-4.8c9.1-6.8,12.5-11.9,26.3-21.9l10.4,6.8h0Z"/>
          <path class="st4" d="M712.2,105.9c1.1,1.1.9,3,.2,4.4-13.2,24.8-38.5,48.7-57.9,69.1-.8.8-1.5,1.6-2.6,1.9-1.6.4-3.2-.4-4.6-1.2-1.7-1-3.4-2-5.1-2.9-2.1-1.2-2.6-4-1.1-5.9,19.8-25.2,36.8-39.9,65.6-66.3,1.4-1.3,3.7-.9,5,.5l.5.4h0Z"/>
        </g>
        <g>
          <path class="st5" d="M731.8,123.6c-11.1-7-20.6-16.4-27.7-27.3,2-.2,3.9-.5,5.9-.7-1.8-2.3-3-5-3.5-7.8,1.2-.2,2.4-.3,3.6-.1-1.8-1-.2-4.1,1.8-4s3.5,1.7,4.8,3.3c6.8,9.1,11.9,12.5,21.9,26.3l-6.8,10.4h0Z"/>
          <path class="st4" d="M807.4,184.8c-1.1,1.1-3,.9-4.4.1-24.8-13.2-48.7-38.5-69.1-57.9-.8-.8-1.6-1.6-1.9-2.6-.4-1.6.4-3.2,1.2-4.6,1-1.7,2-3.4,3-5.1,1.2-2.1,4-2.6,5.9-1.1,25.2,19.8,39.9,36.8,66.3,65.6,1.3,1.4.9,3.7-.5,5l-.5.5h0Z"/>
        </g>
        <g>
          <path class="st6" d="M708.8,263c11.1,7,20.6,16.4,27.7,27.4-2,.2-3.9.5-5.9.7,1.8,2.3,3,5,3.5,7.8-1.2.2-2.4.3-3.6.1,1.8,1,.2,4.1-1.8,4s-3.5-1.7-4.8-3.4c-6.8-9.1-11.9-12.5-21.9-26.3l6.8-10.4h0Z"/>
          <path class="st4" d="M633.2,201.9c1.1-1.1,3-.9,4.4-.1,24.8,13.2,48.7,38.5,69.1,57.9.8.8,1.6,1.5,1.9,2.6.4,1.6-.4,3.2-1.2,4.6-1,1.7-2,3.4-3,5.1-1.2,2.1-4,2.6-5.9,1.1-25.2-19.8-39.9-36.8-66.3-65.6-1.3-1.4-.9-3.7.5-5l.5-.5h0Z"/>
        </g>
      </g>
      <g class="st2">
        <g class="st2">
          <path d="M680.1,177.4c-.4-.4-.6-.8-.6-1.3s.1-.8.4-1.1.5-.4.7-.4,1,.3,2.3.8c1.3.6,2.5.8,3.6.8,2.3,0,3.4-.8,3.4-2.3,0-.9-.4-1.7-1.2-2.2-.6-.4-1.8-.9-3.7-1.6-1.9-.7-3.2-1.5-4.1-2.3s-1.3-1.9-1.3-3.3c0-2.6,1.3-4.3,3.9-5.1.9-.3,1.9-.4,2.9-.4h.5c1.3,0,2.6.3,3.8.8,1.3.5,1.9,1.1,1.9,1.8s0,.8-.3,1.1c-.2.3-.5.5-.8.5s-.8-.3-2.2-.9c-.8-.3-1.9-.5-3.2-.5s-1.5.2-2,.7c-.6.4-.8.9-.8,1.5,0,.9.4,1.6,1.2,2.2.4.2,1.5.7,3.3,1.4,1.8.7,3.1,1.3,3.9,2s1.2,1.3,1.5,1.9c.3.6.4,1.2.4,1.9v.5c0,1.6-.6,3-1.9,4-1.3,1-2.9,1.5-4.9,1.5s-3.5-.2-4.6-.7c-1.1-.4-1.8-.8-2.2-1.2Z"/>
        </g>
        <g class="st2">
          <path d="M704.9,177.7c0,.8-.9,1.2-2.6,1.2s-3-.6-3.7-1.7c-.6-.9-.8-2.7-.8-5.4v-1.5s0-.3,0-.3v-.9c0-.7,0-1.1-.2-1.3,0-.2-.4-.4-.9-.7-.5-.3-.7-.6-.7-1v-.3c0-.7.3-1.2.8-1.5.6-.3.9-.5,1-.7,0,0,0-.4.2-1.2.1-.8.3-1.3.5-1.6.2-.3.6-.4,1.3-.4s1.1.2,1.3.6c0,.1.2.6.3,1.5.1.8.3,1.3.5,1.6.2.2.6.4,1.3.5.7.1,1.1.3,1.3.4.2.1.3.4.3.9s-.2.8-.7,1c-.2,0-.6.1-1.2.2-.6,0-1.1.2-1.3.5-.2.3-.3,1.1-.3,2.6v.3c0,.2,0,.4,0,.6v.3s0,.6,0,.6c0,1.9.1,3,.4,3.4.3.4.7.6,1.4.7.7,0,1.1.2,1.4.4.3.2.4.6.4,1.1Z"/>
          <path d="M720.9,176.5c0,.9-.2,1.5-.5,1.8-.4.3-.8.4-1.3.4s-.9,0-1.1-.1-.4-.2-.6-.4c-.2-.2-.3-.3-.3-.3s-.5.2-1.5.6c-.9.4-1.9.6-2.8.6s-1.8-.2-2.5-.6c-1.4-.7-2.2-2.1-2.4-4,0-.6,0-2.4,0-5.3v-2.9s0-.3,0-.3c0-.6.4-1,1.3-1h.3c.9,0,1.5.4,1.7,1.1,0,.3.1,1.7.1,4.3s.1,4.2.4,4.8c.4.9,1.1,1.3,2.2,1.3s1.2-.1,1.7-.4c.5-.3.8-.6,1-1,.4-.7.6-2,.6-3.9v-.7s0-1.1,0-1.1c0-1.8.1-2.9.3-3.3.3-.5.9-.8,2-.8s.9.3,1,.9c0,.3.1,1.3.1,2.8l.2,7v.7Z"/>
          <path d="M737.3,177.1h0c0,1.1-.6,1.6-1.8,1.6s-.9,0-1-.1c-.2,0-.3-.2-.5-.4-.2-.2-.3-.3-.4-.3s-.3,0-.6.3c-1,.6-2,.9-3,.9h-.3c-1.7,0-3.1-.6-4.1-1.7-1-1.1-1.5-2.7-1.5-4.7v-.7c0-1.1.2-2.2.5-3.2.6-1.8,1.6-3,3.1-3.7.7-.3,1.4-.5,2.2-.5s1.4,0,1.9.2c.5.1.8.2,1,.2.3,0,.5-.2.6-.6.2-.9.3-1.9.3-3.1s.1-2,.4-2.3c.3-.4.6-.5,1.1-.5h.6c.7,0,1.1.1,1.3.4,0,.2.1.6.1,1.2v.3c0,.2,0,.5,0,.8v2.1s0,1.3,0,1.3v.3s0,3.6,0,3.6v.7s0,2.3,0,2.3v2.6s0,.9,0,.9v1.3s0,.9,0,.9ZM727.4,171.7v.4c0,1.4.2,2.4.7,3.1.6.9,1.3,1.3,2.2,1.3h.6c1,0,1.8-.4,2.4-1.3.3-.5.5-1.5.5-2.9v-1.5c0-1.3-.2-2.2-.6-2.7-.5-.7-1.3-1-2.3-1h-.1c-2.1,0-3.1,1.5-3.1,4.5Z"/>
          <path d="M743.2,179h-.4c-.7,0-1.1,0-1.3-.3-.3-.3-.4-.8-.4-1.6s0-1.5.1-2.1c0-.6.1-1,.1-1.1v-.4c0-.1,0-.2,0-.4v-.4s0-1.9,0-1.9v-.6s0-.7,0-.7v-.6c0-.1,0-.2,0-.4v-.4s-.4-2.2-.4-2.2v-.3c0-.4,0-.7.3-.8.2-.1.6-.2,1.2-.2h.6c.9,0,1.4.2,1.6.7,0,.3.1,1.5.1,3.7s0,3.5,0,3.8.1.9.3,1.6c.1.7.2,1.3.2,1.5v.3s0,.5,0,.5c0,.9-.1,1.4-.4,1.6-.3.2-.9.3-1.8.3ZM741.3,160.1c0-.2.1-.4.4-.7.2-.2.6-.3,1.1-.3h.4s.3,0,.3,0h0s.5,0,.5,0c0,0,0,0,.1,0,.7,0,1,.4,1,1.1v.4s0,.3,0,.3v.3s0,.3,0,.3c0,.7-.6,1.1-1.9,1.1h-.2s-.5,0-.5,0c0,0,0,0-.1,0-.7,0-1-.3-1-1,0,0,0-.2,0-.2v-.3s0-.5,0-.5c0-.1,0-.3,0-.5Z"/>
          <path d="M762.3,171.2v1c0,1-.2,1.9-.5,2.9-.3.9-.7,1.7-1.3,2.3-.5.6-1.2,1-2.1,1.4s-1.8.6-2.8.6h-.8c-2,0-3.6-.7-4.8-2-1.1-1.2-1.6-2.8-1.6-4.9v-1c0-1,.2-2,.5-2.9.3-.9.8-1.6,1.3-2.2s1.3-1,2.2-1.3,1.9-.5,2.9-.5h.3c.9,0,1.8.2,2.6.5,1.7.6,2.9,1.8,3.5,3.4.3.8.5,1.7.5,2.7ZM755,176.6h.6c1.1,0,1.8-.4,2.4-1.2.5-.8.8-1.8.8-3.2v-.7c0-1.3-.3-2.4-.8-3.2-.6-.8-1.3-1.2-2.3-1.2h-.4c-1,0-1.7.4-2.3,1.1-.6.7-.9,1.8-.9,3.1v.9c0,1.3.3,2.3.8,3.1.5.8,1.3,1.2,2.2,1.2Z"/>
        </g>
        <g class="st2">
          <path d="M673.7,189.4c1.1,0,1.8,0,2.1.2.3.1.4.5.4,1.1s-.2,1-.6,1.3c-.4.2-1.2.4-2.6.4s-2.2.3-2.5.8c-.3.5-.4,2.4-.4,5.7v6.3c-.1,2.1-.2,3.3-.3,3.7-.1.3-.7.5-1.6.5h-.7c-.5,0-.8-.1-1-.4s-.2-.9-.2-2v-.3c0-.2,0-.5,0-.7v-.7c0-1.6.1-2.5.1-2.8v-1.8s0-.7,0-.7v-.3s0-.7,0-.7c0-3.2,0-5-.2-5.4-.1-.4-.3-.7-.5-.8-.2-.1-.7-.2-1.5-.2h-2.1c-1.2,0-1.7-.5-1.7-1.5v-.3c0-.5.2-.8.5-.9.3-.1,1.1-.2,2.3-.2h2.5c0,0,.4,0,.4,0,.2,0,.5,0,.7,0h.4c.3,0,.5,0,.7,0h1.9s3.7,0,3.7,0Z"/>
        </g>
        <g class="st2">
          <path d="M684,203.2c-3.1,0-4.7.3-4.7.9s.3,1.4.9,1.9c.6.5,1.4.7,2.3.7s1.8-.1,2.7-.4c.9-.2,1.4-.4,1.7-.4s.6.1.8.4c.2.2.3.6.3,1.1s-.5.9-1.6,1.4-2.1.7-3.3.7h-1.1c-.8,0-1.7-.2-2.6-.5-1.8-.6-3-1.8-3.5-3.5-.3-.9-.4-1.9-.4-2.8v-.7c0-3.4,1.2-5.6,3.7-6.6.9-.4,2-.6,3.2-.6,2,0,3.5.5,4.6,1.5.4.4.8,1,1.1,1.8.3.8.5,1.5.5,2.1v.9c0,.8-.3,1.3-.9,1.6-.6.2-1.8.4-3.7.4ZM685.2,200.1v-.2c0-.7-.3-1.3-.8-1.7-.5-.4-1.1-.6-1.8-.6h-.4c-.8,0-1.5.3-2.1.8-.6.5-.9,1.2-.9,2v.2c0,.3.3.4.9.4h.8s3.1-.2,3.1-.2h.3c.5,0,.8-.2.8-.7Z"/>
        </g>
        <g class="st2">
          <path d="M703.8,207c0,.7,0,1.3-.2,1.5-.2.3-.7.4-1.6.4s-1.4-.1-1.5-.4c-.1-.2-.2-.9-.2-2.1v-1.6c0-.7,0-1.4,0-2.2,0-2-.2-3.3-.5-3.9-.3-.7-.8-1-1.5-1-1.3,0-2.1.5-2.6,1.4-.3.6-.4,2.1-.4,4.7s-.1,4-.3,4.3c-.3.5-1,.8-1.9.8s-.6-.1-.8-.4c-.2-.3-.3-.9-.3-1.8v-.5s0-2.8,0-2.8c0-4.5,0-7,.2-7.4.2-.4.7-.6,1.5-.6s.6,0,1,.3.8.3,1,.3.7-.1,1.5-.4c.8-.3,1.6-.4,2.3-.4s1.6.2,2.6.7c1,.5,1.6.7,1.6.7s.3-.1.7-.3l.9-.5c.7-.4,1.5-.5,2.4-.5s1.6.2,2.2.6c.6.4,1.1.9,1.5,1.6.5,1,.8,3,.8,6.1v2.2s0,1.6,0,1.6c0,.7,0,1.2-.3,1.5s-.5.5-1,.5-.9-.1-1.3-.3c-.4-.2-.7-.6-.8-1.3-.2-.6-.3-2-.3-4s-.1-3.4-.4-4c-.4-.9-1-1.3-2-1.3s-1.6.3-1.9.9-.4,1.8-.4,3.6v2.1s0,.5,0,.5c0,.4,0,.9,0,1.7Z"/>
        </g>
        <g class="st2">
          <path d="M723.1,209.5c-.7,0-1.2,0-1.6-.1-.3,0-.7-.2-1-.3-.3-.1-.5-.2-.6-.2-.5,0-.7,1.3-.7,3.8s-.1,1.5-.4,1.8c-.3.3-.7.5-1.4.5h-.3c-.7,0-1.1-.1-1.2-.4-.1-.3-.2-1.3-.2-3.1v-.6s0-1.3,0-1.3v-3.8c0,0,0-5.1,0-5.1,0-3,0-4.6,0-4.7.1-.5.8-.7,1.9-.7s.8.1,1.1.4c.3.3.5.4.6.4s.4-.1.8-.3c1-.5,2-.8,2.9-.8,2.8,0,4.7,1.2,5.5,3.6.3.9.5,1.9.5,2.9v.7c0,1-.1,2-.4,2.9-.6,2-1.7,3.3-3.3,3.9-.8.3-1.5.4-2.2.4ZM725.6,201.8c0-1.4-.2-2.3-.6-3-.6-.9-1.3-1.3-2.2-1.3h-.6c-1.1,0-1.9.4-2.5,1.3-.3.5-.5,1.4-.5,2.8v1.6h0c0,.1,0,.5,0,.5v.7c0,.7.3,1.3.7,1.8.4.5,1,.7,1.8.7h.4c1,0,1.8-.4,2.4-1.1.6-.7,1-1.6,1-2.7v-.3s0-.6,0-.6v-.4Z"/>
          <path d="M737.4,207.2v.6c0,.7-.1,1.1-.4,1.2-.3.2-.8.2-1.5.2h-.8c-1.4,0-2.1-1.1-2.1-3.2v-1.1c.1-.3.1-.4.1-.4v-.4c.1-.5.1-1.1.1-1.8v-2.5s0-1.5,0-1.5v-.8s0-1.5,0-1.5v-.5s0-1.5,0-1.5v-.5c0-.8,0-1.4-.1-2,0-.6-.1-1.1-.1-1.6s0-.8.3-.9c.2-.2.6-.3,1.1-.3h.8c.9,0,1.4.3,1.5.9,0,.3,0,1.4,0,3.5v.3c0,.2,0,.3,0,.5v.3c0,.2,0,.3,0,.5v.8s0,1,0,1v.3s0,1.3,0,1.3v.3s0,1.3,0,1.3v.8s0,1.5,0,1.5v1c0,.7.2,1.6.6,2.6.4,1.1.5,1.7.5,1.9Z"/>
        </g>
        <g class="st2">
          <path d="M749.2,199.5c0-1.4-.9-2-2.7-2s-1.5.1-2.5.4c-1,.2-1.6.4-1.9.4s-.5-.1-.7-.4c-.2-.3-.3-.6-.3-.9,0-.6.4-1.1,1.2-1.5,1.1-.5,2.4-.7,3.9-.7h.4c2.5,0,4.3.7,5.3,2,.4.5.7,1.1.8,1.9.1.7.2,2,.2,3.8s0,3,.2,3.7.2,1.3.2,1.8,0,.8-.3,1-.6.3-1.2.3-1.1,0-1.3-.2-.5-.3-.7-.5c-.2-.2-.4-.3-.5-.3s-.7.2-1.7.6-1.8.6-2.6.6h-.3c-1.4,0-2.5-.4-3.3-1.2-.8-.8-1.2-1.8-1.2-2.9v-.7c0-.5.2-1.1.5-1.7.9-1.5,3-2.4,6.3-2.5,1.2,0,1.8-.1,2-.2.2,0,.2-.3.2-.7ZM743.9,205.1c0,.5.2.9.7,1.2s1,.5,1.6.5h.4c1,0,1.7-.3,2.3-1,.2-.3.4-.9.4-1.8v-.2s0-.3,0-.3c0-.6-.3-.9-1-.9h-1.2c-1.1,0-1.9.2-2.5.5-.6.3-.9.8-.9,1.3v.5c0,.1,0,.2,0,.3Z"/>
          <path d="M764.9,208c0,.8-.9,1.2-2.6,1.2s-3-.6-3.7-1.7c-.6-.9-.8-2.7-.8-5.4v-1.5s0-.3,0-.3v-.9c0-.7,0-1.1-.2-1.3,0-.2-.4-.4-.9-.7-.5-.3-.7-.6-.7-1v-.3c0-.7.3-1.2.8-1.5.6-.3.9-.5,1-.7,0,0,0-.4.2-1.2.1-.8.3-1.3.5-1.6s.6-.4,1.3-.4,1.1.2,1.3.6c0,.1.2.6.3,1.5.1.8.3,1.3.5,1.6.2.2.6.4,1.3.5.7.1,1.1.3,1.3.4.2.1.3.4.3.9s-.2.8-.7,1c-.2,0-.6.1-1.2.2-.6,0-1.1.2-1.3.5-.2.3-.3,1.1-.3,2.6v.3c0,.2,0,.4,0,.6v.3s0,.6,0,.6c0,1.9.1,3,.4,3.4.3.4.7.6,1.4.7.7,0,1.1.2,1.4.4s.4.6.4,1.1Z"/>
        </g>
        <g class="st2">
          <path d="M775.7,203.2c-3.1,0-4.7.3-4.7.9s.3,1.4.9,1.9c.6.5,1.4.7,2.3.7s1.8-.1,2.7-.4c.9-.2,1.4-.4,1.7-.4s.6.1.8.4c.2.2.3.6.3,1.1s-.5.9-1.6,1.4-2.1.7-3.3.7h-1.1c-.8,0-1.7-.2-2.6-.5-1.8-.6-3-1.8-3.5-3.5-.3-.9-.4-1.9-.4-2.8v-.7c0-3.4,1.2-5.6,3.7-6.6.9-.4,2-.6,3.2-.6,2,0,3.5.5,4.6,1.5.4.4.8,1,1.1,1.8.3.8.5,1.5.5,2.1v.9c0,.8-.3,1.3-.9,1.6-.6.2-1.8.4-3.7.4ZM776.9,200.1v-.2c0-.7-.3-1.3-.8-1.7-.5-.4-1.1-.6-1.8-.6h-.4c-.8,0-1.5.3-2.1.8-.6.5-.9,1.2-.9,2v.2c0,.3.3.4.9.4h.8s3.1-.2,3.1-.2h.3c.5,0,.8-.2.8-.7Z"/>
        </g>
      </g>
    </g>
  </g>
</svg>