<?xml version="1.0" encoding="UTF-8"?>
<svg id="Layer_2" xmlns="http://www.w3.org/2000/svg" version="1.1" viewBox="0 0 1440 60.2">
  <!-- Generator: Adobe Illustrator 29.8.1, SVG Export Plug-In . SVG Version: 2.1.1 Build 2)  -->
  <defs>
    <style>
      .st0, .st1, .st2, .st3, .st4 {
        isolation: isolate;
      }

      .st5 {
        fill: #f9b749;
      }

      .st1 {
        letter-spacing: 0em;
      }

      .st1, .st2, .st3, .st4 {
        fill: #75c83c;
        font-family: AveriaSansLibre-Bold, 'Averia Sans Libre';
        font-size: 16px;
        font-weight: 700;
      }

      .st2 {
        letter-spacing: 0em;
      }

      .st3 {
        letter-spacing: 0em;
      }

      .st6 {
        fill: #7205aa;
      }
    </style>
  </defs>
  <g id="Matisse_Front">
    <rect class="st6" width="1440" height="60.2"/>
    <rect y="47.2" width="1440" height="13"/>
    <g class="st0">
      <g class="st0">
        <path class="st5" d="M86.9,31.2c-.4,0-.7,0-1.1,0s-.7,0-1,0c-.9,0-1.9,0-2.9.3,0-.1,0-.3.1-.4,0-.1,0-.2.1-.4,0-.1,0-.3,0-.5s0-.4,0-.7,0-.5,0-.8c0-.3-.1-.5-.2-.7s-.2-.4-.3-.5-.3-.2-.4-.2-.3,0-.4.2-.2.2-.3.4-.1.4-.2.6,0,.5,0,.7,0,.5,0,.7c0,.2,0,.4.1.5s0,.3.1.4,0,.2,0,.3c-.4,0-.8,0-1.2-.1s-.8,0-1.2,0-.8,0-1.2,0-.8,0-1.2.1c.4-1.1.7-2.1,1-3.1s.5-2.1.7-3.1.4-2.1.5-3.2.2-2.2.3-3.3c.4,0,.9.1,1.4.1.5,0,1.1,0,1.6,0s.9,0,1.3,0,.8,0,1.2-.1c0,1.1.1,2.2.3,3.3s.4,2.2.6,3.2c.3,1.1.5,2.1.9,3.2s.7,2.1,1,3.1ZM82,24.4c0-.1,0-.3-.1-.5,0-.2-.1-.4-.2-.7-.1-.3-.3-.7-.5-1.2,0,.3,0,.6-.2.8,0,.2-.1.5-.2.6s0,.4-.1.5,0,.3,0,.4c0,.3,0,.5.2.7s.3.2.5.2.3,0,.5-.3.2-.4.2-.7Z"/>
        <path class="st5" d="M93.5,23.1c-.2,0-.3,0-.5.2-.1.1-.3.2-.4.4-.1.2-.2.4-.3.7s-.2.5-.2.9c0,.5,0,1,0,1.5s0,1,.1,1.5.1,1,.2,1.5.2.9.3,1.4c0,0-.2,0-.3,0-.1,0-.2,0-.4,0s-.3,0-.5,0c-.4,0-.8,0-1.3,0s-1,0-1.6.2c0-.3.1-.7.2-1.2s0-1,.1-1.5,0-1.1,0-1.7c0-.6,0-1.2,0-1.8s0-.9,0-1.3,0-.8,0-1.2,0-.7,0-1,0-.6-.1-.8c.5,0,.9.1,1.3.2s.7,0,1.1,0,.4,0,.5,0c.2,0,.3,0,.4,0,.1,0,.2,0,.3,0,0,.3-.1.6-.2,1,.3-.4.6-.6,1-.8s.7-.3,1-.3c.5,0,1,0,1.3.3.4.2.7.4.9.7.2.3.4.7.5,1s.1.8.1,1.2,0,.8-.2,1.2-.3.7-.5,1c-.2.3-.5.5-.8.7s-.7.3-1.1.3-.6,0-.9-.2-.4-.3-.6-.5-.3-.4-.3-.6c0-.2-.1-.4-.1-.7s0-.5.1-.7.2-.4.3-.6c0,.1,0,.2.2.3,0,0,.1.1.2.1,0,0,.1,0,.2,0,.2,0,.4,0,.5-.1s.2-.2.2-.4,0-.1,0-.2,0-.2-.1-.2-.1-.1-.3-.2-.3,0-.4,0Z"/>
        <path class="st5" d="M106.4,20.4c0,.3,0,.5-.1.8s0,.5,0,.8,0,.5,0,.8c0,.3,0,.5.1.8-.3-.1-.6-.3-1-.3s-.7-.1-1.1-.2v.8c0,.7,0,1.3,0,2,0,.7,0,1.3.1,2,0,.6.1,1.2.2,1.8s.2,1.1.3,1.5c0,0-.2,0-.4,0-.1,0-.3,0-.4,0s-.3,0-.5,0c-.4,0-.8,0-1.3,0s-1,0-1.6.2c.2-1.1.3-2.3.4-3.6,0-1.2.1-2.4.1-3.6v-1c-.4,0-.8,0-1.2.1-.4,0-.8.1-1.1.2,0,0,0-.1,0-.3s0-.2,0-.3,0-.2,0-.3,0-.2,0-.3c0-.3,0-.6,0-.9s0-.6,0-.9c.3.1.6.2,1,.3.4,0,.8.1,1.2.2,0-.5,0-1-.1-1.4s-.1-.8-.2-1.2c.5,0,.9.1,1.3.2s.8,0,1.1,0,.4,0,.6,0c.2,0,.3,0,.4,0,.1,0,.3,0,.4,0,0,.3-.1.6-.2,1.1s0,.9-.1,1.4c.4,0,.8,0,1.1-.2s.6-.2.9-.3Z"/>
        <path class="st5" d="M112.8,31c0,0-.2,0-.4,0-.1,0-.3,0-.4,0s-.3,0-.5,0c-.4,0-.8,0-1.3,0s-1,0-1.6.2c.1-.2.2-.5.3-.8,0-.3.1-.7.2-1.1s0-.8.1-1.2,0-.8,0-1.1,0-.6,0-.8,0-.4,0-.4c0-.8,0-1.5,0-2.1,0-.3,0-.6,0-.9s0-.6,0-.8c0-.3,0-.5-.1-.7,0-.2,0-.4-.2-.5.5,0,.9.1,1.3.2s.8,0,1.1,0,.4,0,.6,0c.2,0,.3,0,.4,0,.1,0,.3,0,.4,0-.1.5-.2,1.2-.3,1.9s-.1,1.5-.1,2.4,0,1,0,1.5,0,1,.1,1.5.1,1,.2,1.5.2.9.3,1.4ZM108.8,18.5c0-.3,0-.5.2-.8.1-.2.2-.4.4-.6.2-.2.4-.3.6-.4.2-.1.5-.2.8-.2s.5,0,.8.2c.2.1.4.2.6.4.2.2.3.4.4.6.1.2.2.5.2.8s0,.5-.2.8-.2.5-.4.6c-.2.2-.4.3-.6.4-.2.1-.5.2-.8.2s-.5,0-.8-.2c-.2-.1-.4-.2-.6-.4-.2-.2-.3-.4-.4-.6s-.2-.5-.2-.8Z"/>
        <path class="st5" d="M122.6,23.1c0,.2,0,.4-.1.6s-.2.3-.4.5c-.2.1-.3.2-.6.3-.2,0-.4.1-.7.1s-.5,0-.7,0-.4-.1-.5-.2-.2-.2-.3-.3c0-.1-.1-.2-.2-.4s0-.2,0-.3,0-.2,0-.2c0,0,.1.2.2.2s.1,0,.2,0c.1,0,.2,0,.3-.1s0-.1,0-.2,0,0,0-.2,0-.1-.1-.2-.1,0-.2-.1-.2,0-.4,0-.2,0-.3,0-.2,0-.3.2-.1.2-.2.3c0,.1,0,.2,0,.4,0,.3,0,.5.2.7s.3.3.5.5.5.3.7.4.6.2.9.4c.3.1.6.3.9.4.3.2.5.3.7.6s.4.5.5.8.2.7.2,1.1-.1,1-.3,1.5-.5.8-.9,1.1c-.4.3-.8.6-1.3.7-.5.2-1,.3-1.6.3s-1,0-1.4-.2-.8-.3-1.2-.6-.6-.5-.8-.9-.3-.7-.3-1.1,0-.5.1-.8c0-.2.2-.4.4-.5s.4-.2.6-.3.5-.1.7-.1.4,0,.6,0,.4.1.5.2.3.2.5.3.2.3.3.4c0,0,0,0-.1,0s0,0-.1,0c-.1,0-.2,0-.3.1s-.1.2-.1.3,0,.3.2.4.3.2.4.2.2,0,.3,0,.2,0,.2-.2.1-.1.1-.2,0-.2,0-.3c0-.2,0-.3-.2-.5s-.2-.3-.4-.4c-.4-.2-.7-.4-1-.6s-.6-.3-.9-.5-.5-.3-.7-.4-.4-.3-.6-.5c-.2-.2-.3-.4-.4-.7s-.1-.6-.1-1,0-.9.3-1.3c.2-.4.4-.7.8-1s.7-.5,1.2-.7,1-.2,1.7-.2,1.2,0,1.6.2.8.3,1,.6.5.5.6.8.2.6.2.8Z"/>
        <path class="st5" d="M132.3,20.4c0,.3,0,.5-.1.8s0,.5,0,.8,0,.5,0,.8c0,.3,0,.5.1.8-.3-.1-.6-.3-1-.3s-.7-.1-1.1-.2v.8c0,.7,0,1.3,0,2,0,.7,0,1.3.1,2,0,.6.1,1.2.2,1.8s.2,1.1.3,1.5c0,0-.2,0-.4,0-.1,0-.3,0-.4,0s-.3,0-.5,0c-.4,0-.8,0-1.3,0s-1,0-1.6.2c.2-1.1.3-2.3.4-3.6,0-1.2.1-2.4.1-3.6v-1c-.4,0-.8,0-1.2.1-.4,0-.8.1-1.1.2,0,0,0-.1,0-.3s0-.2,0-.3,0-.2,0-.3,0-.2,0-.3c0-.3,0-.6,0-.9s0-.6,0-.9c.3.1.6.2,1,.3.4,0,.8.1,1.2.2,0-.5,0-1-.1-1.4s-.1-.8-.2-1.2c.5,0,.9.1,1.3.2s.8,0,1.1,0,.4,0,.6,0c.2,0,.3,0,.4,0,.1,0,.3,0,.4,0,0,.3-.1.6-.2,1.1s0,.9-.1,1.4c.4,0,.8,0,1.1-.2s.6-.2.9-.3Z"/>
        <path class="st5" d="M141.8,23.1c0,.2,0,.4-.1.6s-.2.3-.4.5c-.2.1-.3.2-.6.3-.2,0-.4.1-.7.1s-.5,0-.7,0-.4-.1-.5-.2-.2-.2-.3-.3c0-.1-.1-.2-.2-.4s0-.2,0-.3,0-.2,0-.2c0,0,.1.2.2.2s.1,0,.2,0c.1,0,.2,0,.3-.1s0-.1,0-.2,0,0,0-.2,0-.1-.1-.2-.1,0-.2-.1-.2,0-.4,0-.2,0-.3,0-.2,0-.3.2-.1.2-.2.3c0,.1,0,.2,0,.4,0,.3,0,.5.2.7s.3.3.5.5.5.3.7.4.6.2.9.4c.3.1.6.3.9.4.3.2.5.3.7.6s.4.5.5.8.2.7.2,1.1-.1,1-.3,1.5-.5.8-.9,1.1c-.4.3-.8.6-1.3.7-.5.2-1,.3-1.6.3s-1,0-1.4-.2-.8-.3-1.2-.6-.6-.5-.8-.9-.3-.7-.3-1.1,0-.5.1-.8c0-.2.2-.4.4-.5s.4-.2.6-.3.5-.1.7-.1.4,0,.6,0,.4.1.5.2.3.2.5.3.2.3.3.4c0,0,0,0-.1,0s0,0-.1,0c-.1,0-.2,0-.3.1s-.1.2-.1.3,0,.3.2.4.3.2.4.2.2,0,.3,0,.2,0,.2-.2.1-.1.1-.2,0-.2,0-.3c0-.2,0-.3-.2-.5s-.2-.3-.4-.4c-.4-.2-.7-.4-1-.6s-.6-.3-.9-.5-.5-.3-.7-.4-.4-.3-.6-.5c-.2-.2-.3-.4-.4-.7s-.1-.6-.1-1,0-.9.3-1.3c.2-.4.4-.7.8-1s.7-.5,1.2-.7,1-.2,1.7-.2,1.2,0,1.6.2.8.3,1,.6.5.5.6.8.2.6.2.8Z"/>
        <path class="st5" d="M159.4,31.2c-.4,0-.7,0-1.1,0s-.7,0-1,0c-.9,0-1.9,0-2.9.3,0-.1,0-.3.1-.4,0-.1,0-.2.1-.4,0-.1,0-.3,0-.5s0-.4,0-.7,0-.5,0-.8c0-.3-.1-.5-.2-.7s-.2-.4-.3-.5-.3-.2-.4-.2-.3,0-.4.2-.2.2-.3.4-.1.4-.2.6,0,.5,0,.7,0,.5,0,.7c0,.2,0,.4.1.5s0,.3.1.4,0,.2,0,.3c-.4,0-.8,0-1.2-.1s-.8,0-1.2,0-.8,0-1.2,0-.8,0-1.2.1c.4-1.1.7-2.1,1-3.1s.5-2.1.7-3.1.4-2.1.5-3.2.2-2.2.3-3.3c.4,0,.9.1,1.4.1.5,0,1.1,0,1.6,0s.9,0,1.3,0,.8,0,1.2-.1c0,1.1.1,2.2.3,3.3s.4,2.2.6,3.2c.3,1.1.5,2.1.9,3.2s.7,2.1,1,3.1ZM154.5,24.4c0-.1,0-.3-.1-.5,0-.2-.1-.4-.2-.7-.1-.3-.3-.7-.5-1.2,0,.3,0,.6-.2.8,0,.2-.1.5-.2.6s0,.4-.1.5,0,.3,0,.4c0,.3,0,.5.2.7s.3.2.5.2.3,0,.5-.3.2-.4.2-.7Z"/>
        <path class="st5" d="M165.9,23.1c-.2,0-.3,0-.5.2-.1.1-.3.2-.4.4-.1.2-.2.4-.3.7s-.2.5-.2.9c0,.5,0,1,0,1.5s0,1,.1,1.5.1,1,.2,1.5.2.9.3,1.4c0,0-.2,0-.3,0-.1,0-.2,0-.4,0s-.3,0-.5,0c-.4,0-.8,0-1.3,0s-1,0-1.6.2c0-.3.1-.7.2-1.2s0-1,.1-1.5,0-1.1,0-1.7c0-.6,0-1.2,0-1.8s0-.9,0-1.3,0-.8,0-1.2,0-.7,0-1,0-.6-.1-.8c.5,0,.9.1,1.3.2s.7,0,1.1,0,.4,0,.5,0c.2,0,.3,0,.4,0,.1,0,.2,0,.3,0,0,.3-.1.6-.2,1,.3-.4.6-.6,1-.8s.7-.3,1-.3c.5,0,1,0,1.3.3.4.2.7.4.9.7.2.3.4.7.5,1s.1.8.1,1.2,0,.8-.2,1.2-.3.7-.5,1c-.2.3-.5.5-.8.7s-.7.3-1.1.3-.6,0-.9-.2-.4-.3-.6-.5-.3-.4-.3-.6c0-.2-.1-.4-.1-.7s0-.5.1-.7.2-.4.3-.6c0,.1,0,.2.2.3,0,0,.1.1.2.1,0,0,.1,0,.2,0,.2,0,.4,0,.5-.1s.2-.2.2-.4,0-.1,0-.2,0-.2-.1-.2-.1-.1-.3-.2-.3,0-.4,0Z"/>
        <path class="st5" d="M179.5,22.9c0,.4,0,.9-.2,1.3s-.3.8-.7,1.1-.7.6-1.3.8-1.2.3-2,.3c0,.3,0,.5.2.7s.2.3.3.5.3.2.4.3.3,0,.4.1.3,0,.5,0c.4,0,.7-.1,1-.3.1,0,.2-.1.4-.2.1,0,.2-.2.3-.3s.2-.3.2-.4c0-.2,0-.3.1-.6.2.4.3.7.3,1.1,0,.3,0,.6,0,.9,0,.5,0,1-.3,1.5s-.5.8-.8,1.1-.7.6-1.2.8c-.5.2-1,.3-1.5.3s-1,0-1.5-.3-.9-.5-1.3-.9c-.4-.4-.7-.9-.9-1.5s-.3-1.4-.3-2.3.1-1.8.4-2.6.7-1.4,1.1-1.9c.5-.5,1-.9,1.6-1.2s1.3-.4,2-.4.7,0,1,.1.6.2.8.4.4.4.6.7.2.6.2,1ZM175.3,24.9c.2,0,.4,0,.6-.1.2,0,.4-.1.6-.3s.4-.2.5-.4.2-.4.2-.6,0-.2-.1-.3-.2-.1-.4-.1-.4,0-.5.2-.3.3-.4.4-.2.4-.3.6-.1.4-.1.6Z"/>
      </g>
      <g class="st0">
        <path class="st5" d="M196.1,18.5c0,.2-.1.4-.2.6s-.1.5-.1.8,0,.5-.1.8,0,.5,0,.8c0,.6,0,1.2,0,1.9,0,.4,0,.8,0,1.3s0,.9,0,1.4,0,.9-.2,1.4c0,.5-.2.9-.4,1.3s-.4.8-.6,1.2c-.3.4-.6.7-1,.9-.4.3-.8.5-1.4.6-.5.2-1.1.2-1.9.2s-1.2-.1-1.7-.3-.9-.5-1.2-.8-.6-.7-.8-1.2-.3-.9-.3-1.4,0-.8.2-1.2.3-.6.6-.9c.2-.2.5-.4.8-.5s.6-.2.9-.2.8.1,1.2.4.7.6.9,1.2c0,0-.1-.1-.2-.1s-.2,0-.2,0c0,0-.2,0-.3,0,0,0-.2.1-.2.2,0,0-.1.2-.2.3s0,.2,0,.3,0,.3,0,.4c0,.1.1.2.2.3,0,0,.2.1.3.2.1,0,.2,0,.4,0,.3,0,.5,0,.7-.2s.3-.3.4-.6.2-.6.2-1.1,0-.9,0-1.5,0-.8,0-1.2c0-.4,0-.9,0-1.3s0-.9-.1-1.3c0-.4-.1-.8-.2-1.2,0-.4-.1-.7-.2-1s-.2-.5-.3-.7c.2,0,.5.1.8.2.3,0,.6,0,.9.1s.8,0,1.3,0,.7,0,1,0,.7,0,1.1-.1Z"/>
      </g>
      <g class="st0">
        <path class="st5" d="M206,22.9c0,.4,0,.9-.2,1.3s-.3.8-.7,1.1-.7.6-1.3.8-1.2.3-2,.3c0,.3,0,.5.2.7s.2.3.3.5.3.2.4.3.3,0,.4.1.3,0,.5,0c.4,0,.7-.1,1-.3.1,0,.2-.1.4-.2.1,0,.2-.2.3-.3s.2-.3.2-.4c0-.2,0-.3.1-.6.2.4.3.7.3,1.1,0,.3,0,.6,0,.9,0,.5,0,1-.3,1.5s-.5.8-.8,1.1-.7.6-1.2.8c-.5.2-1,.3-1.5.3s-1,0-1.5-.3-.9-.5-1.3-.9c-.4-.4-.7-.9-.9-1.5s-.3-1.4-.3-2.3.1-1.8.4-2.6.7-1.4,1.1-1.9c.5-.5,1-.9,1.6-1.2s1.3-.4,2-.4.7,0,1,.1.6.2.8.4.4.4.6.7.2.6.2,1ZM201.8,24.9c.2,0,.4,0,.6-.1.2,0,.4-.1.6-.3s.4-.2.5-.4.2-.4.2-.6,0-.2-.1-.3-.2-.1-.4-.1-.4,0-.5.2-.3.3-.4.4-.2.4-.3.6-.1.4-.1.6Z"/>
        <path class="st5" d="M213.3,23.1c-.2,0-.3,0-.5.2-.1.1-.3.2-.4.4-.1.2-.2.4-.3.7s-.2.5-.2.9c0,.5,0,1,0,1.5s0,1,.1,1.5.1,1,.2,1.5.2.9.3,1.4c0,0-.2,0-.3,0-.1,0-.2,0-.4,0s-.3,0-.5,0c-.4,0-.8,0-1.3,0s-1,0-1.6.2c0-.3.1-.7.2-1.2s0-1,.1-1.5,0-1.1,0-1.7c0-.6,0-1.2,0-1.8s0-.9,0-1.3,0-.8,0-1.2,0-.7,0-1,0-.6-.1-.8c.5,0,.9.1,1.3.2s.7,0,1.1,0,.4,0,.5,0c.2,0,.3,0,.4,0,.1,0,.2,0,.3,0,0,.3-.1.6-.2,1,.3-.4.6-.6,1-.8s.7-.3,1-.3c.5,0,1,0,1.3.3.4.2.7.4.9.7.2.3.4.7.5,1s.1.8.1,1.2,0,.8-.2,1.2-.3.7-.5,1c-.2.3-.5.5-.8.7s-.7.3-1.1.3-.6,0-.9-.2-.4-.3-.6-.5-.3-.4-.3-.6c0-.2-.1-.4-.1-.7s0-.5.1-.7.2-.4.3-.6c0,.1,0,.2.2.3,0,0,.1.1.2.1,0,0,.1,0,.2,0,.2,0,.4,0,.5-.1s.2-.2.2-.4,0-.1,0-.2,0-.2-.1-.2-.1-.1-.3-.2-.3,0-.4,0Z"/>
        <path class="st5" d="M227.6,31.3c-.7,0-1.2,0-1.7,0s-.8,0-1.1,0c-.3,0-.5,0-.7,0-.2,0-.4,0-.5.1,0-.3,0-.6.1-.8s0-.5,0-.8c0-.5,0-.9,0-1.3,0-.3,0-.6-.2-.9s-.2-.4-.3-.6-.2-.3-.4-.4c0,.2,0,.4,0,.6s0,.4,0,.6c0,.4,0,.9,0,1.4,0,.5.1,1.1.3,1.8-.2,0-.4,0-.6,0-.2,0-.4,0-.7,0-.3,0-.6,0-.9,0s-.7,0-1,0-.7,0-1.1,0c.1-.2.2-.4.3-.7s.2-.6.2-1,.1-.8.2-1.2,0-.8.1-1.3c0-.4,0-.9,0-1.3s0-.8,0-1.2,0-1,0-1.5,0-1,0-1.5,0-.9-.1-1.4,0-.8-.1-1.2,0-.7-.1-.9,0-.4-.1-.5c.4,0,.8,0,1.2,0s1,0,1.5,0,1-.1,1.4-.2c0,.2-.1.5-.2.8,0,.3-.1.7-.2,1.1,0,.4,0,.8-.1,1.3,0,.4,0,.9,0,1.3s0,.9,0,1.3,0,.8,0,1.1,0,.4,0,.6,0,.3,0,.5c.4-.5.7-1,.9-1.5.2-.5.3-1,.3-1.4s-.1-.9-.4-1.4c.2,0,.5,0,.7,0,.2,0,.5,0,.7,0,.4,0,.8,0,1.3,0,.4,0,.8,0,1.3-.2-.2.2-.3.5-.4.8-.1.3-.2.6-.3.9,0,.3-.1.7-.2,1,0,.3-.1.6-.3.9,0,.1-.1.3-.2.4,0,.1-.2.3-.3.4-.1.1-.2.2-.3.4-.1.1-.3.2-.4.3.3.1.6.3.8.5s.3.4.4.7c0,.3.1.5.2.8s0,.6.1,1c0,.3.1.6.2.8,0,.2.2.5.3.8s.2.5.4.8Z"/>
        <path class="st5" d="M237.1,23.1c0,.2,0,.4-.1.6s-.2.3-.4.5c-.2.1-.3.2-.6.3-.2,0-.4.1-.7.1s-.5,0-.7,0-.4-.1-.5-.2-.2-.2-.3-.3c0-.1-.1-.2-.2-.4s0-.2,0-.3,0-.2,0-.2c0,0,.1.2.2.2s.1,0,.2,0c.1,0,.2,0,.3-.1s0-.1,0-.2,0,0,0-.2,0-.1-.1-.2-.1,0-.2-.1-.2,0-.4,0-.2,0-.3,0-.2,0-.3.2-.1.2-.2.3c0,.1,0,.2,0,.4,0,.3,0,.5.2.7s.3.3.5.5.5.3.7.4.6.2.9.4c.3.1.6.3.9.4.3.2.5.3.7.6s.4.5.5.8.2.7.2,1.1-.1,1-.3,1.5-.5.8-.9,1.1c-.4.3-.8.6-1.3.7-.5.2-1,.3-1.6.3s-1,0-1.4-.2-.8-.3-1.2-.6-.6-.5-.8-.9-.3-.7-.3-1.1,0-.5.1-.8c0-.2.2-.4.4-.5s.4-.2.6-.3.5-.1.7-.1.4,0,.6,0,.4.1.5.2.3.2.5.3.2.3.3.4c0,0,0,0-.1,0s0,0-.1,0c-.1,0-.2,0-.3.1s-.1.2-.1.3,0,.3.2.4.3.2.4.2.2,0,.3,0,.2,0,.2-.2.1-.1.1-.2,0-.2,0-.3c0-.2,0-.3-.2-.5s-.2-.3-.4-.4c-.4-.2-.7-.4-1-.6s-.6-.3-.9-.5-.5-.3-.7-.4-.4-.3-.6-.5c-.2-.2-.3-.4-.4-.7s-.1-.6-.1-1,0-.9.3-1.3c.2-.4.4-.7.8-1s.7-.5,1.2-.7,1-.2,1.7-.2,1.2,0,1.6.2.8.3,1,.6.5.5.6.8.2.6.2.8Z"/>
      </g>
    </g>
    <g class="st0">
      <text class="st4" transform="translate(493.6 30.4) scale(1 1)"><tspan x="0" y="0">Wh</tspan></text>
      <text class="st4" transform="translate(518 30.4) scale(1 1)"><tspan x="0" y="0">a</tspan></text>
      <text class="st4" transform="translate(526.9 30.4) scale(1 1)"><tspan x="0" y="0">t</tspan></text>
      <text class="st1" transform="translate(533.1 30.4) scale(1 1)"><tspan x="0" y="0">&apos;</tspan></text>
      <text class="st4" transform="translate(537 30.4) scale(1 1)"><tspan x="0" y="0">s a </tspan></text>
      <text class="st4" transform="translate(563.4 30.4) scale(1 1)"><tspan x="0" y="0">J</tspan></text>
      <text class="st4" transform="translate(570.8 30.4) scale(1 1)"><tspan x="0" y="0">e</tspan></text>
      <text class="st4" transform="translate(579.5 30.4) scale(1 1)"><tspan x="0" y="0">r</tspan></text>
      <text class="st4" transform="translate(586.2 30.4) scale(1 1)"><tspan x="0" y="0">k</tspan></text>
      <text class="st4" transform="translate(594.8 30.4) scale(1 1)"><tspan x="0" y="0" xml:space="preserve">?    |   </tspan></text>
      <text class="st4" transform="translate(641.7 30.4) scale(1 1)"><tspan x="0" y="0"> </tspan></text>
      <text class="st4" transform="translate(646.5 30.4) scale(1 1)"><tspan x="0" y="0">A</tspan></text>
      <text class="st4" transform="translate(657.2 30.4) scale(1 1)"><tspan x="0" y="0">r</tspan></text>
      <text class="st4" transform="translate(663.9 30.4) scale(1 1)"><tspan x="0" y="0">tist </tspan></text>
      <text class="st4" transform="translate(693.7 30.4) scale(1 1)"><tspan x="0" y="0">S</tspan></text>
      <text class="st4" transform="translate(703.3 30.4) scale(1 1)"><tspan x="0" y="0">tudio </tspan></text>
      <text class="st4" transform="translate(746.5 30.4) scale(1 1)"><tspan x="0" y="0">G</tspan></text>
      <text class="st4" transform="translate(757.4 30.4) scale(1 1)"><tspan x="0" y="0">ui</tspan></text>
      <text class="st4" transform="translate(771.3 30.4) scale(1 1)"><tspan x="0" y="0">d</tspan></text>
      <text class="st4" transform="translate(780.5 30.4) scale(1 1)"><tspan x="0" y="0" xml:space="preserve">e    |    </tspan></text>
      <text class="st4" transform="translate(832.6 30.4) scale(1 1)"><tspan x="0" y="0">H</tspan></text>
      <text class="st4" transform="translate(843.7 30.4) scale(1 1)"><tspan x="0" y="0">o</tspan></text>
      <text class="st4" transform="translate(852.6 30.4) scale(1 1)"><tspan x="0" y="0">w</tspan></text>
      <text class="st4" transform="translate(865 30.4) scale(1 1)"><tspan x="0" y="0"> </tspan></text>
      <text class="st4" transform="translate(869.8 30.4) scale(1 1)"><tspan x="0" y="0">A</tspan></text>
      <text class="st4" transform="translate(880.5 30.4) scale(1 1)"><tspan x="0" y="0">r</tspan></text>
      <text class="st4" transform="translate(887.2 30.4) scale(1 1)"><tspan x="0" y="0">t</tspan></text>
      <text class="st4" transform="translate(893.5 30.4) scale(1 1)"><tspan x="0" y="0"> </tspan></text>
      <text class="st3" transform="translate(898.3 30.4) scale(1 1)"><tspan x="0" y="0">W</tspan></text>
      <text class="st4" transform="translate(912.7 30.4) scale(1 1)"><tspan x="0" y="0">o</tspan></text>
      <text class="st4" transform="translate(921.8 30.4) scale(1 1)"><tspan x="0" y="0">r</tspan></text>
      <text class="st4" transform="translate(928.4 30.4) scale(1 1)"><tspan x="0" y="0">k</tspan></text>
      <text class="st4" transform="translate(937 30.4) scale(1 1)"><tspan x="0" y="0" xml:space="preserve">s    |    G</tspan></text>
      <text class="st4" transform="translate(999.2 30.4) scale(1 1)"><tspan x="0" y="0">ate</tspan></text>
      <text class="st2" transform="translate(1023 30.4) scale(1 1)"><tspan x="0" y="0">k</tspan></text>
      <text class="st4" transform="translate(1031.5 30.4) scale(1 1)"><tspan x="0" y="0">ee</tspan></text>
      <text class="st4" transform="translate(1048.8 30.4) scale(1 1)"><tspan x="0" y="0">p</tspan></text>
      <text class="st4" transform="translate(1058.1 30.4) scale(1 1)"><tspan x="0" y="0">e</tspan></text>
      <text class="st4" transform="translate(1066.8 30.4) scale(1 1)"><tspan x="0" y="0" xml:space="preserve">rs    |    Cl</tspan></text>
      <text class="st4" transform="translate(1139.9 30.4) scale(1 1)"><tspan x="0" y="0">as</tspan></text>
      <text class="st4" transform="translate(1156.6 30.4) scale(1 1)"><tspan x="0" y="0">s</tspan></text>
      <text class="st4" transform="translate(1164.4 30.4) scale(1 1)"><tspan x="0" y="0">r</tspan></text>
      <text class="st4" transform="translate(1171 30.4) scale(1 1)"><tspan x="0" y="0" xml:space="preserve">oom    |   </tspan></text>
      <text class="st4" transform="translate(1241.2 30.4) scale(1 1)"><tspan x="0" y="0"> </tspan></text>
      <text class="st4" transform="translate(1246 30.4) scale(1 1)"><tspan x="0" y="0">A</tspan></text>
      <text class="st4" transform="translate(1256.6 30.4) scale(1 1)"><tspan x="0" y="0">t</tspan></text>
      <text class="st4" transform="translate(1262.9 30.4) scale(1 1)"><tspan x="0" y="0">ten</tspan></text>
      <text class="st4" transform="translate(1287 30.4) scale(1 1)"><tspan x="0" y="0">ti</tspan></text>
      <text class="st4" transform="translate(1297.9 30.4) scale(1 1)"><tspan x="0" y="0">o</tspan></text>
      <text class="st4" transform="translate(1307 30.4) scale(1 1)"><tspan x="0" y="0">n </tspan></text>
      <text class="st4" transform="translate(1321.1 30.4) scale(1 1)"><tspan x="0" y="0">La</tspan></text>
      <text class="st4" transform="translate(1338.8 30.4) scale(1 1)"><tspan x="0" y="0">b</tspan></text>
    </g>
  </g>
</svg>