<?xml version="1.0" encoding="UTF-8"?>
<svg id="Layer_2" data-name="Layer 2" xmlns="http://www.w3.org/2000/svg" width="1440" height="65.45" viewBox="0 0 1440 65.45">
  <defs>
    <style>
      .cls-1 {
        fill: #75c83c;
        font-family: AveriaSansLibre-Bold, 'Averia Sans Libre';
        font-size: 14px;
        font-weight: 700;
      }

      .cls-2 {
        letter-spacing: 0em;
      }

      .cls-3 {
        letter-spacing: 0em;
      }

      .cls-4 {
        letter-spacing: 0em;
      }

      .cls-5 {
        letter-spacing: 0em;
      }

      .cls-6 {
        letter-spacing: 0em;
      }

      .cls-7 {
        letter-spacing: 0em;
      }

      .cls-8 {
        letter-spacing: 0em;
      }

      .cls-9 {
        letter-spacing: 0em;
      }

      .cls-10 {
        letter-spacing: 0em;
      }

      .cls-11 {
        letter-spacing: 0em;
      }

      .cls-12 {
        letter-spacing: -.01em;
      }

      .cls-13 {
        letter-spacing: 0em;
      }

      .cls-14 {
        letter-spacing: 0em;
      }

      .cls-15 {
        letter-spacing: 0em;
      }

      .cls-16 {
        letter-spacing: 0em;
      }

      .cls-17 {
        letter-spacing: 0em;
      }

      .cls-18 {
        letter-spacing: 0em;
      }

      .cls-19 {
        letter-spacing: 0em;
      }

      .cls-20 {
        letter-spacing: 0em;
      }
    </style>
  </defs>
  <g id="Matisse_Front" data-name="Matisse Front">
    <rect y=".9" width="1440" height="60.2"/>
    <g>
      <text></text>
      <text class="cls-1" transform="translate(403.33 28.61) scale(1.04 1)"><tspan x="0" y="0">Bui</tspan><tspan class="cls-16" x="20.29" y="0">l</tspan><tspan x="24.36" y="0">t with app</tspan><tspan class="cls-10" x="88.13" y="0">r</tspan><tspan x="93.64" y="0">opri</tspan><tspan class="cls-18" x="118.52" y="0">at</tspan><tspan x="131.22" y="0">ed pi</tspan><tspan class="cls-12" x="162.02" y="0">x</tspan><tspan class="cls-16" x="169" y="0">e</tspan><tspan x="176.31" y="0">ls &amp; st</tspan><tspan class="cls-10" x="216.13" y="0">r</tspan><tspan class="cls-16" x="221.64" y="0">o</tspan><tspan class="cls-5" x="229.27" y="0">ng </tspan><tspan class="cls-9" x="248.88" y="0">c</tspan><tspan class="cls-16" x="255.59" y="0">o</tspan><tspan class="cls-3" x="263.22" y="0">f</tspan><tspan class="cls-9" x="268.52" y="0">f</tspan><tspan class="cls-18" x="273.76" y="0">e</tspan><tspan class="cls-9" x="281.07" y="0">e.</tspan><tspan x="292.15" y="0" xml:space="preserve"> D</tspan><tspan class="cls-14" x="305.44" y="0">e</tspan><tspan class="cls-13" x="312.68" y="0">v</tspan><tspan class="cls-16" x="319.68" y="0">e</tspan><tspan class="cls-11" x="327" y="0">l</tspan><tspan class="cls-4" x="331.04" y="0">oped in </tspan><tspan class="cls-9" x="381.35" y="0">c</tspan><tspan class="cls-16" x="388.06" y="0">ol</tspan><tspan class="cls-2" x="399.77" y="0">l</tspan><tspan class="cls-16" x="403.87" y="0">a</tspan><tspan x="411.33" y="0">b</tspan><tspan class="cls-16" x="419.12" y="0">ora</tspan><tspan x="439.76" y="0">ti</tspan><tspan class="cls-16" x="448.9" y="0">o</tspan><tspan x="456.52" y="0">n with</tspan><tspan class="cls-15" x="495.73" y="0"> </tspan><tspan x="499.75" y="0">A</tspan><tspan class="cls-16" x="508.81" y="0">I</tspan><tspan class="cls-4" x="513.22" y="0">-</tspan><tspan class="cls-17" x="519" y="0">as</tspan><tspan x="533.05" y="0">sis</tspan><tspan class="cls-16" x="550.16" y="0">t</tspan><tspan x="555.4" y="0">ed to</tspan><tspan class="cls-15" x="587.45" y="0">o</tspan><tspan class="cls-2" x="595.08" y="0">ls</tspan><tspan class="cls-9" x="605.8" y="0">.</tspan><tspan class="cls-6" x="130.08" y="16.8">C</tspan><tspan x="138.67" y="16.8">o</tspan><tspan class="cls-7" x="146.33" y="16.8">p</tspan><tspan x="154.03" y="16.8">yright © 2025</tspan><tspan class="cls-16" x="241.84" y="16.8"> </tspan><tspan x="245.85" y="16.8">A</tspan><tspan class="cls-19" x="254.91" y="16.8">r</tspan><tspan x="260.56" y="16.8">tists</tspan><tspan class="cls-16" x="288.19" y="16.8"> </tspan><tspan x="292.21" y="16.8">A</tspan><tspan class="cls-8" x="301.26" y="16.8">r</tspan><tspan class="cls-2" x="306.77" y="16.8">e </tspan><tspan class="cls-14" x="318.15" y="16.8">J</tspan><tspan class="cls-16" x="324.45" y="16.8">e</tspan><tspan x="331.77" y="16.8">r</tspan><tspan class="cls-16" x="337.33" y="16.8">k</tspan><tspan x="344.63" y="16.8">s</tspan><tspan class="cls-11" x="351.25" y="16.8">.</tspan><tspan class="cls-16" x="355.04" y="16.8"> </tspan><tspan class="cls-4" x="359.05" y="16.8">A</tspan><tspan class="cls-17" x="368.11" y="16.8">l</tspan><tspan x="372.19" y="16.8">l rights </tspan><tspan class="cls-11" x="421.25" y="16.8">r</tspan><tspan class="cls-16" x="426.76" y="16.8">e</tspan><tspan x="434.07" y="16.8">s</tspan><tspan class="cls-16" x="440.69" y="16.8">e</tspan><tspan class="cls-20" x="448" y="16.8">r</tspan><tspan class="cls-13" x="453.62" y="16.8">v</tspan><tspan class="cls-2" x="460.63" y="16.8">ed</tspan><tspan class="cls-11" x="475.72" y="16.8">.</tspan></text>
    </g>
  </g>
</svg>